<?xml version="1.0" standalone="no"?><!DOCTYPE svg PUBLIC "-//W3C//DTD SVG 1.1//EN" "http://www.w3.org/Graphics/SVG/1.1/DTD/svg11.dtd"><svg t="1678542685912" class="icon" viewBox="0 0 1024 1024" version="1.1" xmlns="http://www.w3.org/2000/svg" p-id="20432" xmlns:xlink="http://www.w3.org/1999/xlink" width="200" height="200"><path d="M512 512m-448 0a448 448 0 1 0 896 0 448 448 0 1 0-896 0Z" fill="#ECEDF0" p-id="20433"></path><path d="M484.928 647.552V430.656H430.72v-54.208h108.416v271.104h54.272v54.144H430.72v-54.208h54.208-0.064z m54.144-379.52v54.208h-54.208v-54.208h54.208z" fill="#0563B2" p-id="20434"></path><path d="M51.2 512a460.8 460.8 0 1 1 921.6 0A460.416 460.416 0 0 1 512 972.8 460.8 460.8 0 0 1 51.2 512z m461.76 402.56c224.512 0 401.408-175.36 401.408-399.872C914.368 290.112 736.64 110.72 512 110.72S111.488 290.112 111.488 514.56c1.6 223.936 177.6 398.272 401.472 399.936z" fill="#1D293B" p-id="20435"></path></svg>