<?xml version="1.0" standalone="no"?><!DOCTYPE svg PUBLIC "-//W3C//DTD SVG 1.1//EN" "http://www.w3.org/Graphics/SVG/1.1/DTD/svg11.dtd"><svg t="1678526311179" class="icon" viewBox="0 0 1024 1024" version="1.1" xmlns="http://www.w3.org/2000/svg" p-id="3126" xmlns:xlink="http://www.w3.org/1999/xlink" width="200" height="200"><path d="M102.4 0h563.2l96.704 104.512L921.6 256v768H97.28z" fill="#ECEDF0" p-id="3127"></path><path d="M921.6 768v256H168.064l40.384-51.2H870.4V768h51.2z m-256-768l100.8 100.864-31.616 40.064L647.68 51.2H153.6v825.984l-51.2 64.896V0h563.2z m173.696 173.76L921.6 256v102.4h-51.2V280.576l-63.68-65.6 32.64-41.216z" fill="#07355B" p-id="3128"></path><path d="M905.152 531.2v64H511.68l40.448-64h353.024z" fill="#0563B2" p-id="3129"></path><path d="M961.472 552.192L762.24 751.36l-36.16-36.224 162.88-162.944-162.88-162.88 36.16-36.224z" fill="#0563B2" p-id="3130"></path><path d="M773.504 9.728l40.192 31.744-768 972.8-40.192-31.744z" fill="#07355B" p-id="3131"></path></svg>