<?xml version="1.0" encoding="UTF-8"?>
<svg width="16px" height="16px" viewBox="0 0 16 16" version="1.1" xmlns="http://www.w3.org/2000/svg" xmlns:xlink="http://www.w3.org/1999/xlink">
    <title>delete</title>
    <g id="设计工具" stroke="none" stroke-width="1" fill="none" fill-rule="evenodd">
        <g id="编组-121备份">
            <g id="删除-(1)" transform="translate(1.500000, 0.000000)" fill-rule="nonzero">
                <path d="M0,2.48233175 C0,2.02501218 0.372993266,1.65418061 0.83355539,1.65418061 L5.00033152,1.65418061 L5.00033152,0.827090305 C5.00033152,0.369750728 5.37332479,0 5.83388691,0 L7.50103771,0 C7.96159984,0 8.3345931,0.370851577 8.3345931,0.828151135 L8.3345931,1.65630227 L12.5013692,1.65630227 C12.9608505,1.65630227 13.3349246,2.02715385 13.3349246,2.48447341 L13.3349246,3.31262457 L0,3.31262457 L0,2.48233175 L0,2.48233175 Z" id="路径" fill="#A7B3C5"></path>
                <path d="M12.5013692,4.96466347 L12.5013692,6.61992492 L12.5013692,15.1718289 C12.5013692,15.6291484 12.1272751,16 11.6677738,16 L1.66711076,16 C1.20654864,16 0.833555371,15.6291684 0.833555371,15.1718289 L0.833555371,6.61992492 L0.833555371,4.96466347 L0.833555371,4.13867405 L12.5013692,4.13867405 L12.5013692,4.96466347 L12.5013692,4.96466347 Z" id="路径" fill="#0563B2"></path>
                <path d="M4.1667561,6.62098577 C4.1667561,6.16364619 3.79268198,5.79283463 3.33320071,5.79283463 C2.87371945,5.79283463 2.50070617,6.1636662 2.50070617,6.62098577 L2.50070617,13.5187491 C2.50070617,13.9749878 2.87369944,14.3458394 3.33426156,14.3458394 C3.79482369,14.3458394 4.16781695,13.9749879 4.16781695,13.5187491 L4.16781695,6.62098577 L4.1667561,6.62098577 L4.1667561,6.62098577 Z" id="路径" fill="#FFFFFF"></path>
                <path d="M7.50103769,6.62098577 C7.50103769,6.16364619 7.12694356,5.79283463 6.66744228,5.79283463 C6.20688016,5.79283463 5.83388689,6.1636662 5.83388689,6.62098577 L5.83388689,13.5187491 C5.83388689,13.9749878 6.20796102,14.3458394 6.66744228,14.3458394 C7.12692355,14.3458394 7.50103769,13.9749879 7.50103769,13.5187491 L7.50103769,6.62098577 L7.50103769,6.62098577 Z" id="路径" fill="#FFFFFF"></path>
                <path d="M10.8342184,6.62098577 C10.8342184,6.16364619 10.4612251,5.79283463 10.000663,5.79283463 C9.54010088,5.79283463 9.16710761,6.1636662 9.16710761,6.62098577 L9.16710761,13.5187491 C9.16710761,13.9749878 9.54118174,14.3458394 10.000663,14.3458394 C10.4601443,14.3458394 10.8342184,13.9749879 10.8342184,13.5187491 L10.8342184,6.62098577 L10.8342184,6.62098577 Z" id="路径" fill="#FFFFFF"></path>
            </g>
            <rect id="矩形" x="0" y="0" width="16" height="16"></rect>
        </g>
    </g>
</svg>