<?xml version="1.0" encoding="UTF-8"?>
<svg width="20px" height="20px" viewBox="0 0 20 20" version="1.1" xmlns="http://www.w3.org/2000/svg" xmlns:xlink="http://www.w3.org/1999/xlink">
    <title>doc</title>
    <g id="文件图标" stroke="none" stroke-width="1" fill="none" fill-rule="evenodd">
        <g id="编组-3">
            <g id="编组" transform="translate(4.444444, 0.000000)" fill-rule="nonzero">
                <path d="M0.729143889,19.5242862 L14.8264117,19.5242862 C14.960342,19.5235005 15.0684874,19.4169183 15.0684874,19.2857149 L15.0684874,5.23858516 L10.9371582,5.23858516 C10.5344632,5.23858516 10.2080143,4.91878886 10.2080143,4.52430012 L10.2080143,0.475732442 L0.729143889,0.475732442 C0.664554638,0.475732442 0.602610796,0.500867553 0.556939301,0.545608337 C0.511267806,0.590349121 0.485609836,0.651030645 0.485609836,0.714303666 L0.485609836,19.2857149 C0.485609836,19.4171434 0.594981412,19.5242862 0.729143889,19.5242862 Z" id="路径" fill="#FFFFFF"></path>
                <path d="M14.9678656,4.76144275 L10.6950824,0.575732349 L10.6950824,4.52430012 C10.6950824,4.65572857 10.8029957,4.76144275 10.9371582,4.76144275 L14.9678656,4.76144275 L14.9678656,4.76144275 Z" id="路径" fill="#FFFFFF"></path>
                <path d="M15.3411873,4.45430019 L11.0100726,0.210018412 C10.8733184,0.0747249558 10.6867371,-0.000961027697 10.4923805,9.2146362e-06 L0.729143889,9.2146362e-06 C0.326448839,9.2146362e-06 0,0.319814921 0,0.714303666 L0,19.2857149 C0,19.6802037 0.326448839,20.0000092 0.729143889,20.0000092 L14.8264117,20.0000092 C15.2291067,20.0000092 15.5555556,19.6802037 15.5555556,19.2857149 L15.5555556,4.95858542 C15.5555556,4.76924268 15.4782987,4.58775259 15.3411873,4.45430019 Z M10.6936242,0.574303796 L14.9678656,4.76144275 L10.9371582,4.76144275 C10.8032255,4.76144275 10.6944262,4.65550112 10.6936242,4.52430012 L10.6936242,0.574303796 Z M14.8264117,19.5242862 L0.729143889,19.5242862 C0.664554638,19.5242862 0.602610796,19.4991511 0.556939301,19.4544103 C0.511267806,19.4096695 0.485609836,19.348988 0.485609836,19.2857149 L0.485609836,0.714303666 C0.485609836,0.582875214 0.594981412,0.475732442 0.729143889,0.475732442 L10.2080143,0.475732442 L10.2080143,4.52430012 C10.2080143,4.91878886 10.5344632,5.23858516 10.9371582,5.23858516 L15.0684874,5.23858516 L15.0684874,19.2857149 C15.0684874,19.4169183 14.960342,19.5235005 14.8264117,19.5242862 L14.8264117,19.5242862 Z" id="形状" fill="#605E5C" opacity="0.64"></path>
            </g>
            <rect id="矩形" fill="#0563B2" x="0" y="6.66666667" width="20" height="8.88888889" rx="1"></rect>
            <g id="doc" transform="translate(2.673000, 7.448000)" fill="#FFFFFF" fill-rule="nonzero">
                <path d="M3.492,0 L3.492,2.538 C3.105,2.025 2.646,1.773 2.106,1.773 C1.44,1.773 0.909,2.016 0.531,2.502 C0.171,2.952 0,3.519 0,4.203 C0,4.914 0.18,5.499 0.54,5.949 C0.927,6.435 1.467,6.678 2.16,6.678 C2.772,6.678 3.24,6.471 3.564,6.057 L3.564,6.552 L4.518,6.552 L4.518,0 L3.492,0 Z M2.349,2.601 C2.673,2.601 2.952,2.736 3.168,3.006 C3.402,3.294 3.528,3.69 3.528,4.185 L3.528,4.257 C3.528,4.707 3.429,5.085 3.24,5.373 C3.024,5.688 2.709,5.85 2.313,5.85 C1.854,5.85 1.521,5.688 1.314,5.364 C1.134,5.094 1.053,4.707 1.053,4.203 C1.053,3.699 1.143,3.321 1.332,3.06 C1.548,2.754 1.881,2.601 2.349,2.601 Z" id="形状"></path>
                <path d="M7.698,1.773 C6.987,1.773 6.42,1.998 5.997,2.466 C5.565,2.925 5.358,3.51 5.358,4.23 C5.358,4.941 5.565,5.526 5.988,5.976 C6.42,6.444 6.987,6.678 7.698,6.678 C8.4,6.678 8.976,6.444 9.408,5.976 C9.822,5.526 10.038,4.941 10.038,4.23 C10.038,3.51 9.822,2.925 9.399,2.466 C8.967,1.998 8.4,1.773 7.698,1.773 Z M7.698,2.61 C8.121,2.61 8.454,2.772 8.688,3.114 C8.886,3.402 8.994,3.78 8.994,4.23 C8.994,4.671 8.886,5.04 8.688,5.337 C8.454,5.67 8.121,5.841 7.698,5.841 C7.266,5.841 6.942,5.67 6.708,5.337 C6.51,5.049 6.411,4.68 6.411,4.23 C6.411,3.78 6.51,3.402 6.708,3.114 C6.942,2.772 7.266,2.61 7.698,2.61 Z" id="形状"></path>
                <path d="M12.966,1.773 C12.237,1.773 11.67,2.016 11.265,2.502 C10.887,2.943 10.698,3.519 10.698,4.221 C10.698,4.941 10.887,5.526 11.274,5.976 C11.67,6.444 12.228,6.678 12.948,6.678 C13.551,6.678 14.037,6.525 14.397,6.228 C14.766,5.922 15.009,5.454 15.117,4.824 L14.1,4.824 C14.019,5.499 13.641,5.841 12.957,5.841 C12.561,5.841 12.264,5.697 12.066,5.418 C11.85,5.13 11.751,4.725 11.751,4.212 C11.751,3.708 11.859,3.312 12.075,3.033 C12.291,2.745 12.588,2.61 12.966,2.61 C13.272,2.61 13.524,2.682 13.713,2.826 C13.893,2.97 14.019,3.186 14.082,3.483 L15.099,3.483 C15.009,2.898 14.775,2.466 14.406,2.178 C14.046,1.908 13.569,1.773 12.966,1.773 Z" id="路径"></path>
            </g>
        </g>
    </g>
</svg>