<?xml version="1.0" standalone="no"?><!DOCTYPE svg PUBLIC "-//W3C//DTD SVG 1.1//EN" "http://www.w3.org/Graphics/SVG/1.1/DTD/svg11.dtd"><svg t="1691713137446" class="icon" viewBox="0 0 1024 1024" version="1.1" xmlns="http://www.w3.org/2000/svg" p-id="3450" xmlns:xlink="http://www.w3.org/1999/xlink" width="200" height="200"><path d="M192 128h640v320H192z" fill="#ECEDF0" p-id="3451"></path><path d="M32 704h320v256h-320zM672 704h320v256h-320z" fill="#0563B2" p-id="3452"></path><path d="M192 448V128h640v320H544v95.936l320 0.064V704h128v256h-320v-256h128V607.936h-576V704h128v256h-320v-256h128V544l320-0.064V448H192z m101.184 320H96v127.872h197.184V768z m640 0H736v127.872h197.184V768z m-163.456-576H257.408v192.32h512.32V192z" fill="#1D293B" p-id="3453"></path></svg>