<?xml version="1.0" standalone="no"?><!DOCTYPE svg PUBLIC "-//W3C//DTD SVG 1.1//EN" "http://www.w3.org/Graphics/SVG/1.1/DTD/svg11.dtd"><svg t="1678542669702" class="icon" viewBox="0 0 1024 1024" version="1.1" xmlns="http://www.w3.org/2000/svg" p-id="19882" xmlns:xlink="http://www.w3.org/1999/xlink" width="200" height="200"><path d="M100.544 256H962.56v726.208H100.48z" fill="#ECEDF0" p-id="19883"></path><path d="M100.544 102.72h832.832V256H100.48z" fill="#A7B3C5" p-id="19884"></path><path d="M724.8 825.28h-37.376a2.304 2.304 0 0 0-2.176 2.24v16.448a2.304 2.304 0 0 1-2.24 2.176h-58.24a2.304 2.304 0 0 0-2.24 2.24v37.376c0 1.152 1.088 2.176 2.24 2.176h58.24c1.152 0 2.24 1.088 2.24 2.24v16.448c0 1.152 1.024 2.24 2.176 2.24h37.376a2.304 2.304 0 0 0 2.176-2.24v-16.448c0-1.152 1.088-2.24 2.24-2.24h250.176a2.304 2.304 0 0 0 2.176-2.176v-37.376a2.304 2.304 0 0 0-2.176-2.24h-250.304a2.304 2.304 0 0 1-2.24-2.176v-16.448c0.128-1.216-0.896-2.24-2.048-2.24zM928.448 940.416h-37.312a2.304 2.304 0 0 0-2.24 2.24v16.448a2.304 2.304 0 0 1-2.24 2.24H624.64a2.304 2.304 0 0 0-2.24 2.176v37.376c0 1.152 1.088 2.24 2.24 2.24h261.888c1.216 0 2.24 1.024 2.24 2.176v16.448c0 1.216 1.024 2.24 2.24 2.24h37.312a2.304 2.304 0 0 0 2.24-2.24v-16.448c0-1.152 1.024-2.176 2.176-2.176h46.528a2.304 2.304 0 0 0 2.176-2.24v-37.376a2.304 2.304 0 0 0-2.176-2.176h-46.528a2.304 2.304 0 0 1-2.176-2.24v-16.448c0.128-1.28-0.896-2.24-2.112-2.24zM930.688 728.96v-16.512a2.304 2.304 0 0 0-2.24-2.176h-37.312a2.304 2.304 0 0 0-2.24 2.176v16.448a2.304 2.304 0 0 1-2.24 2.24H624.64a2.304 2.304 0 0 0-2.24 2.24v37.312c0 1.216 1.088 2.24 2.24 2.24h261.888c1.216 0 2.24 1.024 2.24 2.24v16.448c0 1.152 1.024 2.176 2.24 2.176h37.312a2.304 2.304 0 0 0 2.24-2.176v-16.448c0-1.216 1.024-2.24 2.176-2.24h46.528a2.304 2.304 0 0 0 2.176-2.24v-37.312a2.304 2.304 0 0 0-2.176-2.24h-46.528c-1.152 0-2.048-1.024-2.048-2.24z" fill="#A7B3C5" p-id="19885"></path><path d="M341.824 659.968v-217.6a2.304 2.304 0 0 0-2.24-2.24H313.6a2.176 2.176 0 0 0-1.28 0.384c-18.176 13.696-39.68 24.32-64.384 31.616a2.24 2.24 0 0 0-1.536 2.048v34.752c0 1.28 1.152 2.368 2.56 2.24 7.488-1.216 15.552-3.392 24.32-6.912a90.88 90.88 0 0 0 19.584-10.304 2.24 2.24 0 0 1 3.52 1.792v164.224c0 1.216 1.024 2.24 2.24 2.24h41.216a2.24 2.24 0 0 0 1.984-2.24zM472 609.6c5.12-5.76 14.912-13.824 29.632-24.32 15.296-10.688 26.368-19.968 33.28-27.648 6.912-7.68 12.16-15.936 15.808-24.64a75.52 75.52 0 0 0 5.504-29.44c0-19.392-6.272-34.688-18.944-45.824-12.672-11.072-29.888-16.448-51.584-16.448-23.232 0-44.224 5.888-62.912 17.792a2.24 2.24 0 0 0-1.024 1.792v34.496c0 1.856 2.048 2.88 3.52 1.664 15.936-12.864 32.64-19.392 49.984-19.392 21.312 0 32 9.792 32 29.376 0 8.96-2.752 17.6-8.32 25.664-5.632 8.128-15.424 17.408-29.568 27.84-15.232 10.88-26.624 20.352-33.92 28.48a100.608 100.608 0 0 0-17.28 26.112 75.328 75.328 0 0 0-6.208 30.912v13.952c0 1.216 1.024 2.24 2.176 2.24h140.16a2.304 2.304 0 0 0 2.176-2.24v-33.28a2.304 2.304 0 0 0-2.24-2.176H466.752a2.24 2.24 0 0 1-2.176-2.624 31.744 31.744 0 0 1 7.424-12.288zM706.496 623.04c-7.168 5.504-16.96 8.128-29.12 8.128a82.56 82.56 0 0 1-47.36-13.888c-1.472-1.024-3.456 0-3.456 1.856v34.304c0 0.832 0.448 1.6 1.216 1.984 13.44 6.912 31.04 10.432 52.864 10.432 25.216 0 45.312-5.76 60.352-17.344 15.104-11.648 22.528-27.712 22.528-48.448 0-13.44-4.48-24.96-13.568-34.304a57.216 57.216 0 0 0-36.288-16.64v-0.64c28.864-7.296 43.2-25.152 43.2-53.504 0-16.832-6.4-30.08-19.2-39.424-12.8-9.6-29.44-14.272-49.92-14.272-19.776 0-36.992 3.712-51.776 11.008a2.176 2.176 0 0 0-1.152 1.92v32c0 1.728 1.92 2.752 3.392 1.856a71.68 71.68 0 0 1 39.168-12.032c22.336 0 33.536 9.28 33.536 27.84 0 19.584-14.592 29.44-43.712 29.44h-15.68a2.304 2.304 0 0 0-2.24 2.24v30.592c0 1.152 1.088 2.176 2.24 2.176h17.088c15.424 0 27.456 2.752 36.032 8.128 8.64 5.504 12.8 13.312 12.8 23.488a27.904 27.904 0 0 1-10.944 23.104z" fill="#0563B2" p-id="19886"></path><path d="M899.84 288.576v348.032h62.72V61.376h-233.088V0h-62.72v61.376H347.008V0h-62.72v61.376H51.2v920.832h495.232v-55.68H114.112c-0.768 0-0.768-212.608 0-637.952H899.84zM113.92 124.096h171.072v53.44h62.464v-53.504h320.512v53.504h61.184v-53.504h171.52V225.92H113.92V124.16z" fill="#1D293B" p-id="19887"></path></svg>