<?xml version="1.0" standalone="no"?><!DOCTYPE svg PUBLIC "-//W3C//DTD SVG 1.1//EN" "http://www.w3.org/Graphics/SVG/1.1/DTD/svg11.dtd"><svg t="1727401739868" class="icon" viewBox="0 0 1024 1024" version="1.1" xmlns="http://www.w3.org/2000/svg" p-id="31010" xmlns:xlink="http://www.w3.org/1999/xlink" width="200" height="200"><path d="M512 323.6864A188.0064 188.0064 0 0 0 324.096 511.488 188.0064 188.0064 0 0 0 512 699.2896a188.0064 188.0064 0 0 0 187.8016-187.8016A188.0064 188.0064 0 0 0 512 323.6864zM672.2048 12.8v153.3952c20.5824 9.472 40.2432 20.7872 58.7264 33.8432l132.7104-76.6464L1024 400.8448l-132.7616 76.7488c2.4576 24.0128 2.304 48.2304-0.4608 72.192l131.8912 78.1824-163.328 275.6608-131.9936-78.2336c-17.408 12.032-35.84 22.528-55.04 31.488v153.344h-320.512v-153.344a374.272 374.272 0 0 1-58.7776-33.8944L160.256 899.7376 0 622.2336l132.7616-76.8a336.64 336.64 0 0 1 0.4608-72.192L1.28 395.0592l163.3792-275.6608L296.6528 197.632a376.4224 376.4224 0 0 1 55.0912-31.4368V12.8h320.4608z m-64.6656 64.6656H416.4608v131.9936l-20.48 8.0896a314.7264 314.7264 0 0 0-77.568 44.3392l-17.408 13.568-113.664-67.3792-97.3824 164.352 113.5616 67.2768-3.3792 21.6576c-2.9696 18.944-4.4032 34.9184-4.4032 50.176 0.1536 15.5648 1.4336 31.0784 3.8912 46.4384l3.2256 21.76-114.4832 66.1504 95.5392 165.376 114.3296-66.048 17.2544 13.824a314.368 314.368 0 0 0 80.4352 46.4384l20.48 8.1408v131.8912h191.1296V813.568l20.48-8.0896a312.8832 312.8832 0 0 0 77.568-44.3392l17.3568-13.5168 113.664 67.328 97.4336-164.352-113.664-67.328 3.4816-21.7088a315.904 315.904 0 0 0 4.4032-50.0736c0-14.08-1.28-28.8256-3.8912-46.4896l-3.2256-21.7088 114.4832-66.1504-95.5392-165.4272-114.3296 66.048-17.2544-13.7728a315.7504 315.7504 0 0 0-80.4864-46.4384l-20.48-8.1408V77.4656zM512 388.4032a123.2896 123.2896 0 0 1 123.0848 123.0848A123.2896 123.2896 0 0 1 512 634.624 123.2896 123.2896 0 0 1 388.864 511.488 123.2384 123.2384 0 0 1 512 388.4032z" p-id="31011"></path></svg>