<?xml version="1.0" encoding="UTF-8"?>
<svg width="16px" height="16px" viewBox="0 0 16 16" version="1.1" xmlns="http://www.w3.org/2000/svg" xmlns:xlink="http://www.w3.org/1999/xlink">
    <title>front-message</title>
    <g id="设计工具" stroke="none" stroke-width="1" fill="none" fill-rule="evenodd">
        <g id="编组-115">
            <g id="消息_2" transform="translate(0.000000, 1.000000)" fill="#CDCDCD" fill-rule="nonzero">
                <path d="M8,0 C3.58168675,0 0,2.91084337 0,6.50409639 C0,8.25638554 0.853975904,9.84481928 2.24,11.0149398 L2.04722892,13.2009639 L4.16771084,12.2139759 C5.30506024,12.7190361 6.61204819,13.0081928 8,13.0081928 C12.4183133,13.0081928 16,10.0973494 16,6.50409639 C16,2.91277108 12.4183133,0 8,0 L8,0 Z M4.28144578,7.79566265 C3.6260241,7.79566265 3.09590361,7.26554217 3.09590361,6.61012048 C3.09590361,5.9546988 3.6260241,5.42457831 4.28144578,5.42457831 C4.93686747,5.42457831 5.46698795,5.9546988 5.46698795,6.61012048 C5.46506024,7.26554217 4.93493976,7.79566265 4.28144578,7.79566265 Z M8,7.79566265 C7.34457831,7.79566265 6.81445783,7.26554217 6.81445783,6.61012048 C6.81445783,5.9546988 7.34457831,5.42457831 8,5.42457831 C8.65542169,5.42457831 9.18554217,5.9546988 9.18554217,6.61012048 C9.18554217,7.26554217 8.65542169,7.79566265 8,7.79566265 Z M11.6838554,7.79566265 C11.0284337,7.79566265 10.4983133,7.26554217 10.4983133,6.61012048 C10.4983133,5.9546988 11.0284337,5.42457831 11.6838554,5.42457831 C12.3392771,5.42457831 12.8693976,5.9546988 12.8693976,6.61012048 C12.8693976,7.26554217 12.3392771,7.79566265 11.6838554,7.79566265 Z" id="形状"></path>
            </g>
            <rect id="矩形" x="0" y="0" width="16" height="16"></rect>
        </g>
    </g>
</svg>