<?xml version="1.0" standalone="no"?><!DOCTYPE svg PUBLIC "-//W3C//DTD SVG 1.1//EN" "http://www.w3.org/Graphics/SVG/1.1/DTD/svg11.dtd"><svg t="1705371326614" class="icon" viewBox="0 0 1024 1024" version="1.1" xmlns="http://www.w3.org/2000/svg" p-id="3481" id="mx_n_1705371326615" xmlns:xlink="http://www.w3.org/1999/xlink" width="200" height="200"><path d="M920.832 64l36.224 36.224-164.48 164.48c76.032 50.112 148.8 122.112 218.304 216l13.12 18.112c-152.576 210.432-321.088 315.648-505.6 315.648-76.032 0-150.08-17.856-222.08-53.568l-171.968 172.032-36.16-36.288 161.536-161.536C163.52 682.496 80.32 603.776 0 498.816 161.088 285.312 333.888 178.56 518.4 178.56c79.232 0 155.52 19.712 228.864 59.008L920.832 64zM753.92 303.232l-70.08 70.144A204.16 204.16 0 0 1 398.72 658.56l-61.952 61.952a454.4 454.4 0 0 0 181.632 37.44c166.208 0 312.32-86.72 438.272-260.096l-0.192 0.192-11.648-15.808c-59.328-78.528-122.88-138.112-190.848-178.944h-0.064zM518.4 237.12c-166.208 0-314.88 87.232-446.08 261.696h1.92c66.56 88.576 138.048 154.432 214.208 197.632l72.96-72.96a204.16 204.16 0 0 1 287.424-287.488l57.728-57.792a445.376 445.376 0 0 0-188.16-41.088z m126.848 174.912l-208 207.872c23.552 16.896 51.52 27.136 81.088 27.136 80.576 0 153.088-75.776 153.088-156.288 0-28.48-9.856-55.616-26.24-78.72h0.064zM512 340.736c-80.512 0-142.72 69.504-142.72 150.016 0 33.6 11.904 66.368 31.68 93.12l208.64-208.64A163.2 163.2 0 0 0 512 340.736z" fill="#B2B2B6" p-id="3482"></path></svg>