<?xml version="1.0" standalone="no"?><!DOCTYPE svg PUBLIC "-//W3C//DTD SVG 1.1//EN" "http://www.w3.org/Graphics/SVG/1.1/DTD/svg11.dtd"><svg t="1687591935919" class="icon" viewBox="0 0 1024 1024" version="1.1" xmlns="http://www.w3.org/2000/svg" p-id="3340" xmlns:xlink="http://www.w3.org/1999/xlink" width="200" height="200"><path d="M942.016 518.464A191.424 191.424 0 0 1 1024 354.752a524.928 524.928 0 0 0-38.848-93.568 191.04 191.04 0 0 1-164.48-48.64A191.232 191.232 0 0 1 762.88 38.848 525.568 525.568 0 0 0 669.248 0a191.424 191.424 0 0 1-314.496 0A525.568 525.568 0 0 0 261.12 38.848a191.36 191.36 0 0 1-48.64 164.544 191.232 191.232 0 0 1-173.632 57.792A525.568 525.568 0 0 0 0 354.816 191.232 191.232 0 0 1 81.984 505.6 191.232 191.232 0 0 1 0 669.248c9.984 32.64 23.04 64 38.912 93.632 57.344-10.24 118.592 5.76 164.48 48.64a191.104 191.104 0 0 1 57.728 173.632c29.632 15.808 61.056 28.864 93.696 38.848a191.424 191.424 0 0 1 314.432 0c32.64-9.984 64-23.04 93.632-38.848-10.24-57.344 5.76-118.656 48.64-164.48a191.232 191.232 0 0 1 173.632-57.792c15.808-29.632 28.864-60.992 38.848-93.632A191.232 191.232 0 0 1 942.016 518.4zM512 802.176a290.112 290.112 0 1 1 0-580.288 290.112 290.112 0 0 1 0 580.288z" p-id="3341" fill="#0563B2"></path><path d="M314.112 512a197.888 197.888 0 1 0 395.776 0 197.888 197.888 0 0 0-395.776 0z" p-id="3342" fill="#0563B2"></path></svg>