<?xml version="1.0" standalone="no"?><!DOCTYPE svg PUBLIC "-//W3C//DTD SVG 1.1//EN" "http://www.w3.org/Graphics/SVG/1.1/DTD/svg11.dtd"><svg t="1687591958422" class="icon" viewBox="0 0 1024 1024" version="1.1" xmlns="http://www.w3.org/2000/svg" p-id="3976" width="200" height="200" xmlns:xlink="http://www.w3.org/1999/xlink"><path d="M904.807204 1023.936004H124.696449A92.602154 92.602154 0 0 1 32.030298 931.269854V424.293856a33.277899 33.277899 0 0 1 34.109847-34.173842H968.291197a33.277899 33.277899 0 0 1 34.109846 34.173842v507.039994c0 53.628615-43.901229 92.66615-97.529843 92.66615z m-551.005218-141.431072c14.719071 0 24.446457-9.727386 24.446457-24.318465v-195.059687c0-14.655075-9.791382-24.382461-24.382461-24.382461H197.779835c-14.591079 0-24.318465 9.727386-24.318465 24.318465v195.123683c0 14.591079 9.727386 24.318465 24.318465 24.318465H353.929978zM475.778286 0.00064v312.044302h-409.574145c-19.454772 0-34.109847-19.518768-24.318465-39.037536L129.43215 39.038176A63.356001 63.356001 0 0 1 188.116445 0.00064h287.661841z m507.10399 273.070762c4.863693 19.454772-4.863693 39.037536-24.318465 39.037536H553.66137V0.00064h282.862144a63.356001 63.356001 0 0 1 58.492308 39.037536l87.738462 234.033226z" p-id="3977" fill="#cdcdcd"></path></svg>