<?xml version="1.0" standalone="no"?><!DOCTYPE svg PUBLIC "-//W3C//DTD SVG 1.1//EN" "http://www.w3.org/Graphics/SVG/1.1/DTD/svg11.dtd"><svg t="1687592709892" class="icon" viewBox="0 0 1024 1024" version="1.1" xmlns="http://www.w3.org/2000/svg" p-id="4844" xmlns:xlink="http://www.w3.org/1999/xlink" width="200" height="200"><path d="M512 128a267.136 267.136 0 0 1 267.136 267.136 244.864 244.864 0 0 1 0 489.728H244.864a244.864 244.864 0 0 1 0-489.728l0.32-13.312A267.136 267.136 0 0 1 512 128z m21.248 248.96a33.408 33.408 0 0 0-44.864 2.176L362.432 505.088l-2.112 2.368c28.928 31.04 18.112 19.84 46.208 48.512l72.064-72.576v250.688h66.816V483.328l72.96 72.64c20.16-21.888 35.712-38.08 46.592-48.512L535.68 379.136z" p-id="4845" fill="#cdcdcd"></path></svg>