<?xml version="1.0" standalone="no"?><!DOCTYPE svg PUBLIC "-//W3C//DTD SVG 1.1//EN" "http://www.w3.org/Graphics/SVG/1.1/DTD/svg11.dtd"><svg t="1687591947737" class="icon" viewBox="0 0 1024 1024" version="1.1" xmlns="http://www.w3.org/2000/svg" p-id="3551" xmlns:xlink="http://www.w3.org/1999/xlink" width="200" height="200"><path d="M1024.00064 915.520068l-216.959864-216.959865c51.071968-73.343954 83.007948-159.4239 83.007948-255.16784C886.848726 197.760516 689.088849 0.00064 443.393003 0.00064A442.495723 442.495723 0 0 0 0.00128 443.392363a442.495723 442.495723 0 0 0 443.391723 443.455723c95.74394 0 185.023884-31.93598 258.431838-82.943948l216.959865 216.959864L1024.00064 915.456068zM146.753188 443.392363c0-162.687898 133.951916-296.639815 296.639815-296.639815s296.703815 133.951916 296.703814 296.639815-134.015916 296.703815-296.703814 296.703814c-162.687898 0-296.639815-134.015916-296.639815-296.703814z" p-id="3552" fill="#0563B2"></path><path d="M288.0011 416.00038m-95.99994 0a95.99994 95.99994 0 1 0 191.99988 0 95.99994 95.99994 0 1 0-191.99988 0Z" p-id="3553" fill="#0563B2"></path></svg>