<?xml version="1.0" standalone="no"?><!DOCTYPE svg PUBLIC "-//W3C//DTD SVG 1.1//EN" "http://www.w3.org/Graphics/SVG/1.1/DTD/svg11.dtd"><svg t="1677818189770" class="icon" viewBox="0 0 4608 1024" version="1.1" xmlns="http://www.w3.org/2000/svg" p-id="54941" data-spm-anchor-id="a313x.7781069.0.i10" width="900" height="200" xmlns:xlink="http://www.w3.org/1999/xlink"><path d="M426.0864 0l425.813333 273.681067 0.443734 178.653866h0.034133v12.3904l-73.591467 47.2064 74.069334 47.581867 0.4096 178.653867H853.333333v12.3904L427.246933 1024 0.9216 750.557867v-191.044267l74.274133-47.752533L0 463.291733V273.7152L426.0864 0zM135.7824 660.923733L10.4448 742.741333v1.501867l412.2624 264.704 0.682667-160.290133-287.607467-187.733334z m582.690133 0.273067l-286.0032 186.5728-0.682666 161.1776 412.501333-265.0112-0.034133-0.580267-0.443734-0.273066-125.3376-81.885867z m-85.367466-55.773867l-206.779734 132.744534-205.7216-132.642134-75.537066 49.322667 282.180266 184.2176 281.941334-183.944533-76.0832-49.698134z m210.705066-26.0096l-115.9168 75.639467 115.9168 75.639467v-151.278934zM10.478933 579.140267l-0.034133 151.2448 115.9168-75.605334-115.882667-75.639466z m343.825067-60.893867L230.024533 599.381333l192 123.869867 0.4096-160.5632-68.130133-44.4416z m144.861867-0.341333l-67.652267 44.202666-0.4096 160.836267 192.546133-123.6992-124.484266-81.339733z m270.097066 0.1024l-126.702933 81.339733 76.049067 49.629867 125.201066-81.681067v-1.4336l-74.5472-47.854933z m-684.578133-0.136534L9.966933 565.8624v0.785067l0.512 0.341333 125.166934 81.7152 75.537066-49.288533-126.498133-81.544534z m135.611733-87.074133L94.208 511.761067l126.3616 81.544533 124.416-81.169067-124.689067-81.339733z m412.706134-0.238933l-124.484267 81.271466 124.586667 81.339734 126.5664-81.3056-126.6688-81.3056z m-205.994667 40.209066l-63.3856 41.403734 62.941867 41.0624 63.317333-41.403734-62.8736-41.0624z m-4.778667-169.6768l-192.580266 123.665067 124.6208 81.3056 68.642133-44.782933-0.682667-160.187734z m9.079467 0l0.682667 160.768 67.208533 43.895467 124.416-81.2032-192.3072-123.460267z m286.242133 74.274134l-75.093333 49.015466 126.702933 81.373867 74.171734-47.650133v-0.580267l-0.477867-0.273067-125.303467-81.885866z m-582.690133-0.3072L9.489067 456.9088v0.2048l75.229866 48.5376 126.088534-81.032533-75.946667-49.5616z m707.9936-81.476267l-115.882667 75.639467 115.882667 75.639466V293.5808zM9.5232 293.307733l-0.034133 151.2448 115.950933-75.639466L9.5232 293.307733z m416.5632-108.373333l-281.941333 184.046933 76.049066 49.595734 206.574934-132.744534 206.336 132.539734 75.1616-49.083734-282.180267-184.32z m4.539733-169.8816l0.443734 161.006933 286.6176 187.0848 125.166933-81.681066v-1.4336L430.626133 15.0528zM421.546667 15.018667L9.0112 280.029867v0.785066l0.512 0.341334 125.201067 81.681066 287.266133-187.392-0.443733-160.426666z" fill="#0563B2" p-id="54942"></path><path d="M843.332267 458.6496l-412.842667 264.8064v-161.450667l412.3648-268.6976 0.477867 165.341867z m-420.283734 2.901333L10.478933 730.692267l-1.4336-165.341867 413.218134-265.728 0.785066 161.928533z" fill="#0563B2" p-id="54943"></path><path d="M2002.0224 491.008c0-17.578667 24.6784-38.775467 42.564267-40.96 11.093333-1.3312 28.945067 0 39.1168 9.0112 10.1376 8.977067 11.639467 16.042667 11.639466 25.361067v387.754666l175.547734-1.536V498.824533c0-41.403733 8.533333-96.802133-57.480534-136.874666-83.7632-50.824533-183.125333-9.352533-211.387733 26.453333l5.051733-48.981333-180.087466 0.341333v530.773333l175.035733-0.3072v-379.221333z m1037.755733-319.829333v217.224533c28.2624-35.84 127.658667-77.277867 211.387734-26.453333 65.979733 40.072533 57.480533 95.470933 57.480533 136.874666v371.8144l-175.547733 1.536v-387.754666c0-9.3184-1.501867-16.384-11.6736-25.361067-10.1376-8.977067-27.989333-10.3424-39.082667-8.977067-17.92 2.1504-42.564267 23.3472-42.564267 40.925867v379.221333l-175.035733 0.341334-0.034133-0.477867-240.401067 2.389333h-4.334933c-191.317333 0-293.205333-109.943467-293.205334-349.730133 0-235.690667 98.440533-345.941333 283.5456-349.5936l9.659734-0.1024h18.8416v0.136533l11.844266 0.136534c43.861333 0.955733 87.278933 4.266667 130.2528 9.966933v173.329067a1408.4096 1408.4096 0 0 0-81.5104-5.802667c-26.043733-1.262933-49.3568-2.2528-69.905066-2.935467h-2.048l-1.570134-0.136533-7.7824-0.238933-7.168-0.238934-2.491733 0.1024c-65.467733 3.106133-100.2496 57.821867-100.2496 171.758934 0 106.973867 30.685867 161.1776 88.610133 169.915733l5.700267 0.7168v0.580267l262.212267-0.034134V171.144533h175.069866z m1299.012267 319.829333c0-17.578667 24.644267-38.775467 42.564267-40.96 11.0592-1.3312 28.945067 0 39.082666 9.0112 10.1376 8.977067 11.639467 16.042667 11.639467 25.361067v387.754666l175.581867-1.536V498.824533c0-41.403733 8.4992-96.802133-57.514667-136.874666-83.729067-50.824533-183.125333-9.352533-211.3536 26.453333l5.0176-48.981333-180.087467 0.341333v530.773333l175.069867-0.3072v-379.221333zM3387.392 357.2736c76.5952-10.581333 160.324267-12.6976 251.153067-6.382933l-21.0944-1.297067c28.4672 1.194667 54.3744 3.1744 68.9152 6.212267 29.7984 6.2464 52.462933 18.090667 67.959466 35.498666 15.530667 17.442133 24.951467 41.437867 28.330667 71.918934 3.208533 28.740267 4.881067 72.362667 5.051733 130.8672v129.8432l104.277334 0.034133v145.749333h-294.468267c-55.671467 0.580267-93.866667 0.9216-114.5856 0.9216-26.862933 0-50.176-2.730667-69.905067-7.9872-19.694933-5.290667-80.2816-28.5696-80.2816-125.5424 0-104.789333 45.568-149.879467 85.572267-166.570666 36.693333-15.291733 99.566933-16.554667 109.806933-16.657067h64.375467v-23.4496l-0.034133-1.024c0-14.916267-8.157867-24.849067-24.439467-29.7984a659.421867 659.421867 0 0 0-50.4832-1.911467c-40.311467 0-80.554667 3.515733-120.661333 10.478934z m211.626667 305.2544c-70.656-5.051733-93.525333 16.7936-96.768 45.806933-3.2768 29.013333 5.9392 59.665067 45.021866 63.761067 26.624 0 43.895467-7.202133 51.780267-21.6064zM4103.611733 316.416V170.666667h-211.5584v145.7152h211.5584z m0 553.301333V342.698667h-211.5584v527.018666h211.5584v-0.068266zM1487.872 172.987733c191.317333 0 287.368533 109.9776 287.368533 349.730134 0 239.786667-96.0512 349.730133-287.402666 349.730133C1296.5888 872.448 1194.666667 762.538667 1194.666667 522.752 1194.666667 282.999467 1296.554667 173.056 1487.872 173.056z m1.774933 182.1696c-69.358933 0-106.2912 53.828267-106.2912 171.2128s36.932267 171.2128 106.2912 171.2128c69.3248 0 104.1408-53.828267 104.1408-171.2128s-34.816-171.2128-104.1408-171.2128z" fill="#0563B2" p-id="54944"></path></svg>