<?xml version="1.0" encoding="UTF-8"?>
<svg width="20px" height="20px" viewBox="0 0 20 20" version="1.1" xmlns="http://www.w3.org/2000/svg" xmlns:xlink="http://www.w3.org/1999/xlink">
    <title>pcb</title>
    <g id="文件图标" stroke="none" stroke-width="1" fill="none" fill-rule="evenodd">
        <g id="编组-3">
            <g id="编组" transform="translate(4.444444, 0.000000)" fill-rule="nonzero">
                <path d="M0.729143889,19.5242862 L14.8264117,19.5242862 C14.960342,19.5235005 15.0684874,19.4169183 15.0684874,19.2857149 L15.0684874,5.23858516 L10.9371582,5.23858516 C10.5344632,5.23858516 10.2080143,4.91878886 10.2080143,4.52430012 L10.2080143,0.475732442 L0.729143889,0.475732442 C0.664554638,0.475732442 0.602610796,0.500867553 0.556939301,0.545608337 C0.511267806,0.590349121 0.485609836,0.651030645 0.485609836,0.714303666 L0.485609836,19.2857149 C0.485609836,19.4171434 0.594981412,19.5242862 0.729143889,19.5242862 Z" id="路径" fill="#FFFFFF"></path>
                <path d="M14.9678656,4.76144275 L10.6950824,0.575732349 L10.6950824,4.52430012 C10.6950824,4.65572857 10.8029957,4.76144275 10.9371582,4.76144275 L14.9678656,4.76144275 L14.9678656,4.76144275 Z" id="路径" fill="#FFFFFF"></path>
                <path d="M15.3411873,4.45430019 L11.0100726,0.210018412 C10.8733184,0.0747249558 10.6867371,-0.000961027697 10.4923805,9.2146362e-06 L0.729143889,9.2146362e-06 C0.326448839,9.2146362e-06 0,0.319814921 0,0.714303666 L0,19.2857149 C0,19.6802037 0.326448839,20.0000092 0.729143889,20.0000092 L14.8264117,20.0000092 C15.2291067,20.0000092 15.5555556,19.6802037 15.5555556,19.2857149 L15.5555556,4.95858542 C15.5555556,4.76924268 15.4782987,4.58775259 15.3411873,4.45430019 Z M10.6936242,0.574303796 L14.9678656,4.76144275 L10.9371582,4.76144275 C10.8032255,4.76144275 10.6944262,4.65550112 10.6936242,4.52430012 L10.6936242,0.574303796 Z M14.8264117,19.5242862 L0.729143889,19.5242862 C0.664554638,19.5242862 0.602610796,19.4991511 0.556939301,19.4544103 C0.511267806,19.4096695 0.485609836,19.348988 0.485609836,19.2857149 L0.485609836,0.714303666 C0.485609836,0.582875214 0.594981412,0.475732442 0.729143889,0.475732442 L10.2080143,0.475732442 L10.2080143,4.52430012 C10.2080143,4.91878886 10.5344632,5.23858516 10.9371582,5.23858516 L15.0684874,5.23858516 L15.0684874,19.2857149 C15.0684874,19.4169183 14.960342,19.5235005 14.8264117,19.5242862 L14.8264117,19.5242862 Z" id="形状" fill="#605E5C" opacity="0.64"></path>
            </g>
            <rect id="矩形" fill="#0563B2" x="0" y="6.66666667" width="20" height="8.88888889" rx="1"></rect>
            <g id="pcb" transform="translate(2.835000, 7.448000)" fill="#FFFFFF" fill-rule="nonzero">
                <path d="M2.358,1.773 C1.746,1.773 1.278,1.98 0.954,2.394 L0.954,1.899 L0,1.899 L0,8.334 L1.026,8.334 L1.026,5.913 C1.404,6.417 1.872,6.678 2.412,6.678 C3.078,6.678 3.609,6.435 3.987,5.949 C4.338,5.499 4.518,4.932 4.518,4.248 C4.518,3.528 4.338,2.952 3.978,2.502 C3.582,2.016 3.042,1.773 2.358,1.773 Z M2.205,2.601 C2.655,2.601 2.988,2.763 3.204,3.087 C3.375,3.357 3.465,3.744 3.465,4.248 C3.465,4.752 3.366,5.139 3.177,5.409 C2.961,5.697 2.619,5.85 2.169,5.85 C1.836,5.85 1.566,5.715 1.35,5.445 C1.107,5.148 0.99,4.752 0.99,4.266 L0.99,4.194 C0.99,3.726 1.08,3.357 1.278,3.078 C1.494,2.754 1.8,2.601 2.205,2.601 Z" id="形状"></path>
                <path d="M7.446,1.773 C6.717,1.773 6.15,2.016 5.745,2.502 C5.367,2.943 5.178,3.519 5.178,4.221 C5.178,4.941 5.367,5.526 5.754,5.976 C6.15,6.444 6.708,6.678 7.428,6.678 C8.031,6.678 8.517,6.525 8.877,6.228 C9.246,5.922 9.489,5.454 9.597,4.824 L8.58,4.824 C8.499,5.499 8.121,5.841 7.437,5.841 C7.041,5.841 6.744,5.697 6.546,5.418 C6.33,5.13 6.231,4.725 6.231,4.212 C6.231,3.708 6.339,3.312 6.555,3.033 C6.771,2.745 7.068,2.61 7.446,2.61 C7.752,2.61 8.004,2.682 8.193,2.826 C8.373,2.97 8.499,3.186 8.562,3.483 L9.579,3.483 C9.489,2.898 9.255,2.466 8.886,2.178 C8.526,1.908 8.049,1.773 7.446,1.773 Z" id="路径"></path>
                <path d="M10.347,0 L10.347,6.552 L11.301,6.552 L11.301,6.057 C11.625,6.471 12.093,6.678 12.705,6.678 C13.389,6.678 13.929,6.435 14.325,5.949 C14.685,5.499 14.865,4.914 14.865,4.203 C14.865,3.519 14.685,2.952 14.334,2.502 C13.947,2.016 13.425,1.773 12.759,1.773 C12.219,1.773 11.751,2.025 11.373,2.538 L11.373,0 L10.347,0 Z M12.516,2.601 C12.975,2.601 13.317,2.754 13.533,3.06 C13.713,3.321 13.812,3.699 13.812,4.203 C13.812,4.707 13.722,5.094 13.551,5.364 C13.335,5.688 13.002,5.85 12.552,5.85 C12.147,5.85 11.841,5.688 11.625,5.373 C11.427,5.085 11.337,4.707 11.337,4.257 L11.337,4.185 C11.337,3.69 11.454,3.294 11.697,3.006 C11.913,2.736 12.183,2.601 12.516,2.601 Z" id="形状"></path>
            </g>
        </g>
    </g>
</svg>