<?xml version="1.0" standalone="no"?><!DOCTYPE svg PUBLIC "-//W3C//DTD SVG 1.1//EN" "http://www.w3.org/Graphics/SVG/1.1/DTD/svg11.dtd"><svg t="1678542681709" class="icon" viewBox="0 0 1024 1024" version="1.1" xmlns="http://www.w3.org/2000/svg" p-id="20295" xmlns:xlink="http://www.w3.org/1999/xlink" width="200" height="200"><path d="M512 939.968c229.76 0 448-230.208 448-459.968C960 250.24 822.784 32.064 512 32.064S84.032 250.304 84.032 480c0 229.76 198.208 459.968 427.968 459.968z" fill="#ECEDF0" p-id="20296"></path><path d="M308.48 145.984c-119.552 73.472-192.576 206.784-192 350.528 0.256 225.664 177.216 408.512 395.52 408.832 218.304-0.32 395.264-183.168 395.52-408.832 0.256-139.2-68.288-268.864-181.632-343.936 0 0 10.112-13.056 19.84-28.736 9.856-15.68 15.552-27.968 15.552-27.968 132.096 87.424 211.84 238.528 211.52 400.64 0 262.592-206.72 476.288-460.8 476.288S51.2 759.04 51.2 496.512c0.512-167.168 85.248-321.92 223.68-408.448" fill="#07355B" p-id="20297"></path><path d="M456.704 51.2h73.728v442.368H456.704z" fill="#0563B2" p-id="20298"></path></svg>