<?xml version="1.0" encoding="UTF-8"?>
<svg width="16px" height="16px" viewBox="0 0 16 16" version="1.1" xmlns="http://www.w3.org/2000/svg" xmlns:xlink="http://www.w3.org/1999/xlink">
    <title>read</title>
    <g id="设计工具" stroke="none" stroke-width="1" fill="none" fill-rule="evenodd">
        <g id="编组-132">
            <rect id="矩形备份-114" x="0" y="0" width="16" height="16"></rect>
            <g id="yidu" fill="#2C3652" fill-rule="nonzero">
                <path d="M8,0 L0,5 L0,14.0005333 C0.000294496334,15.1048945 0.895638746,16 2,16 L14,16 C15.1043613,16 15.9997055,15.1048945 16,14.0005333 L16,5 L8,0 Z M1,14.0005333 L1,6.68746667 L5.5328,9.80373333 L1.04746667,14.2896 C1.01750272,14.196106 1.00150801,14.0987 1,14.0005333 L1,14.0005333 Z M14,15 L2,15 C1.92513155,14.9994884 1.85054769,14.9907243 1.7776,14.9738667 L6.37066667,10.3797333 L8,11.5002667 L9.62933333,10.3797333 L14.2218667,14.9738667 C14.1504,14.9898667 14.0768,15 14,15 Z M15,14.0005333 C15,14.1018667 14.9802667,14.1973333 14.9525333,14.2896 L10.4672,9.80373333 L15,6.68746667 L15,14.0005333 L15,14.0005333 Z M8,10.328 L1,5.50026667 L7.9904,1.16533333 L15,5.50026667 L8,10.328 Z" id="形状"></path>
            </g>
        </g>
    </g>
</svg>