<?xml version="1.0" encoding="UTF-8"?>
<svg width="16px" height="16px" viewBox="0 0 16 16" version="1.1" xmlns="http://www.w3.org/2000/svg" xmlns:xlink="http://www.w3.org/1999/xlink">
    <title>readblue</title>
    <g id="设计工具" stroke="none" stroke-width="1" fill="none" fill-rule="evenodd">
        <g id="编组-122备份">
            <path d="M7.27237497,10.4499168 C7.46537096,10.5999141 7.68038095,10.6649102 7.87938679,10.6599296 C8.07839263,10.6659063 8.29338601,10.5999141 8.48639861,10.4499168 L11.8194435,7.85986911 L15.3974978,5.07883426 L8.71039017,0.348764037 C8.24738241,-0.115256428 7.49638314,-0.116252536 7.03337538,0.345775712 L0.345271611,5.06781066 L3.93933009,7.85985251 L7.27237497,10.4499002 L7.27237497,10.4499168 Z" id="路径" fill="#A7B3C5" fill-rule="nonzero"></path>
            <path d="M4.26532314,3.67481957 C4.26532314,3.42479637 4.46733391,3.22280221 4.7173405,3.22280221 L11.0424292,3.22280221 C11.2924358,3.22280221 11.4944299,3.42481298 11.4944299,3.67481957 L11.4944299,7.27686351 L8.43637737,9.65190121 C8.25940212,9.79090813 8.06238849,9.84989434 7.8803829,9.84390109 C7.6973812,9.84989434 7.50136368,9.78989542 7.32438843,9.65190121 L4.26532314,7.27686351 L4.26532314,3.67481957 L4.26532314,3.67481957 Z" id="路径" fill="#FFFFFF" fill-rule="nonzero"></path>
            <path d="M6.03334902,7.13486827 L9.72741677,7.13486827 L9.72741677,8.11986999 L6.03334902,8.11986999 L6.03334902,7.13486827 Z M6.03334902,5.01182937 L9.72741677,5.01182937 L9.72741677,5.9968477 L6.03334902,5.9968477 L6.03334902,5.01182937 Z" id="形状" fill="#A7B3C5" fill-rule="nonzero"></path>
            <path d="M15.7585041,6.03184431 L11.8204396,9.24588745 L9.07440135,11.4849398 C9.02640553,11.5219452 8.97239986,11.5349444 8.92239522,11.5679488 C8.58338635,11.788952 8.20639255,11.9179481 7.87938679,11.9179481 C7.55138492,11.9179481 7.17437452,11.788952 6.83636175,11.5679488 C6.78637372,11.5349444 6.73236805,11.5219452 6.68536833,11.4849398 L3.94032619,9.24588745 L0.0252718093,6.05085337 C0.0202746659,6.11284451 -0.00273543662,6.17184733 0.000269490179,6.23284236 L0.000269490179,15.0149817 C0.000269490179,15.5589896 0.441279853,16 0.985287817,16 L14.7744653,16 C15.3184732,16 15.7594836,15.5589896 15.7594836,15.0149817 L15.7594836,6.34684696 C15.7734789,6.24185715 15.7704906,6.13683412 15.7584875,6.03184431 L15.7585041,6.03184431 Z" id="路径" fill="#0563B2" fill-rule="nonzero"></path>
            <rect id="矩形备份-113" x="0" y="0" width="16" height="16"></rect>
        </g>
    </g>
</svg>