<?xml version="1.0" standalone="no"?><!DOCTYPE svg PUBLIC "-//W3C//DTD SVG 1.1//EN" "http://www.w3.org/Graphics/SVG/1.1/DTD/svg11.dtd"><svg t="1678542675128" class="icon" viewBox="0 0 1024 1024" version="1.1" xmlns="http://www.w3.org/2000/svg" p-id="20021" xmlns:xlink="http://www.w3.org/1999/xlink" width="200" height="200"><path d="M44.8 128H832v387.712c104.448 72.32 156.672 145.792 156.672 220.288 0 74.496-52.224 149.12-156.672 224H44.8V128z" fill="#ECEDF0" p-id="20022"></path><path d="M623.808 986.048H0V75.84h834.368V512l-64.192-17.024V140.864H64.192v780.16h469.888z" fill="#1D293B" p-id="20023"></path><path d="M731.456 512c123.52 0 227.52 102.4 227.52 224S855.04 960 731.52 960c-123.52 0-227.584-102.4-227.584-224S607.872 512 731.456 512m0-64c-162.56 0-292.608 128-292.608 288S568.96 1024 731.52 1024 1024 896 1024 736 893.952 448 731.456 448zM178.816 0H243.84v192H178.816V0z m390.08 0h65.024v192H568.896V0z" fill="#1D293B" p-id="20024"></path><path d="M113.792 320h585.152v64H113.792zM113.792 512h325.12v64h-325.12zM113.792 704H373.76v64H113.792z" fill="#A7B3C5" p-id="20025"></path><path d="M872.32 834.368h-189.632V606.784h63.168v170.688h126.464z" fill="#0563B2" p-id="20026"></path></svg>