<?xml version="1.0" standalone="no"?><!DOCTYPE svg PUBLIC "-//W3C//DTD SVG 1.1//EN" "http://www.w3.org/Graphics/SVG/1.1/DTD/svg11.dtd"><svg t="1678542677998" class="icon" viewBox="0 0 1024 1024" version="1.1" xmlns="http://www.w3.org/2000/svg" p-id="20160" xmlns:xlink="http://www.w3.org/1999/xlink" width="200" height="200"><path d="M907.328 690.304l-102.08-208.256h75.52c0-201.408-160.896-365.312-358.848-365.312-87.04 0-161.536 26.624-223.488 79.808l-21.632-28.032-20.48-25.6C330.24 81.792 418.88 51.2 521.92 51.2c222.848 0 426.24 187.52 426.112 430.976H1024l-116.672 208.128z m-405.248 237.568c-222.848 0-426.24-187.52-426.112-430.976H0L116.672 288.64l102.08 208.32h-75.52c0 201.344 160.896 365.312 358.848 365.312 87.04 0 161.536-26.624 223.488-79.808l21.632 28.032 20.48 25.6c-73.984 61.12-162.56 91.712-265.6 91.712z" fill="#07355B" p-id="20161"></path></svg>