<?xml version="1.0" encoding="UTF-8"?>
<svg width="12px" height="12px" viewBox="0 0 12 12" version="1.1" xmlns="http://www.w3.org/2000/svg" xmlns:xlink="http://www.w3.org/1999/xlink">
    <title>重置</title>
    <g id="设计工具" stroke="none" stroke-width="1" fill="none" fill-rule="evenodd">
        <g id="icon/16/cancel">
            <rect id="矩形" opacity="0" x="0" y="0" width="12" height="12"></rect>
            <path d="M8.78108973,1.12954634 C11.4714857,2.6828472 12.3932835,6.12304323 10.8399826,8.81343924 C9.28668177,11.5038352 5.84648574,12.425633 3.15608973,10.8723321 C1.93114878,10.1651121 1.03964277,9.04435804 0.615738069,7.72961964 L0.549439932,7.50873806 L1.27200425,7.30773856 C1.61205218,8.53016197 2.40995426,9.57552521 3.53108973,10.2228131 C5.86276627,11.5690072 8.8442695,10.7701158 10.1904636,8.43843924 C11.5366577,6.1067627 10.7377663,3.12525947 8.40608973,1.77906539 C6.16773057,0.486748128 3.33051806,1.17125275 1.9160578,3.29089166 L4.07703156,3.02666823 L4.16843356,3.77107785 L0.818590303,4.18238688 L0.407281269,0.832543618 L1.15169088,0.74114161 L1.39497212,2.72569906 C3.05853988,0.39681228 6.25129259,-0.331032721 8.78108973,1.12954634 Z" id="形状结合" fill="#0563B2" fill-rule="nonzero"></path>
        </g>
    </g>
</svg>