<?xml version="1.0" standalone="no"?><!DOCTYPE svg PUBLIC "-//W3C//DTD SVG 1.1//EN" "http://www.w3.org/Graphics/SVG/1.1/DTD/svg11.dtd"><svg t="1705371342498" class="icon" viewBox="0 0 1024 1024" version="1.1" xmlns="http://www.w3.org/2000/svg" p-id="3910" xmlns:xlink="http://www.w3.org/1999/xlink" width="200" height="200"><path d="M74.24 512.256c129.92 172.8 277.952 259.072 444.16 259.072 166.208 0 312.32-86.656 438.272-260.096l-0.192 0.128-11.648-15.68c-123.456-163.392-265.6-245.12-426.432-245.12-166.208 0-314.88 87.232-446.08 261.696h1.92z m444.16-209.92a204.16 204.16 0 1 1 0 408.32 204.16 204.16 0 0 1 0-408.32z m-6.4 51.84c-80.512 0-142.72 69.504-142.72 150.016 0 80.576 68.608 156.416 149.12 156.416s153.088-75.776 153.088-156.416c0-80.512-78.976-150.016-159.488-150.016zM518.4 192c179.2 0 343.424 100.736 492.48 302.208l13.12 18.048c-152.576 210.432-321.088 315.712-505.6 315.712S161.088 722.752 0 512.256C161.088 298.752 333.888 192 518.4 192z" p-id="3911" fill="#B2B2B6"></path></svg>