<?xml version="1.0" standalone="no"?><!DOCTYPE svg PUBLIC "-//W3C//DTD SVG 1.1//EN" "http://www.w3.org/Graphics/SVG/1.1/DTD/svg11.dtd"><svg t="1687593393562" class="icon" viewBox="0 0 1024 1024" version="1.1" xmlns="http://www.w3.org/2000/svg" p-id="5062" xmlns:xlink="http://www.w3.org/1999/xlink" width="200" height="200"><path d="M511.417379 10.593103L934.311724 279.552l0.441379 175.58069h0.035311v12.182069l-73.092414 46.380138 73.569103 46.768551 0.406069 175.563035H935.724138v12.182069L512.582621 1016.937931 89.193931 748.226207V560.445793l73.76331-46.927448L88.275862 465.902345V279.58731L511.417379 10.593103z m-288.308965 649.533794l-124.468966 80.401655v1.483034l409.423449 260.131311 0.688551-157.519449-285.625379-184.496551z m578.683586 0.264827L517.755586 843.74069l-0.670896 158.402207L926.737655 741.693793l-0.03531-0.564965-0.441379-0.264828-124.468966-80.472276zM717.011862 605.572414l-205.34731 130.471724-204.305655-130.365793-75.016828 48.481103 280.240552 181.036138 279.993379-180.788965-75.564138-48.834207z m209.249104-25.547035l-115.111725 74.328276 115.111725 74.328276v-148.656552zM98.692414 579.742897l-0.017655 148.656551 115.111724-74.328276-115.094069-74.328275z m341.451034-59.851035l-123.409655 79.748414 190.675862 121.732414 0.406069-157.801931-67.654621-43.661242z m143.889655-0.317793l-67.195586 43.431724-0.406069 158.066759 191.205518-121.573518-123.621518-79.924965z m268.21738 0.088276l-125.828414 79.942621 75.528828 48.781241 124.327724-80.278069v-1.412414l-74.028138-47.033379z m-679.847724-0.123586L98.162759 566.695724v0.776828l0.494344 0.335448 124.310069 80.313379 75.016828-48.445793-125.616552-80.154483z m134.673655-85.574621l-125.228138 79.571862 125.492965 80.136828 123.550897-79.766069-123.815724-79.942621z m409.847172-0.229517l-123.621517 79.872 123.727448 79.924965 125.704828-79.90731-125.810759-79.889655zM512.353103 473.246897l-62.940689 40.695172 62.49931 40.342069 62.887724-40.677517-62.446345-40.359724z m-4.749241-166.753104l-191.240828 121.538207 123.762759 79.889655 68.148966-43.996689-0.670897-157.431173z m9.021793 0l0.688552 157.996138 66.736552 43.131586 123.550896-79.801379-190.976-121.326345z m284.265931 72.986483l-74.575448 48.180965 125.828414 79.977931 73.657379-46.839172v-0.564966l-0.459034-0.282482-124.451311-80.472276z m-578.665931-0.300138l-124.504276 80.436965v0.211863l74.699035 47.704275 125.228138-79.642482-75.422897-48.710621z m703.117242-80.066207l-115.094069 74.328276 115.094069 74.328276v-148.656552z m-827.586207-0.264828l-0.035311 148.638897 115.147035-74.328276-115.111724-74.328276z m413.678344-106.513655L231.424 373.230345l75.528828 48.728276 205.153103-130.436414 204.905931 130.242207 74.646069-48.233931-280.240552-181.142069v-0.035311z m4.519725-166.94731l0.441379 158.225655L801.015172 367.474759l124.292414-80.278069v-1.412414L515.954759 25.388138z m-9.021793-0.03531L97.227034 285.801931v0.759172l0.512 0.353104 124.327725 80.260414 285.289931-184.161104-0.44138-157.660689z" fill="#ffffff" p-id="5063"></path><path d="M925.784276 460.8L516.413793 721.072552l0.194207-158.084414 408.717241-263.874207 0.459035 161.686069z m-417.509517 3.124966L98.657103 728.399448l-0.476689-161.703724L507.586207 306.493793l0.670896 157.431173z" fill="#ffffff" p-id="5064"></path></svg>