<?xml version="1.0" encoding="UTF-8"?>
<svg width="12px" height="12px" viewBox="0 0 12 12" version="1.1" xmlns="http://www.w3.org/2000/svg" xmlns:xlink="http://www.w3.org/1999/xlink">
    <title>粘贴</title>
    <g id="设计工具" stroke="none" stroke-width="1" fill="none" fill-rule="evenodd">
        <g id="编组-115备份">
            <g id="icon/16/paste" fill="#0563B2" fill-rule="nonzero">
                <g id="形状结合">
                    <path d="M3.33333333,1.33333333 L3.33333333,2 L0.666666667,2 L0.666666667,11.3333333 L7.66666667,11.3333333 L7.66666667,12 L0,12 L0,1.33333333 L3.33333333,1.33333333 Z M9.33333333,0 L12,2.66666667 L12,10.6666667 L4,10.6666667 L4,0 L9.33333333,0 Z M9.05666667,0.666666667 L4.66666667,0.666666667 L4.66666667,10 L11.3333333,10 L11.3333333,2.94333333 L9.05666667,0.666666667 Z M10,6.66666667 L10,7.33333333 L6,7.33333333 L6,6.66666667 L10,6.66666667 Z M10,4 L10,4.66666667 L6,4.66666667 L6,4 L10,4 Z"></path>
                </g>
            </g>
            <rect id="矩形" x="0" y="0" width="12" height="12"></rect>
        </g>
    </g>
</svg>