<?xml version="1.0" standalone="no"?><!DOCTYPE svg PUBLIC "-//W3C//DTD SVG 1.1//EN" "http://www.w3.org/Graphics/SVG/1.1/DTD/svg11.dtd"><svg t="1690540107789" class="icon" viewBox="0 0 4726 1024" version="1.1" xmlns="http://www.w3.org/2000/svg" p-id="3330" xmlns:xlink="http://www.w3.org/1999/xlink" width="923.046875" height="200"><path d="M264.507077 759.099077H0V128.078769h264.507077c38.045538 0.551385 69.710769 5.12 94.995692 13.705846A203.224615 203.224615 0 0 1 463.950769 221.814154c21.346462 31.428923 35.918769 65.378462 43.716923 101.927384 7.798154 36.470154 11.657846 71.286154 11.657846 104.448 0 83.889231-16.384 154.939077-49.152 213.149539-44.425846 78.532923-113.033846 117.76-205.74523 117.76z m82.786461-430.08c-17.171692-30.956308-39.305846-55.768615-138.318769-55.768615h-63.803077v337.92h63.803077c96.098462 0 124.455385-20.007385 144.147693-60.652308 15.438769-29.538462 15.438769-85.858462 15.438769-117.444923 0-44.740923-6.459077-79.872-21.267693-103.975385z m2533.533539-64.275692h-318.700308v100.352h318.700308v129.102769h-318.700308v264.900923h-143.36V128.078769h462.060308V264.664615z m-923.726769 33.870769v438.114461c0 55.138462-4.726154 122.564923-37.809231 163.997539-40.881231 50.963692-95.783385 59.234462-167.227077 59.234461a185.107692 185.107692 0 0 1-128.551385-51.751384c-28.750769-27.884308-42.377846-69.553231-42.377846-123.510154h122.249846c0 25.363692 9.609846 74.279385 74.043077 74.279385 48.521846 0 68.371692-44.583385 68.371693-74.279385l0.078769-59.234462c-27.175385 22.685538-63.015385 33.634462-107.52 33.634462-114.057846 0-174.867692-72.152615-174.867692-229.454769 0-157.302154 60.809846-229.454769 174.867692-229.45477 45.528615 0 81.92 11.421538 109.410461 35.209847V298.535385h109.331693z m-194.875077 125.006769c-38.833231 0-61.44 46.237538-61.44 105.235692 0 59.076923 22.055385 104.290462 61.44 104.290462s60.494769-45.292308 60.494769-104.290462c0-58.998154-21.582769-105.235692-60.494769-105.235692z m425.196307-22.921846c9.924923-1.260308 25.993846 0 35.052308 8.034461 9.058462 8.113231 10.397538 14.493538 10.397539 22.843077v330.515693h139.657846V443.470769c0-37.179077-1.260308-78.848-51.593846-112.482461-60.967385-40.802462-146.353231-18.038154-171.638154 14.178461l4.489846-44.110769-150.528 0.078769v459.145846h146.038154V437.484308c0-15.753846 22.055385-34.816 38.124307-36.785231z m2353.624616 0c9.924923-1.260308 25.993846 0 35.052308 8.034461 9.058462 8.113231 10.397538 14.493538 10.397538 22.843077v330.515693H4726.153846V443.470769c0-37.179077-1.260308-78.848-51.593846-112.482461-60.967385-40.802462-146.353231-18.038154-171.716923 14.178461l4.568615-44.110769-150.528 0.078769v459.145846h146.038154V437.484308c0-15.753846 22.055385-34.816 38.124308-36.785231zM3084.603077 298.535385v332.957538c0 12.445538 4.568615 19.456 11.500308 24.969846s24.024615 6.459077 34.028307 5.986462c27.569231-1.575385 42.535385-13.784615 44.740923-36.864V300.110769h150.291693v346.348308l212.992 0.078769c9.137231-0.078769 32.846769-1.811692 39.384615-16.777846l1.654154-6.301538c2.599385-26.624-62.779077-48.600615-105.235692-67.426462-46.473846-20.637538-120.359385-51.278769-106.102154-141.784615 7.561846-47.419077 37.651692-76.563692 64.512-93.499077a137.846154 137.846154 0 0 1 73.885538-20.55877h182.429539v117.129847s-118.626462-10.555077-144.147693 0c-6.380308 2.599385-16.777846 5.12-14.808615 22.055384 2.363077 21.031385 94.838154 33.004308 129.969231 54.350769 24.418462 14.966154 74.200615 49.624615 69.395692 132.096-2.520615 42.771692-30.168615 76.957538-56.32 100.036924a135.876923 135.876923 0 0 1-90.033231 33.240615l-269.154461 1.575385v-1.575385h-138.712616v-41.196308c-25.363692 32.216615-120.989538 69.474462-195.977846 23.788308-59.155692-35.997538-51.593846-85.858462-51.593846-123.037539V300.032l157.380923-1.417846zM1517.410462 128.078769l-142.651077-0.078769v131.072h142.651077V128.157538z m0 172.110769l-142.651077-0.078769v458.909539h142.651077V300.268308z m2400.886153-172.110769l-142.572307-0.078769v131.072h142.572307V128.157538z m0 172.110769l-142.572307-0.078769v458.909539h142.572307V300.268308z m-3170.461538 0c94.995692-1.969231 171.244308 77.981538 171.244308 172.347077v92.711385h-232.369231c0 35.446154 1.890462 38.439385 1.890461 38.439385 15.438769 39.227077 66.402462 49.309538 116.578462 48.836923 57.501538-0.472615 113.900308-14.887385 113.900308-14.887385v113.112615c-282.545231 68.056615-334.296615-69.789538-346.19077-121.304615-5.041231-21.661538-6.852923-57.974154-7.08923-92.790154l-0.07877-25.521231c0.315077-37.179077 1.811692-67.268923 1.811693-67.268923s13.312-137.216 174.395077-143.517538l5.907692-0.157539z m-2.520615 101.060924c-55.217231-0.078769-61.676308 55.689846-62.227693 75.382153v6.774154l123.588923 0.551385s6.301538-82.707692-61.36123-82.707692z m542.483692-101.060924h-182.350769a137.846154 137.846154 0 0 0-73.885539 20.55877c-26.860308 16.935385-56.950154 46.08-64.512 93.577846-14.257231 90.427077 59.628308 121.068308 106.102154 141.784615 42.456615 18.747077 107.835077 40.723692 105.235692 67.426462-2.520615 25.363692-44.819692 22.921846-44.819692 22.921846l-165.257846-1.575385v114.215385h213.622154c33.083077 0 65.299692-11.421538 90.03323-33.240615 26.151385-23.079385 53.799385-57.265231 56.32-100.036924 4.726154-82.471385-44.898462-117.051077-69.474461-132.01723-35.052308-21.425231-127.606154-33.398154-129.969231-54.35077-1.969231-17.014154 8.507077-19.534769 14.966154-22.134153 25.442462-10.555077 143.990154 0 143.990154 0V300.110769z m2851.603692 0c114.057846 0 171.401846 72.152615 171.401846 229.45477 0 157.302154-57.344 229.454769-171.401846 229.454769-114.136615 0-174.867692-72.152615-174.867692-229.454769 0-157.302154 60.731077-229.454769 174.867692-229.45477z m-5.435077 123.431385c-38.833231 0-61.44 46.237538-61.44 105.235692 0 59.076923 22.055385 104.290462 61.44 104.290462s60.494769-45.292308 60.494769-104.290462c0-58.998154-21.582769-105.235692-60.494769-105.235692z" fill="#FFFFFF" p-id="3331"></path></svg>