<?xml version="1.0" standalone="no"?><!DOCTYPE svg PUBLIC "-//W3C//DTD SVG 1.1//EN" "http://www.w3.org/Graphics/SVG/1.1/DTD/svg11.dtd"><svg t="1687831726174" class="icon" viewBox="0 0 1024 1024" version="1.1" xmlns="http://www.w3.org/2000/svg" p-id="4137" xmlns:xlink="http://www.w3.org/1999/xlink" width="200" height="200"><path d="M512 256.128l241.088-126.976v285.504L512 551.744zM256 681.6l256-129.92v293.184l-256 146.688zM763.008 681.6l242.368-155.264v288.128l-242.368 177.088z" fill="#0563B2" p-id="4138"></path><path d="M513.664 21.12l239.424 108.032L512 256.128 274.304 122.496zM274.304 407.04L512 551.68l-256 129.92L18.56 520.32zM753.088 414.72l252.288 111.616-242.368 155.2L512 551.744z" fill="#9ACDF7" p-id="4139"></path><path d="M274.304 122.496L512 256.128V551.68L274.304 407.04zM18.56 520.32L256 681.6v309.952L18.56 817.408zM512 551.68l251.008 129.92v309.952L512 844.864z" fill="#57A8ED" p-id="4140"></path></svg>