<?xml version="1.0" encoding="UTF-8"?>
<svg width="12px" height="12px" viewBox="0 0 12 12" version="1.1" xmlns="http://www.w3.org/2000/svg" xmlns:xlink="http://www.w3.org/1999/xlink">
    <title>thumbtack</title>
    <g id="设计工具" stroke="none" stroke-width="1" fill="none" fill-rule="evenodd">
        <g id="编组-7">
            <g id="图钉" transform="translate(2.000000, 0.000000)" fill="#FFFFFF" fill-rule="nonzero">
                <path d="M8.22857143,7.84789067 C8.22857143,7.97266786 8.18384453,8.08199643 8.09321372,8.17231135 C8.00258291,8.26381462 7.89547377,8.30897207 7.7718863,8.30897207 L4.70809408,8.30897207 L4.34321679,11.7932264 C4.3338006,11.8502674 4.30908311,11.9013666 4.26788728,11.9405823 C4.22786848,11.9809863 4.1784335,12 4.12193637,12 L4.11487423,12 C3.98540164,12 3.91007213,11.9358289 3.88653166,11.8062983 L3.34392382,8.30778372 L0.456685126,8.30778372 C0.333097656,8.30778372 0.224811492,8.26262626 0.135357705,8.17112299 C0.0447268938,8.07961973 0,7.9714795 0,7.84670232 C0,7.25609031 0.185969716,6.72370766 0.560263196,6.24955437 C0.563794266,6.24480095 0.567325337,6.24004753 0.572033431,6.23529412 C1.38300264,5.22519311 1.82791753,3.96553773 1.82791753,2.66428996 L1.82791753,2.63695781 C1.82791753,2.25787285 1.63723972,1.90730838 1.32768253,1.69221628 C1.27824754,1.65775401 1.2311666,1.61734997 1.18526268,1.57219251 C1.00517809,1.39156269 0.913370252,1.17409388 0.913370252,0.924539513 C0.913370252,0.673796791 1.00400106,0.459893048 1.18526268,0.274509804 C1.36534728,0.0926916221 1.58074259,0 1.82791753,0 L6.39947688,0 C6.64782884,0 6.85969307,0.091503268 7.04330874,0.274509804 C7.22339334,0.45751634 7.31520118,0.673796791 7.31520118,0.924539513 C7.31520118,1.17528223 7.22457037,1.38918598 7.04330874,1.57456922 C6.99740483,1.62091503 6.94914686,1.66131907 6.89971187,1.6969697 C6.59015469,1.91087344 6.4006539,2.26143791 6.4006539,2.64052288 L6.4006539,2.66547831 C6.4006539,3.96316102 6.83968367,5.22162805 7.65065288,6.22816399 C7.656538,6.23529412 7.66242312,6.24242424 7.66830823,6.25074272 C8.04142469,6.72370766 8.22857143,7.25609031 8.22857143,7.84789067 Z" id="路径"></path>
            </g>
            <rect id="矩形" x="0" y="0" width="12" height="12"></rect>
        </g>
    </g>
</svg>