<?xml version="1.0" standalone="no"?><!DOCTYPE svg PUBLIC "-//W3C//DTD SVG 1.1//EN" "http://www.w3.org/Graphics/SVG/1.1/DTD/svg11.dtd"><svg t="1687831718358" class="icon" viewBox="0 0 1024 1024" version="1.1" xmlns="http://www.w3.org/2000/svg" p-id="3858" xmlns:xlink="http://www.w3.org/1999/xlink" width="200" height="200"><path d="M44.8 128h704v832H44.8z" fill="#0563B2" p-id="3859"></path><path d="M731.456 448c-162.56 0-292.608 128-292.608 288S568.96 1024 731.52 1024 1024 896 1024 736 893.952 448 731.456 448z" fill="#A7B3C5" p-id="3860"></path><path d="M731.456 512c123.52 0 227.52 102.4 227.52 224S855.04 960 731.52 960c-123.52 0-227.584-102.4-227.584-224S607.872 512 731.456 512" fill="#FFFFFF" p-id="3861"></path><path d="M178.816 0H243.84v192H178.816zM568.896 0h65.024v192H568.896z" fill="#A7B3C5" p-id="3862"></path><path d="M113.792 320h512v64h-512zM113.792 512h256v64h-256zM113.792 704h192v64h-192z" fill="#FFFFFF" p-id="3863"></path><path d="M872.32 834.368h-189.632V606.784h63.168v170.688h126.464z" fill="#0563B2" p-id="3864"></path></svg>