<?xml version="1.0" standalone="no"?><!DOCTYPE svg PUBLIC "-//W3C//DTD SVG 1.1//EN" "http://www.w3.org/Graphics/SVG/1.1/DTD/svg11.dtd"><svg t="1687831712117" class="icon" viewBox="0 0 1024 1024" version="1.1" xmlns="http://www.w3.org/2000/svg" p-id="3587" xmlns:xlink="http://www.w3.org/1999/xlink" width="200" height="200"><path d="M738.368 322.56C697.408 275.008 619.008 201.088 512 179.712c-171.968-34.368-263.104 0-480 147.712C32 327.424 154.24 32 512 32c186.176 0 290.688 73.088 369.152 147.84L992 68.992v406.144H585.856l152.512-152.576z" fill="#A7B3C5" p-id="3588"></path><path d="M285.632 701.44c40.96 47.552 119.296 121.472 226.368 142.848 171.968 34.432 263.104 0 480-147.648 0 0-122.24 295.424-480 295.424-186.176 0-290.688-73.088-369.152-147.776L32 955.136V548.992h406.144L285.632 701.44z" fill="#0563B2" p-id="3589"></path></svg>