<?xml version="1.0" standalone="no"?><!DOCTYPE svg PUBLIC "-//W3C//DTD SVG 1.1//EN" "http://www.w3.org/Graphics/SVG/1.1/DTD/svg11.dtd"><svg t="1687831709206" class="icon" viewBox="0 0 1024 1024" version="1.1" xmlns="http://www.w3.org/2000/svg" p-id="3451" xmlns:xlink="http://www.w3.org/1999/xlink" width="200" height="200"><path d="M512 128a267.136 267.136 0 0 1 267.136 267.136 244.864 244.864 0 0 1 0 489.728H244.864a244.864 244.864 0 0 1 0-489.728l0.32-13.312A267.136 267.136 0 0 1 512 128z" fill="#0563B2" p-id="3452"></path><path d="M535.616 379.136L664.96 507.52c-10.88 10.432-26.432 26.624-46.656 48.512l-72.96-72.64v250.752H478.656V483.392L406.528 555.968c-28.096-28.672-17.28-17.472-46.208-48.512l2.112-2.368 125.952-125.952a33.408 33.408 0 0 1 44.8-2.176l2.432 2.176z" fill="#FFFFFF" p-id="3453"></path></svg>