<?xml version="1.0" encoding="UTF-8"?>
<svg width="16px" height="16px" viewBox="0 0 16 16" version="1.1" xmlns="http://www.w3.org/2000/svg" xmlns:xlink="http://www.w3.org/1999/xlink">
    <title>unread</title>
    <g id="设计工具" stroke="none" stroke-width="1" fill="none" fill-rule="evenodd">
        <g id="编组-131">
            <rect id="矩形备份-29" x="0" y="0" width="16" height="16"></rect>
            <g id="weidu" transform="translate(0.000000, 2.000000)" fill="#2C3652" fill-rule="nonzero">
                <path d="M0,0.347826098 L0,11.6521739 C0,11.7444231 0.0366458592,11.8328941 0.101875906,11.8981241 C0.167105953,11.9633541 0.255576882,12 0.347826098,12 L15.6521739,12 C15.7444231,12 15.832894,11.9633541 15.8981241,11.8981241 C15.9633541,11.8328941 16,11.7444231 16,11.6521739 L16,0.347826098 C16,0.25557688 15.9633541,0.167105948 15.8981241,0.101875901 C15.8328941,0.0366458529 15.7444231,0 15.6521739,0 L0.347826098,0 C0.25557688,0 0.167105948,0.0366458529 0.101875901,0.101875901 C0.0366458529,0.167105948 0,0.25557688 0,0.347826098 L0,0.347826098 Z M8.0347826,6.68591305 L1.52,1.00000001 L14.9349565,1.00000001 L8.03513044,6.68591305 L8.0347826,6.68591305 Z M5.97704347,6.216 L1.00000001,10.474087 L1.00000001,1.87478261 L5.97704347,6.21565218 L5.97704347,6.216 Z M6.73808696,6.88000001 L8.01704347,7.99582609 L9.37217391,6.88000001 L13.9088696,11 L1.92417391,11 L6.73808696,6.88000001 L6.73808696,6.88000001 Z M10.1509565,6.23791304 L15,2.24347826 L15,10.64 L10.1513044,6.23791304 L10.1509565,6.23791304 Z" id="形状"></path>
            </g>
        </g>
    </g>
</svg>