<?xml version="1.0" standalone="no"?><!DOCTYPE svg PUBLIC "-//W3C//DTD SVG 1.1//EN" "http://www.w3.org/Graphics/SVG/1.1/DTD/svg11.dtd"><svg t="1678542665330" class="icon" viewBox="0 0 1024 1024" version="1.1" xmlns="http://www.w3.org/2000/svg" p-id="19744" xmlns:xlink="http://www.w3.org/1999/xlink" width="200" height="200"><path d="M410.38912 793.6h332.8c175.104-67.2 262.656-161.024 262.656-281.6 0-120.576-87.552-205.056-262.656-253.568C701.90912 105.856 625.10912 29.568 512.78912 29.568c-112.32 0-189.44 76.288-231.424 228.864C106.51712 292.48 19.09312 376.96 19.09312 512c0 135.04 87.424 220.416 262.272 256l129.024 25.6z" fill="#ECEDF0" p-id="19745"></path><path d="M743.18912 742.4a230.4 230.4 0 1 0 0-460.8h-24.96l-0.832-35.264a204.8 204.8 0 0 0-409.152-0.64L307.34912 281.6H282.38912a230.4 230.4 0 1 0 0 460.8h128v51.2h-128a281.6 281.6 0 0 1-33.6-561.216l9.152-0.896 1.152-9.92A256.064 256.064 0 0 1 501.46112 0.256L512.78912 0c129.28 0 236.8 96.064 253.696 222.08l1.024 9.344 9.28 0.96a281.664 281.664 0 0 1 247.808 268.288L1024.78912 512a281.6 281.6 0 0 1-281.6 281.6h-128v-51.2z" fill="#07355B" p-id="19746"></path><path d="M538.38912 998.4h-51.2v-512h51.2z" fill="#0563B2" p-id="19747"></path><path d="M512.78912 435.2L313.55712 634.304l36.224 36.224L512.78912 507.584l162.88 162.944 36.224-36.224z" fill="#0563B2" p-id="19748"></path></svg>