<?xml version="1.0" encoding="UTF-8"?>
<svg width="16px" height="16px" viewBox="0 0 16 16" version="1.1" xmlns="http://www.w3.org/2000/svg" xmlns:xlink="http://www.w3.org/1999/xlink">
    <title>用户备份</title>
    <g id="控件" stroke="none" stroke-width="1" fill="none" fill-rule="evenodd">
        <g id="用户备份">
            <g id="yonghu" transform="translate(1.000000, 0.000000)" fill="#DFE9F5" fill-rule="nonzero">
                <path d="M7.05882353,9.3437253 C4.55049218,9.3437253 2.50980392,7.31829827 2.50980392,4.8287254 C2.50980392,2.33915252 4.55049218,0.31372549 7.05882353,0.31372549 C9.56715488,0.31372549 11.6078431,2.33915252 11.6078431,4.8287254 C11.6078431,7.31815884 9.56715488,9.3437253 7.05882353,9.3437253 Z M7.05882353,1.20604552 C5.04623038,1.20604552 3.40884742,2.83118336 3.40884742,4.82858597 C3.40884742,6.82612801 5.04623038,8.450987 7.05882353,8.450987 C9.07141668,8.450987 10.7087996,6.82626743 10.7087996,4.8287254 C10.7087996,2.83118336 9.07169763,1.20604552 7.05882353,1.20604552 Z M3.57460856,8.82631911 C3.57108187,8.82830821 3.56761529,8.8304005 3.56421337,8.83259324 C3.81728725,9.05053629 4.09039688,9.24444245 4.37995487,9.41176471 L4.39259767,9.40535116 C4.10225141,9.23821445 3.82838293,9.04435047 3.57460856,8.82631911 L3.57460856,8.82631911 Z M9.72518987,9.40535116 C9.72926366,9.40744253 9.73375888,9.40953391 9.73783267,9.41176471 C10.0272752,9.2442653 10.3003687,9.0503706 10.5535742,8.83259324 C10.5502194,8.83040128 10.5467997,8.82830898 10.5433194,8.82631911 C10.2894453,9.04428783 10.0155363,9.23814717 9.72518987,9.40535116 L9.72518987,9.40535116 Z" id="形状"></path>
                <path d="M11.2759634,9.26628562 C11.0436402,9.09071265 10.8008444,8.92975117 10.5489526,8.78431373 C10.2961798,9.00593533 10.0233705,9.20308602 9.73411681,9.37316997 C10.018641,9.51250892 10.2920943,9.67383457 10.5520391,9.85570889 C12.1623499,10.9798375 13.2197564,12.8708684 13.2197564,14.9935293 C13.2197564,15.0408759 13.2170908,15.0074214 13.216249,15.1491779 L0.901538339,15.1491779 C0.900556271,15.0074214 0.898030954,15.0408759 0.898030954,14.9935293 C0.898030954,12.8707266 1.95557779,10.9866418 3.56560798,9.86265496 C3.82473361,9.6819155 4.09774849,9.51634398 4.38353025,9.37643037 C4.09429797,9.20573346 3.82153953,9.00801603 3.56883478,8.78587305 C3.31688159,8.93094942 3.07407832,9.09167915 2.84182393,9.26713616 C1.11843505,10.5687438 0,12.6439163 0,14.9803459 C0,15.0276926 0.00266561289,15.0883643 0.00350738538,15.135711 C0.00900823693,15.4248594 0.0311185827,15.7134413 0.0697268214,16 L14.0477799,16 C14.0862209,15.7164871 14.1085279,15.4237601 14.11428,15.1354275 C14.1151217,15.0880808 14.1176471,15.0343551 14.1176471,14.986725 C14.1176471,12.6504371 12.999212,10.5678932 11.2759634,9.26628562 L11.2759634,9.26628562 Z" id="路径"></path>
                <path d="M7.05882353,9.09803922 C9.56715488,9.09803922 11.6078431,7.05721048 11.6078431,4.54901961 C11.6078431,2.04068826 9.56715488,0 7.05882353,0 C4.55049218,0 2.50980392,2.04068826 2.50980392,4.54901961 C2.50980392,7.05735096 4.55049218,9.09803922 7.05882353,9.09803922 L7.05882353,9.09803922 Z M7.05882353,0.899043495 C9.07169763,0.899043495 10.7087996,2.53642646 10.7087996,4.54901961 C10.7087996,6.56161276 9.07141668,8.19857429 7.05882353,8.19857429 C5.04623038,8.19857429 3.40884742,6.56147228 3.40884742,4.54887913 C3.40884742,2.53642646 5.04623038,0.899043495 7.05882353,0.899043495 Z" id="形状"></path>
            </g>
            <rect id="矩形备份-2" x="0" y="0" width="16" height="16"></rect>
        </g>
    </g>
</svg>