<?xml version="1.0" standalone="no"?>
<!DOCTYPE svg PUBLIC "-//W3C//DTD SVG 1.1//EN" "http://www.w3.org/Graphics/SVG/1.1/DTD/svg11.dtd" >
<svg xmlns="http://www.w3.org/2000/svg">
  <metadata>Created by iconfont</metadata>
  <defs>
  <font id="iconfont" horiz-adv-x="1024">
    <font-face
      font-family="iconfont"
      font-weight="400"
      font-stretch="normal"
      units-per-em="1024"
      ascent="896"
      descent="-128"
    />
      <missing-glyph />
      
      <glyph glyph-name="front-recommend" unicode="&#59390;" d="M849.152 526.464h-179.264l3.2 9.408a572.48 572.48 0 0 1 32.192 147.2c2.048 25.28 2.88 52.48-1.728 79.36l-4.544 19.648C686.464 836.416 640.128 864 584.32 864c-65.664 0-110.528-37.76-120.448-108.8-0.512-3.712-0.32-39.04 0-42.112C460.288 582.4 308.224 485.76 254.592 485.76l-185.344-0.128H32.448v-36.864l-0.448-518.4c0-6.4 0.128-18.304 0.448-35.84 18.944 0 32.448 0 40.576-0.32l690.752-1.6c19.968 1.408 39.68 7.808 56.384 18.56 17.664 11.264 32.832 27.584 39.68 42.496l7.936 13.184c42.112 100.672 94.08 414.656 94.592 417.728l0.768 11.776a120 120 0 0 1-17.728 73.152c-21.12 34.048-57.984 55.872-96.256 56.96zM207.36-45.184l-114.56-0.384 0.448 470.144 114.112 0.192v-469.952z m686.08 438.976c-8.768-52.416-54.784-317.76-88.64-399.424l-0.576-1.088-4.736-7.488a58.624 58.624 0 0 0-46.592-32.192l-484.8 1.28V427.456l5.76 1.088C370.048 447.36 523.52 582.272 527.552 732.16l-0.448 7.04c0 32.64 26.24 58.88 58.432 58.88 27.392 0 50.752-18.56 56.96-45.248l4.096-17.792c3.84-22.144 3.84-118.208-30.08-181.184l-40.704-86.464h250.816l8.832-0.896c20.032-0.704 38.656-11.52 49.472-28.8 6.976-11.2 9.6-24.192 8.704-41.984l-0.256-1.92z"  horiz-adv-x="1024" />
      
      <glyph glyph-name="front-file-blue" unicode="&#59120;" d="M640 896l256-256v-768H128V896h512z m-26.56-64H192v-896h640V613.44L613.44 832zM481.856 832v-384h-64V832zM481.856 256v-320h-64v320zM576 448v-256H320V448h256zM512 384H384v-128h128V384zM320 352v-64H192v64zM832 352v-64H576v64z"  horiz-adv-x="1024" />
      
      <glyph glyph-name="front-document-blue" unicode="&#59297;" d="M640 896l256-256v-768H128V896h512z m-26.56-64H192v-896h640V613.44L613.44 832zM640 896v-224h224v-64H576V896zM704 224v-64H320v64h384z m0 192v-64H320v64h384z"  horiz-adv-x="1024" />
      
      <glyph glyph-name="front-top-readingmode" unicode="&#59119;" d="M232.576 795.136c43.648-2.56 87.232-6.208 130.688-10.944 64.832-7.552 113.792-18.56 146.944-33.216a1120.256 1120.256 0 0 0 169.536 33.28l17.728 1.792 32.512 2.752 54.464 3.648 49.216 2.688 76.672 3.52H1024v-775.68c-147.136 9.6-261.888 9.6-344.32 0-82.368-9.6-138.048-26.88-166.976-51.968-24.96 26.048-74.816 43.328-149.44 52.032a903.04 903.04 0 0 1-56.64 4.48l-33.472 1.28-36.928 0.64h-40.32l-43.84-0.64-47.232-1.28-50.688-1.92-54.144-2.56V795.136c41.792 3.2 73.536 4.864 95.232 4.864 32.64 0 71.808-1.024 137.344-4.864z m637.824-46.08c-71.488-2.24-59.52-0.896-142.72-7.872-71.36-5.952-110.208-12.8-146.752-21.312l-18.24-4.288-28.16-9.664-0.192-666.368c34.304 13.248 81.728 28.16 124.48 33.92l19.712 2.56c63.744 7.488 138.88 8.192 236.672 4.864l60.864-4.8V749.056c-22.784 1.536-58.048 1.536-105.664 0zM50.496 741.184v-665.792a4512.128 4512.128 0 0 0 75.904 4.736c17.088 0.768 81.92 4.096 174.656 0 82.368-3.584 146.88-17.728 185.28-33.216L486.208 708.544c-15.744 6.976-53.568 14.08-113.28 21.376a5108.864 5108.864 0 0 1-153.664 11.264 1445.184 1445.184 0 0 1-168.768 0zM416 284.48v-45.504h-256v45.44h256z m454.4 0v-45.504h-256v45.44h256z m-454.4 147.2v-45.504h-256v45.44h256z m454.4 0v-45.504h-256v45.44h256z m-454.4 147.2v-45.504h-256v45.44h256z m454.4 0v-45.504h-256v45.44h256z"  horiz-adv-x="1024" />
      
      <glyph glyph-name="front-top-MPNchange" unicode="&#59118;" d="M652.8 896l256-256v-768h-768V896h512z m-26.56-64H204.8v-896h640V613.44L626.24 832zM540.8 508.8l-0.064-136 192.064-64-0.064-248H768v-57.6H256v57.6h35.136l0.064 448h249.6z m-57.6-57.6h-134.4v-390.4h134.4v390.4z m57.6-139.136v-251.264h134.4V267.264l-134.4 44.8zM640 220.79999999999995v-57.6H576v57.6h64z m-192 32v-57.6H384v57.6h64z m0 128v-57.6H384v57.6h64z m79.68 327.488l53.632-20.928c-12.16-31.168-30.464-54.464-55.04-68.672-21.504-12.352-46.592-17.152-74.752-14.784l-12.16 1.472c-20.992 3.2-37.12 0.832-49.536-6.336-10.304-5.952-19.072-15.872-26.176-30.4l-4.032-9.28-53.632 20.928c12.16 31.232 30.464 54.464 55.04 68.672 21.504 12.416 46.592 17.152 74.752 14.784l12.16-1.472c20.992-3.2 37.12-0.832 49.536 6.336 10.304 5.952 19.072 15.872 26.176 30.4l4.032 9.28zM680.64 611.072l97.984-59.072v-114.752l-97.92-59.584L576 437.184V552.0640000000001l104.64 59.072z m0.576-42.88l-67.2-40.064v-71.232l66.624-37.696 62.592 37.76V528.0640000000001l-62.08 40zM614.016 543.168l64.768-39.488v-0.32l64.448 35.648 12.224-25.28-62.976-35.84v-58.688h-27.712l-0.064 58.88-61.44 35.648 10.752 29.44z"  horiz-adv-x="1024" />
      
      <glyph glyph-name="front-recovery" unicode="&#59389;" d="M256.045918 827.333622a511.958083 511.958083 0 1 1 743.171153-600.654821l5.951513 20.094354-65.722619 18.302502a443.675674 443.675674 0 1 0-58.555206 365.474077L684.170866 654.739753l-8.319319-67.706456 304.935033-37.50093 37.37294 304.935033L950.389069 862.722725l-22.206182-180.52922A511.958083 511.958083 0 0 1 256.109913 827.333622z"  horiz-adv-x="1024" />
      
      <glyph glyph-name="front-UploadCheckin" unicode="&#59300;" d="M945.28-93.632H19.2V844.8h363.968l118.016-147.456h496.832v-791.04h-52.736V643.2H477.952l-119.04 147.392h-289.28V-44.8H945.28zM472.32 471.488h64v-375.168h-64zM505.088 534.208l199.104-199.04-36.16-36.224-162.944 162.88-162.944-162.88-36.16 36.16z"  horiz-adv-x="1024" />
      
      <glyph glyph-name="front-nopermission" unicode="&#59115;" d="M631.872 618.048l48.832-28.16-307.648-532.096-48.896 28.16 307.712 532.096zM669.12 896l256.448-256v-768H104.96V896h564.096z m-21.248-51.2h-491.52v-921.6H874.24V618.752L647.872 844.8zM515.2 512c122.752 0 233.856-59.776 333.376-179.2-99.52-119.424-210.624-179.2-333.376-179.2-122.688 0-233.856 59.776-333.312 179.2C281.408 452.224 392.512 512 515.2 512z m109.12-70.784l5.44-5.888c24.448-27.264 39.296-63.168 39.296-102.528a152.96 152.96 0 0 0-44.8-108.352c52.416 19.456 102.528 53.696 150.656 103.04l5.056 5.376-5.056 5.248c-48.128 49.344-98.176 83.584-150.592 103.04z m-218.112 0l-12.544-4.992c-47.808-20.096-93.824-52.608-138.112-98.112l-5.12-5.312 5.12-5.376c48.064-49.344 98.176-83.584 150.592-103.04a153.28 153.28 0 0 0 0 216.768zM515.2 435.2c-56.64 0-102.528-45.824-102.528-102.4 0-56.576 45.888-102.4 102.528-102.4 56.64 0 102.592 45.824 102.592 102.4 0 56.576-45.952 102.4-102.592 102.4z"  horiz-adv-x="1024" />
      
      <glyph glyph-name="front-top-stc" unicode="&#60006;" d="M640 896l256-256v-768H128V896h512z m-26.56-64H192v-896h640V613.44L613.44 832zM315.328 380.928c9.152-4.288 107.712-60.416 138.816-78.08 13.632-6.144 6.784-11.328 3.52-13.12l-1.472-0.704-50.048-30.912s23.04-30.72 59.136-47.104c28.16-16.768 87.68-16.768 132.096 0 28.928 10.88 75.264 47.104 94.08 78.016l44.544-36.48s-44.48-62.208-111.488-91.2c-67.008-28.992-144-24.064-196.16 8.704-52.096 32.768-69.632 60.416-69.632 60.416l-44.928-25.6s-9.28-4.608-9.28 6.144v160.64s0 14.4 10.88 9.28z m296.832 165.312c52.096-32.768 69.632-60.416 69.632-60.416l44.928 25.6s9.28 4.608 9.28-6.144v-160.704s0-14.336-10.88-9.216a9187.2 9187.2 0 0 0-138.752 78.08c-13.696 6.144-6.784 11.328-3.52 13.12l1.408 0.704 50.048 30.912s-22.912 30.72-59.136 47.104c-28.16 16.768-87.68 16.768-132.032 0-28.928-10.88-75.264-47.104-94.144-78.016l-44.48 36.48s44.48 62.208 111.488 91.2c67.008 28.992 144 24.064 196.16-8.704z"  horiz-adv-x="1024" />
      
      <glyph glyph-name="front-healthstatus" unicode="&#59388;" d="M658.285714 384m-182.857143 0a182.857143 182.857143 0 1 1 365.714286 0 182.857143 182.857143 0 1 1-365.714286 0Z"  horiz-adv-x="1316" />
      
      <glyph glyph-name="front-task" unicode="&#59387;" d="M432 226.112v-153.6H280v153.6H432z m354.688-104.96v-53.952H533.312v53.952h253.376z m-395.2 64H320.512v-71.68h70.976v71.68z m395.2 140.8v-53.12H533.312v53.12h253.376zM432 533.312v-153.6H280v153.6H432z m-40.512-40.96H320.512v-71.68h70.976v71.68z m395.2 38.4v-52.608H533.312v52.608h253.376zM280 793.6v-62.72H192.832v-795.904h686.848V730.88h-92.992V793.6h152V-128H128V793.6h152zM634.688 896v-51.2H736v-153.6H330.688V844.8H432V896h202.688z m-50.688-57.984H482.688V793.6H392.256v-51.2h279.936v51.2H584V838.016z"  horiz-adv-x="1024" />
      
      <glyph glyph-name="front-top-milepost" unicode="&#59382;" d="M268.8 876.8c98.816 0 162.368-28.352 225.92-70.848 63.552-49.6 141.248-70.848 240.064-70.848 63.552 0 127.104 14.144 176.576 35.392v-559.744c-42.368-28.352-105.92-42.496-176.576-42.496-77.632 0-141.184 14.144-197.696 56.64C473.6 267.52 395.904 309.952 268.8 309.952c-49.472 0-91.84-7.04-134.208-21.248v-341.888l0.064-62.016H64V820.096C106.368 848.448 176.96 876.8 268.8 876.8z m0-57.984c-56.512 0-105.92-14.144-134.208-28.352V340.48A441.984 441.984 0 0 0 268.8 361.72799999999995c148.224 0 240-49.6 310.656-99.2 42.368-28.352 91.776-42.56 155.328-42.56 42.368 0 96.512 10.88 124.8 17.984V688c-35.328-7.04-89.472-10.88-124.8-10.88-56.192 0-105.408 7.04-151.168 21.056a495.296 495.296 0 0 0-131.2 64c-28.8 17.984-55.68 32.32-85.44 42.112A307.84 307.84 0 0 1 268.8 818.816z"  horiz-adv-x="1024" />
      
      <glyph glyph-name="front-project1" unicode="&#59385;" d="M824.192 860.096l186.24-876.416-312.96-66.56L589.44 425.088v-505.088h-576v896h576v-5.76l234.752 49.856zM269.44 752h-192v-768h192v768z m250.496 0H333.44v-768h192L525.376 726.464l-5.44 25.536z m254.912 32.256l-185.408-39.424v-11.968l157.248-739.776 187.84 39.936-159.68 751.232zM173.44 144a48 48 0 1 0 0-96 48 48 0 0 0 0 96z m256 0a48 48 0 1 0 0-96 48 48 0 0 0 0 96z m434.88-11.456a48 48 0 1 0-93.888-19.968 48 48 0 0 0 93.888 19.968zM237.44 553.6v-51.2h-128v51.2h128z m256 0v-51.2h-128v51.2h128z m290.048 29.76l10.624-50.112-125.184-26.624-10.624 50.112 125.184 26.624zM237.44 681.6v-51.2h-128v51.2h128z m256 0v-51.2h-128v51.2h128z m263.424 26.88l10.624-50.048-125.184-26.56-10.624 50.048 125.184 26.624z"  horiz-adv-x="1024" />
      
      <glyph glyph-name="front-stage" unicode="&#59386;" d="M979.072 140.8v-192H51.2v192h927.872z m-56.64-54.4h-192v-82.176h192v82.112z m56.64 284.8v-192H51.2v192h927.872z m-56.64-54.4H421.12v-82.176h501.248V316.736z m56.64 284.8v-192H51.2v192h927.872z m-56.64-54.4h-320v-82.176h320V547.136zM979.072 832v-192H51.2V832h927.872z m-56.64-54.4h-640v-82.176h640V777.536z"  horiz-adv-x="1024" />
      
      <glyph glyph-name="front-health" unicode="&#59380;" d="M873.92 776.768a281.728 281.728 0 0 0 124.352-176.128 281.792 281.792 0 0 0-35.328-208.64c-16-25.408-36.16-46.4-57.216-67.392l-267.904-267.968L526.08-55.04a24.768 24.768 0 0 0-34.56 0l-0.64 0.64c-15.04 14.08-29.312 29.312-43.776 43.776l-90.24 90.24-104.32 104.32L130.56 305.92l-0.64 0.704-4.416 4.48c-9.92 9.856-20.224 19.648-30.08 29.824l-14.336 15.616a284.544 284.544 0 0 0-54.592 96.064C3.904 520.64 9.856 595.776 40.192 660.544c31.168 66.24 89.536 117.44 157.504 142.336 67.776 24.832 143.36 20.48 209.024-8.32a277.12 277.12 0 0 0 83.328-57.6l35.776-35.84-17.152 17.216 13.376 13.312c14.208 13.952 28.8 27.264 45.312 38.72a272 272 0 0 0 98.112 42.56 282.368 282.368 0 0 0 208.448-36.16zM544 576v-147.136L704 428.8v-64l-160 0.064V192h-64V364.864L320 364.8v64l160 0.064V576h64zM63.68 508.608c0.64-3.136 1.6-10.816 1.728-11.52l2.432-11.008a223.36 223.36 0 0 1 11.072-34.816c0.448-0.832 0.64-1.792 1.088-2.56l-0.704 1.472 1.216-2.56 1.088-2.56c6.784-14.784 15.04-28.864 24.576-42.176l2.304-3.072-0.192 0.128 0.64-0.768v-0.064l-0.576 0.704 0.512-0.704 0.512-0.64 0.064-0.064 0.512-0.64 1.92-2.304 7.68-8.96c3.392-3.84 7.04-7.552 10.688-11.264l34.816-34.752 0.64-0.704c15.104-14.08 29.312-29.248 43.84-43.776L508.8-3.2l379.2 379.2c7.488 7.68 14.656 15.744 21.312 24.128l0.64 0.896 0.832 1.152a173.568 173.568 0 0 1 10.24 15.168 257.792 257.792 0 0 1 15.36 28.416l1.152 2.688a31.872 31.872 0 0 1 0.64 1.408l0.256 0.768-0.32-0.64 0.32 0.768 0.32 0.704 0.64 1.6 1.984 5.312a248 248 0 0 1 12.48 48.768l0.192 1.152 0.064 0.64c0.128 1.856 0.384 3.648 0.576 5.504a257.728 257.728 0 0 1 0.96 37.12l-0.96 12.992-0.256 2.816-0.256 2.752-0.064 0.064a295.808 295.808 0 0 1-7.36 33.792l-5.12 16c-0.64 2.176-1.472 4.224-2.304 6.208a78.784 78.784 0 0 1-0.896 2.304l-0.256 0.768-0.384 1.024-0.96 2.176-0.448 1.088c-0.832 1.728-1.664 3.328-2.432 5.12a243.84 243.84 0 0 1-19.648 33.92l-3.392 4.672a104.448 104.448 0 0 0-1.536 2.048l-0.64 0.96-0.512 0.64a23.424 23.424 0 0 0-1.28 1.536l-1.92 2.304-3.712 4.48a287.552 287.552 0 0 1-26.688 26.624l-4.928 4.224-3.648 2.88-0.064 0.064-0.448 0.384-1.728 1.28-1.152 0.832a250.176 250.176 0 0 1-33.664 20.672l-14.016 6.656-0.448 0.192-0.384 0.192-3.2 1.28-5.312 1.984a247.232 247.232 0 0 1-35.84 10.176l-11.968 2.176-1.28 0.256-1.28 0.192 0.64-0.128-5.376 0.512a262.848 262.848 0 0 1-12.544 0.896l-12.544 0.32a239.36 239.36 0 0 1-24.064-1.088l-3.84-0.448-2.24-0.192-0.704-0.128a10.624 10.624 0 0 0-0.64-0.128l-0.832-0.064-11.968-2.176a257.28 257.28 0 0 1-42.112-12.48l-3.584-1.344 0.832 0.384-1.28-0.64-0.704-0.256-3.392-1.664-5.12-2.432a263.872 263.872 0 0 1-39.68-24.128l-1.472-1.088-3.712-3.008-4.864-4.16a270.72 270.72 0 0 1-14.4-13.44l-35.584-35.584-1.536-1.408c-9.216-8.384-24.64-7.36-33.28 1.28l-4.736 4.736c-13.696 13.696-27.072 27.904-41.472 40.96-3.2 2.816-6.464 5.504-9.728 8.256-0.64 0.512-5.12 3.84-2.88 2.24l0.512-0.32a42.88 42.88 0 0 1-1.28 0.96l-1.664 1.408-1.216 0.832a245.12 245.12 0 0 1-42.112 24.512l-6.08 2.688c3.776-1.728 0.768-0.384-1.28 0.448-3.456 1.28-7.04 2.688-10.496 3.904a270.464 270.464 0 0 1-35.2 9.344c-1.28 0.256-11.84 1.344-11.968 2.048l0.064-0.064-1.856 0.192-5.504 0.512a286.272 286.272 0 0 1-52.8-0.96h-0.512c-4.48-0.704-8.448-1.408-12.416-2.24l-11.776-2.56a287.36 287.36 0 0 1-34.688-11.392c-2.56-0.96 1.344 0.512 1.472 0.64a20.864 20.864 0 0 1-2.56-1.088c-1.728-0.64-3.392-1.472-5.12-2.304a253.056 253.056 0 0 1-43.328-25.856l-0.832-0.576-0.128-0.128-0.704-0.576-4.48-3.584-4.48-3.776-4.48-3.968a249.6 249.6 0 0 1-16.896-16.896c-2.816-3.264-5.696-6.528-8.384-9.792-1.28-1.472-2.432-3.072-3.648-4.608l-0.96-1.216a278.016 278.016 0 0 1-25.472-42.624l-2.688-6.144-0.448-1.088 0.384 1.152-0.384-1.152-1.984-5.248-1.92-5.312a258.88 258.88 0 0 1-11.52-46.144v-0.64c0-0.768-0.256-1.92-0.256-2.112-0.128-1.92-0.448-3.648-0.576-5.568a238.592 238.592 0 0 1 0.384-52.8l0.064-0.896z"  horiz-adv-x="1024" />
      
      <glyph glyph-name="front-Ascending" unicode="&#59379;" d="M32 384L566.528 864v-246.4h384v-457.6h-384v-256L32 384z m96.64 0l376.128-346.752v177.472h393.984V566.528H504.768V726.144L128.64 384z"  horiz-adv-x="1024" />
      
      <glyph glyph-name="front-movedown" unicode="&#59381;" d="M512-96l480 534.528h-246.4v384H288v-384h-256L512-96z m0 96.64L165.248 376.832h177.472V770.752h351.808v-393.984h159.616L512 0.6399999999999864z"  horiz-adv-x="1024" />
      
      <glyph glyph-name="front-moveup" unicode="&#59383;" d="M512 864l480-534.528h-246.4v-384H288v384h-256L512 864z m0-96.64L165.248 391.168h177.472v-393.984h351.808V391.232h159.616L512 767.36z"  horiz-adv-x="1024" />
      
      <glyph glyph-name="front-Descending" unicode="&#59384;" d="M992 384L457.472 864v-246.4h-384v-457.6h384v-256L992 384z m-96.64 0l-376.128-346.752v177.472H125.248V566.528h393.984V726.144L895.36 384z"  horiz-adv-x="1024" />
      
      <glyph glyph-name="front-fivedays" unicode="&#59377;" d="M410.624 448l-19.968-204.8h52.224c7.168 13.312 16.896 23.04 30.208 29.184a92.8 92.8 0 0 0 42.496 8.704c24.576 0 43.008-7.168 56.32-21.504 13.312-14.336 19.968-34.304 19.968-59.904 0-23.552-7.68-41.984-23.04-56.32-15.36-13.824-34.304-20.992-56.832-20.992-20.48 0-36.864 4.608-49.152 13.824-13.824 10.24-22.016 26.112-24.064 46.592H384c2.56-33.792 16.896-60.928 43.008-80.384 23.552-17.92 51.712-27.136 84.48-27.136 36.352 0 67.584 10.752 93.696 32.256 27.648 24.064 41.984 54.784 41.984 92.672 0 39.424-11.264 70.144-32.768 92.672-21.504 22.528-49.664 33.792-83.968 33.792-16.384 0-31.744-2.56-45.056-8.192-14.848-5.12-27.648-13.312-38.912-25.088h-1.536l10.752 105.472h175.104V448h-220.16zM994.112-128H38.4V759.488h238.912V896H345.6v-136.512h341.312V896H755.2v-136.512h238.912V-128zM925.888 520.512h-819.2v-580.224h819.2V520.512z m0 170.688h-819.2v-102.4h819.2V691.2z"  horiz-adv-x="1024" />
      
      <glyph glyph-name="front-sixdays" unicode="&#59378;" d="M994.112-128H38.4V759.488h238.912V896H345.6v-136.512h341.312V896H755.2v-136.512h238.912V-128zM925.888 520.512h-819.2v-580.224h819.2V520.512z m0 170.688h-819.2v-102.4h819.2V691.2zM542.72 436.736c-41.984 0-75.776-18.432-100.352-55.808-24.576-36.864-36.352-84.992-36.352-144.384 0-55.808 11.264-99.328 33.792-130.56 23.552-32.768 57.344-49.152 102.4-49.152 35.84 0 66.56 12.288 91.136 35.84 24.064 23.552 36.352 53.76 36.352 90.112 0 35.84-10.752 65.536-31.744 88.576-21.504 22.528-50.176 33.792-86.016 33.792-19.456 0-36.352-3.584-50.688-11.264-15.872-7.68-28.672-19.456-38.912-35.84h-2.048c-0.512 3.072-0.512 5.12-0.512 6.656 0 35.84 7.168 65.024 22.016 88.576 14.848 25.088 34.816 37.376 60.416 37.376 36.864 0 58.88-17.408 66.56-53.248h54.272c-9.216 66.56-49.664 99.328-120.32 99.328z m-2.048-176.64c22.528 0 40.96-7.168 54.272-21.504 13.312-13.312 19.968-32.256 19.968-55.808 0-23.04-7.168-41.984-20.992-57.344-13.312-14.848-31.232-22.528-53.76-22.528-22.016 0-39.936 7.168-53.248 21.504-13.824 14.336-20.48 33.28-20.48 56.832 0 24.064 6.656 43.008 19.968 57.344 13.312 14.336 31.232 21.504 54.272 21.504z"  horiz-adv-x="1024" />
      
      <glyph glyph-name="front-calendar" unicode="&#59376;" d="M987.712-128H32V759.488h238.912V896H339.2v-136.512h341.312V896H748.8v-136.512h238.912V-128zM919.488 520.512h-819.2v-580.224h819.2V520.512z m0 170.688h-819.2v-102.4h819.2V691.2zM256 192v-64H192v64h64z m192 0v-64H384v64h64z m384 128v-64h-64V320h64z m-192 0v-64H576V320h64zM448 320v-64H384V320h64zM256 320v-64H192V320h64z m0 128v-64H192V448h64z m192 0v-64H384V448h64z m192 0v-64H576V448h64z m192 0v-64h-64V448h64z"  horiz-adv-x="1024" />
      
      <glyph glyph-name="front-update" unicode="&#59374;" d="M851.136 191.424a387.2 387.2 0 0 0-312.704-193.92V-128l-174.4 174.4 174.464 174.4v-158.72a322.624 322.624 0 0 1 264.512 467.968c-7.04 15.68 48.832 44.096 57.408 29.184a387.2 387.2 0 0 0-9.28-367.808zM192.576 384c0-52.288 12.416-102.592 35.84-147.968 5.696-10.24-52.224-40.192-57.28-29.632A387.2 387.2 0 0 0 515.2 771.072h23.168V896l174.528-174.464-174.464-174.4v159.36H515.2A322.624 322.624 0 0 1 192.64 384z"  horiz-adv-x="1024" />
      
      <glyph glyph-name="front-Utilization" unicode="&#59375;" d="M115.2 864l96-128H139.264l-0.064-713.344h743.936L883.2 96l128-96-128-96-0.064 64.064H139.2v-0.064H83.2v768h-64l96 128z m256-256v-481.92H211.2V608h160z m255.168 192v-673.92h-189.44V800h189.44z m264.896-64v-609.92h-199.04V736h199.04z m-568.32-172.16H257.024v-396.544h65.792V563.84zM571.52 746.048H492.16v-573.44h79.36v573.44z m263.68-63.168h-86.4v-501.568h86.4V682.88z"  horiz-adv-x="1024" />
      
      <glyph glyph-name="front-homesearch" unicode="&#59373;" d="M719.424 727.168a369.024 369.024 0 0 0 39.936-474.688l155.712-155.84a92.224 92.224 0 1 0-130.432-130.432l-167.04 167.04a369.088 369.088 0 0 0-419.968 593.92 368.96 368.96 0 0 0 521.792 0z m0-521.728v-0.064l-1.344-1.28-42.112-42.176 152.192-152.192a30.72 30.72 0 0 1 47.04 39.168l-3.584 4.288-152.192 152.256zM241.152 683.648a307.456 307.456 0 1 1 434.816-434.816 307.456 307.456 0 0 1-434.816 434.816z"  horiz-adv-x="1024" />
      
      <glyph glyph-name="signatureSettings" unicode="&#59372;" d="M384.00048 896m63.99976 0l447.99832 0q63.99976 0 63.99976-63.99976l0-63.99976q0-63.99976-63.99976-63.99976l-447.99832 0q-63.99976 0-63.99976 63.99976l0 63.99976q0 63.99976 63.99976 63.99976ZM330.68868 672.12884h404.862482c19.071928 0 33.343875-14.271946 33.343875-33.279876a37.567859 37.567859 0 0 0-38.079858-38.143857H330.68868c-23.807911 0-38.079857 14.271946-38.079857 38.079858 0 19.071928 14.271946 33.343875 38.079857 33.343875z m0-214.335197h214.399196c19.007929 0 38.079857-14.271946 38.079857-38.079857a37.567859 37.567859 0 0 0-38.143857-38.079857H330.68868c-23.807911 4.735982-38.079857 19.007929-38.079857 42.879839 0 19.007929 14.271946 33.279875 38.079857 33.279875zM244.993001-127.99616000000003H149.761358C102.081537-127.99616000000003 64.00168-89.91630299999997 64.00168-42.236482000000024V815.040304C64.00168 862.656125 102.081537 896 149.761358 896h762.045143c47.615821 0 85.695679-38.079857 85.695678-85.759678v-333.37475a37.567859 37.567859 0 0 0-38.079857-38.079857c-23.807911 0-38.143857 14.271946-38.143857 38.079857V815.040304a10.239962 10.239962 0 0 1-9.471964 9.535964H149.761358a10.239962 10.239962 0 0 1-9.599964-9.599964V-42.236482000000024a10.239962 10.239962 0 0 1 9.599964-9.599964h95.231643c19.071928 0 38.079857-14.271946 38.079857-38.079857a37.567859 37.567859 0 0 0-38.079857-38.079857zM902.270536-127.99616000000003H545.023876c-52.351804 0-95.231643 42.879839-95.231643 95.231643 0 52.415803 42.879839 95.295643 95.231643 95.295643h95.295643v23.80791a159.231403 159.231403 0 0 0-71.487732 119.039554v9.599964c0 85.695679 71.487732 157.119411 152.447428 157.119411 80.959696 0 152.383429-71.423732 152.383429-152.383429 0-52.415803-28.543893-100.031625-71.423732-128.639518v-23.80791h95.231642c52.415803 0 95.295643-42.879839 95.295643-95.231643 0-52.415803-38.143857-100.031625-90.495661-100.031625z m-361.982642 119.039554c-14.271946 0-23.807911-9.471964-23.807911-23.807911 0-14.271946 9.535964-23.807911 23.807911-23.807911h357.18266c14.335946 0 23.807911 9.599964 23.807911 23.807911 0 14.335946-9.471964 23.807911-23.807911 23.807911h-128.575517a36.351864 36.351864 0 0 0-23.807911 9.599964 36.351864 36.351864 0 0 0-9.535964 23.743911v81.023696c0 14.271946 9.535964 28.543893 19.071928 33.279875a85.37568 85.37568 0 0 1-38.143857 161.919393c-47.615821 0-85.759678-38.079857-85.759678-85.695679v-4.735982c0-28.607893 19.071928-57.151786 47.679821-71.487732 14.271946-4.735982 19.071928-19.007929 19.071928-33.279875v-81.023696a37.567859 37.567859 0 0 0-38.143856-38.079858h-119.039554v4.735983z"  horiz-adv-x="1024" />
      
      <glyph glyph-name="front-department" unicode="&#59371;" d="M772.928 896a128 128 0 0 0 128-128v-164.544h10.368c62.208 0 112.704-49.152 112.704-109.76v-512c0-60.544-50.496-109.696-112.704-109.696h-75.2c-62.272 0-112.704 49.152-112.704 109.696v512c0 60.288 49.92 109.184 111.68 109.76l0.128 165.12c-0.768 17.28-4.672 30.912-11.712 40.96l-4.672 5.568c-8.64 8.832-23.424 14.208-44.416 16.192L763.392 832h-494.08c-19.392 0.384-32.576-0.256-39.552-1.92-33.152-7.872-46.912-33.92-49.92-51.84-1.216-7.552-1.92-18.048-2.176-31.488l-0.128-10.56-0.064-132.736h10.432c62.272 0 112.704-49.152 112.704-109.76v-512c0-60.544-50.432-109.696-112.704-109.696H112.64C50.56-128 0-78.848 0-18.304v512c0 60.288 49.92 109.248 111.744 109.76V768a128 128 0 0 0 128 128h533.184zM539.264 832l-0.064-228.544h4.736c62.272 0 112.768-49.152 112.768-109.76v-512c0-60.544-50.56-109.696-112.768-109.696H468.8c-62.272 0-112.768 49.152-112.768 109.696v512c0 60.608 50.496 109.76 112.768 109.76h4.672V832h65.792z m332.928-291.392c-52.672 0-81.152-20.032-85.504-60.16v-507.904c0-17.664 12.992-32.768 30.848-35.968l6.72-0.576h95.872a37.312 37.312 0 0 1 36.992 30.016l0.64 6.528V480.512c0 17.664-6.592 60.16-85.568 60.16z m-363.968 4.8c-53.248 0-81.92-17.28-86.144-51.712v-521.152c0-17.664 12.928-32.768 30.784-35.968l6.784-0.576H556.8a37.312 37.312 0 0 1 36.928 30.016l0.64 6.528V493.696c0 17.664-20.672 51.712-86.208 51.712z m-363.776 1.472c-51.648 0-79.296-17.728-82.88-53.12v-521.216c0-17.664 12.992-32.768 30.848-35.968l6.72-0.576 106.432 0.64c18.176 0 27.52 8.512 30.848 25.92l0.64 6.528-0.64 524.608c0 17.664-5.184 53.184-91.968 53.184z"  horiz-adv-x="1024" />
      
      <glyph glyph-name="arrow-left" unicode="&#60005;" d="M232.75 643.9l-214-214c-25-25-25-65.5 0-90.5l215-215c1.6-1.6 4.1-1.6 5.7 0L279.05 164c1.6 1.6 1.6 4.1 0 5.7L103.25 345.29999999999995c-2.5 2.5-0.7 6.8 2.8 6.8h914.1c2.2 0 4 1.8 4 4v56c0 2.2-1.8 4-4 4H105.05c-3.6 0-5.3 4.3-2.8 6.8l175.7 175.7c1.6 1.6 1.6 4.1 0 5.7l-39.6 39.6c-1.5 1.6-4.1 1.6-5.6 0z"  horiz-adv-x="1024" />
      
      <glyph glyph-name="front-confirm" unicode="&#59110;" d="M665.6 896l256-256v-768H102.4V896h563.2z m-51.264-51.136L153.6 844.8v-921.6h716.8V614.464l-256-0.064L614.336 844.864zM736 150.4v-44.8H512v44.8h224zM625.28 576l126.72-126.72-336.448-336.448-134.784-6.912 8.064 133.632L625.28 576z m-63.68-126.912l-229.12-229.184-4.096-66.688 67.52 3.456 229.056 229.12-63.36 63.296z m63.616 63.552l-31.936-31.808 63.36-63.36 31.936 31.808-63.36 63.36z m40.32 311.04L665.6 665.6l157.888 0.064-157.952 158.016z"  horiz-adv-x="1024" />
      
      <glyph glyph-name="front-toplayout" unicode="&#59328;" d="M64-64V832h896l-0.064-832H960v-64H64z m63.936 64h352L480 768H128l-0.064-768zM896 768H544l-0.064-768h352L896 768z"  horiz-adv-x="1024" />
      
      <glyph glyph-name="a-front-newpasswordblue" unicode="&#59364;" d="M512-128c282.766222 0 512 229.233778 512 512S794.766222 896 512 896 0 666.766222 0 384s229.233778-512 512-512zM688.810667 448H335.985778c-17.635556 0-31.971556-14.336-31.971556-32v-256c0-17.664 14.307556-32 31.971556-32h352.824889a32 32 0 0 1 31.203555 32v256c0 17.351111-13.852444 31.573333-31.203555 32z m-152.803556-173.283556v-54.727111a24.007111 24.007111 0 1 0-48.014222 0v54.727111a47.985778 47.985778 0 1 0 48.014222 0zM512 640a138.410667 138.410667 0 0 1-137.927111-137.927111v-54.072889h48.014222v49.436444a89.6 89.6 0 0 0 179.2 0v-49.436444h47.985778v54.072889A138.410667 138.410667 0 0 1 512 640z"  horiz-adv-x="1024" />
      
      <glyph glyph-name="a-front-VerifyPasswordblue" unicode="&#59365;" d="M512-128c282.766222 0 512 229.233778 512 512S794.766222 896 512 896 0 666.766222 0 384s229.233778-512 512-512zM389.831111 294.456889l82.659556 82.659555a36.039111 36.039111 0 0 0 50.972444-50.972444l-180.224-180.252444a36.039111 36.039111 0 1 0-50.972444 50.972444l46.592 46.620444-31.687111 31.687112a36.039111 36.039111 0 1 0 50.972444 50.972444l31.687111-31.687111zM497.635556 615.850667a180.224 180.224 0 1 0 180.252444-312.177778 180.224 180.224 0 0 0-180.252444 312.177778z m48.810666-87.04a75.776 75.776 0 1 1 75.747556-131.214223 75.776 75.776 0 0 1-75.747556 131.242667z"  horiz-adv-x="1024" />
      
      <glyph glyph-name="a-front-Authenticationblue" unicode="&#59366;" d="M512-128c282.766222 0 512 229.233778 512 512S794.766222 896 512 896 0 666.766222 0 384s229.233778-512 512-512zM281.6 498.460444h4.522667v-60.245333H281.6a25.6 25.6 0 0 0-25.6 25.6v9.045333a25.6 25.6 0 0 0 25.6 25.6zM742.4 498.460444h-4.522667v-60.245333h4.522667a25.6 25.6 0 0 1 25.6 25.6v9.045333a25.6 25.6 0 0 1-25.6 25.6zM737.877333 468.337778H768v-60.245334h-30.122667zM256.227556 468.195556L256 217.884444c0-27.875556 23.04-50.716444 51.2-50.716444h409.6c28.16 0 51.2 22.812444 51.2 50.716444v250.481778l-249.884444-135.082666a12.771556 12.771556 0 0 0-12.231112 0l-249.656888 134.968888zM331.093333 588.8h361.585778c24.661333 0 44.885333-19.968 45.226667-44.430222v-108.344889l-226.019556-117.674667-225.763555 105.102222v120.775112A45.027556 45.027556 0 0 0 331.093333 588.8z"  horiz-adv-x="1024" />
      
      <glyph glyph-name="a-front-Authenticationgrey" unicode="&#59367;" d="M512-128c282.766222 0 512 229.233778 512 512S794.766222 896 512 896 0 666.766222 0 384s229.233778-512 512-512zM281.6 498.460444h4.522667v-60.245333H281.6a25.6 25.6 0 0 0-25.6 25.6v9.045333a25.6 25.6 0 0 0 25.6 25.6zM742.4 498.460444h-4.522667v-60.245333h4.522667a25.6 25.6 0 0 1 25.6 25.6v9.045333a25.6 25.6 0 0 1-25.6 25.6zM737.877333 468.337778H768v-60.245334h-30.122667zM256.227556 468.195556L256 217.884444c0-27.875556 23.04-50.716444 51.2-50.716444h409.6c28.16 0 51.2 22.812444 51.2 50.716444v250.481778l-249.884444-135.082666a12.771556 12.771556 0 0 0-12.231112 0l-249.656888 134.968888zM331.093333 588.8h361.585778c24.661333 0 44.885333-19.968 45.226667-44.430222v-108.344889l-226.019556-117.674667-225.763555 105.102222v120.775112A45.027556 45.027556 0 0 0 331.093333 588.8z"  horiz-adv-x="1024" />
      
      <glyph glyph-name="a-front-newpasswordgrey" unicode="&#59368;" d="M512-128c282.766222 0 512 229.233778 512 512S794.766222 896 512 896 0 666.766222 0 384s229.233778-512 512-512zM688.810667 448H335.985778c-17.635556 0-31.971556-14.336-31.971556-32v-256c0-17.664 14.307556-32 31.971556-32h352.824889a32 32 0 0 1 31.203555 32v256c0 17.351111-13.852444 31.573333-31.203555 32z m-152.803556-173.283556v-54.727111a24.007111 24.007111 0 1 0-48.014222 0v54.727111a47.985778 47.985778 0 1 0 48.014222 0zM512 640a138.410667 138.410667 0 0 1-137.927111-137.927111v-54.072889h48.014222v49.436444a89.6 89.6 0 0 0 179.2 0v-49.436444h47.985778v54.072889A138.410667 138.410667 0 0 1 512 640z"  horiz-adv-x="1024" />
      
      <glyph glyph-name="a-front-VerifyPasswordgrey" unicode="&#59369;" d="M512-128c282.766222 0 512 229.233778 512 512S794.766222 896 512 896 0 666.766222 0 384s229.233778-512 512-512zM389.831111 294.456889l82.659556 82.659555a36.039111 36.039111 0 0 0 50.972444-50.972444l-180.224-180.252444a36.039111 36.039111 0 1 0-50.972444 50.972444l46.592 46.620444-31.687111 31.687112a36.039111 36.039111 0 1 0 50.972444 50.972444l31.687111-31.687111zM497.635556 615.850667a180.224 180.224 0 1 0 180.252444-312.177778 180.224 180.224 0 0 0-180.252444 312.177778z m48.810666-87.04a75.776 75.776 0 1 1 75.747556-131.214223 75.776 75.776 0 0 1-75.747556 131.242667z"  horiz-adv-x="1024" />
      
      <glyph glyph-name="a-front-logoonchain" unicode="&#59363;" d="M426.0864 896l425.813333-273.681067 0.443734-178.653866h0.034133v-12.3904l-73.591467-47.2064 74.069334-47.581867 0.4096-178.653867H853.333333v-12.3904L427.246933-128 0.9216 145.442133v191.044267l74.274133 47.752533L0 432.708267V622.2848L426.0864 896zM135.7824 235.076267L10.4448 153.258667v-1.501867l412.2624-264.704 0.682667 160.290133-287.607467 187.733334z m582.690133-0.273067l-286.0032-186.5728-0.682666-161.1776 412.501333 265.0112-0.034133 0.580267-0.443734 0.273066-125.3376 81.885867z m-85.367466 55.773867l-206.779734-132.744534-205.7216 132.642134-75.537066-49.322667 282.180266-184.2176 281.941334 183.944533-76.0832 49.698134z m210.705066 26.0096l-115.9168-75.639467 115.9168-75.639467v151.278934zM10.478933 316.859733l-0.034133-151.2448 115.9168 75.605334-115.882667 75.639466z m343.825067 60.893867L230.024533 296.618667l192-123.869867 0.4096 160.5632-68.130133 44.4416z m144.861867 0.341333l-67.652267-44.202666-0.4096-160.836267 192.546133 123.6992-124.484266 81.339733z m270.097066-0.1024l-126.702933-81.339733 76.049067-49.629867 125.201066 81.681067v1.4336l-74.5472 47.854933z m-684.578133 0.136534L9.966933 330.1376v-0.785067l0.512-0.341333 125.166934-81.7152 75.537066 49.288533-126.498133 81.544534z m135.611733 87.074133L94.208 384.238933l126.3616-81.544533 124.416 81.169067-124.689067 81.339733z m412.706134 0.238933l-124.484267-81.271466 124.586667-81.339734 126.5664 81.3056-126.6688 81.3056z m-205.994667-40.209066l-63.3856-41.403734 62.941867-41.0624 63.317333 41.403734-62.8736 41.0624z m-4.778667 169.6768l-192.580266-123.665067 124.6208-81.3056 68.642133 44.782933-0.682667 160.187734z m9.079467 0l0.682667-160.768 67.208533-43.895467 124.416 81.2032-192.3072 123.460267z m286.242133-74.274134l-75.093333-49.015466 126.702933-81.373867 74.171734 47.650133v0.580267l-0.477867 0.273067-125.303467 81.885866z m-582.690133 0.3072L9.489067 439.0912v-0.2048l75.229866-48.5376 126.088534 81.032533-75.946667 49.5616z m707.9936 81.476267l-115.882667-75.639467 115.882667-75.639466V602.4192zM9.5232 602.692267l-0.034133-151.2448 115.950933 75.639466L9.5232 602.692267z m416.5632 108.373333l-281.941333-184.046933 76.049066-49.595734 206.574934 132.744534 206.336-132.539734 75.1616 49.083734-282.180267 184.32z m4.539733 169.8816l0.443734-161.006933 286.6176-187.0848 125.166933 81.681066v1.4336L430.626133 880.9472zM421.546667 880.981333L9.0112 615.970133v-0.785066l0.512-0.341334 125.201067-81.681066 287.266133 187.392-0.443733 160.426666zM843.332267 437.3504l-412.842667-264.8064v161.450667l412.3648 268.6976 0.477867-165.341867z m-420.283734-2.901333L10.478933 165.307733l-1.4336 165.341867 413.218134 265.728 0.785066-161.928533zM2002.0224 404.992c0 17.578667 24.6784 38.775467 42.564267 40.96 11.093333 1.3312 28.945067 0 39.1168-9.0112 10.1376-8.977067 11.639467-16.042667 11.639466-25.361067v-387.754666l175.547734 1.536V397.175467c0 41.403733 8.533333 96.802133-57.480534 136.874666-83.7632 50.824533-183.125333 9.352533-211.387733-26.453333l5.051733 48.981333-180.087466-0.341333v-530.773333l175.035733 0.3072v379.221333z m1037.755733 319.829333v-217.224533c28.2624 35.84 127.658667 77.277867 211.387734 26.453333 65.979733-40.072533 57.480533-95.470933 57.480533-136.874666v-371.8144l-175.547733-1.536v387.754666c0 9.3184-1.501867 16.384-11.6736 25.361067-10.1376 8.977067-27.989333 10.3424-39.082667 8.977067-17.92-2.1504-42.564267-23.3472-42.564267-40.925867v-379.221333l-175.035733-0.341334-0.034133 0.477867-240.401067-2.389333h-4.334933c-191.317333 0-293.205333 109.943467-293.205334 349.730133 0 235.690667 98.440533 345.941333 283.5456 349.5936l9.659734 0.1024h18.8416v-0.136533l11.844266-0.136534c43.861333-0.955733 87.278933-4.266667 130.2528-9.966933v-173.329067a1408.4096 1408.4096 0 0 1-81.5104 5.802667c-26.043733 1.262933-49.3568 2.2528-69.905066 2.935467h-2.048l-1.570134 0.136533-7.7824 0.238933-7.168 0.238934-2.491733-0.1024c-65.467733-3.106133-100.2496-57.821867-100.2496-171.758934 0-106.973867 30.685867-161.1776 88.610133-169.915733l5.700267-0.7168v-0.580267l262.212267 0.034134V724.855467h175.069866z m1299.012267-319.829333c0 17.578667 24.644267 38.775467 42.564267 40.96 11.0592 1.3312 28.945067 0 39.082666-9.0112 10.1376-8.977067 11.639467-16.042667 11.639467-25.361067v-387.754666l175.581867 1.536V397.175467c0 41.403733 8.4992 96.802133-57.514667 136.874666-83.729067 50.824533-183.125333 9.352533-211.3536-26.453333l5.0176 48.981333-180.087467-0.341333v-530.773333l175.069867 0.3072v379.221333zM3387.392 538.7264c76.5952 10.581333 160.324267 12.6976 251.153067 6.382933l-21.0944 1.297067c28.4672-1.194667 54.3744-3.1744 68.9152-6.212267 29.7984-6.2464 52.462933-18.090667 67.959466-35.498666 15.530667-17.442133 24.951467-41.437867 28.330667-71.918934 3.208533-28.740267 4.881067-72.362667 5.051733-130.8672v-129.8432l104.277334-0.034133v-145.749333h-294.468267c-55.671467-0.580267-93.866667-0.9216-114.5856-0.9216-26.862933 0-50.176 2.730667-69.905067 7.9872-19.694933 5.290667-80.2816 28.5696-80.2816 125.5424 0 104.789333 45.568 149.879467 85.572267 166.570666 36.693333 15.291733 99.566933 16.554667 109.806933 16.657067h64.375467v23.4496l-0.034133 1.024c0 14.916267-8.157867 24.849067-24.439467 29.7984a659.421867 659.421867 0 0 1-50.4832 1.911467c-40.311467 0-80.554667-3.515733-120.661333-10.478934z m211.626667-305.2544c-70.656 5.051733-93.525333-16.7936-96.768-45.806933-3.2768-29.013333 5.9392-59.665067 45.021866-63.761067 26.624 0 43.895467 7.202133 51.780267 21.6064zM4103.611733 579.584V725.333333h-211.5584v-145.7152h211.5584z m0-553.301333V553.301333h-211.5584v-527.018666h211.5584v0.068266zM1487.872 723.012267c191.317333 0 287.368533-109.9776 287.368533-349.730134 0-239.786667-96.0512-349.730133-287.402666-349.730133C1296.5888 23.552 1194.666667 133.461333 1194.666667 373.248 1194.666667 613.000533 1296.554667 722.944 1487.872 722.944z m1.774933-182.1696c-69.358933 0-106.2912-53.828267-106.2912-171.2128s36.932267-171.2128 106.2912-171.2128c69.3248 0 104.1408 53.828267 104.1408 171.2128s-34.816 171.2128-104.1408 171.2128z"  horiz-adv-x="4608" />
      
      <glyph glyph-name="front-Onlineediting" unicode="&#59362;" d="M646.72 551.104l125.184-125.184-379.136-379.072-142.976-16.64 17.792 141.824 379.136 379.072z m0-41.728l-351.104-351.104-11.904-94.4 95.424 11.072 351.04 350.976-83.456 83.456zM593.792 479.168l114.752-114.688-26.496-26.496-114.688 114.688zM344.96 667.2a18.752 18.752 0 1 1 0 37.44 18.752 18.752 0 0 1 0-37.44z m-74.88 0a18.752 18.752 0 1 1 0 37.44 18.752 18.752 0 0 1 0-37.44z m-74.944 0a18.752 18.752 0 1 1 0 37.44 18.752 18.752 0 0 1 0-37.44z m-119.04-59.968h896v-37.44h-896v37.44z m737.088-524.416v-37.44H513.472v37.44h299.712zM19.2-96V864h992v-64h-0.576v-832h0.576v-64H19.2z m62.912 64h865.6v832H82.112v-832z"  horiz-adv-x="1024" />
      
      <glyph glyph-name="a-front-plmlogoblue" unicode="&#59361;" d="M511.317333 896l425.813334-273.681067 0.443733-178.653866h0.034133v-12.3904l-73.591466-47.2064 74.069333-47.581867 0.4096-178.653867H938.564267v-12.3904L512.477867-128 86.152533 145.442133v191.044267l74.274134 47.752533L85.230933 432.708267V622.2848L511.317333 896zM221.013333 235.076267L95.675733 153.258667v-1.501867l412.2624-264.704 0.682667 160.290133-287.607467 187.733334z m582.690134-0.273067l-286.0032-186.5728-0.682667-161.1776 412.501333 265.0112-0.034133 0.580267-0.443733 0.273066-125.3376 81.885867z m-85.367467 55.773867l-206.779733-132.744534-205.7216 132.642134-75.537067-49.322667 282.180267-184.2176 281.941333 183.944533-76.0832 49.698134z m210.705067 26.0096l-115.9168-75.639467 115.9168-75.639467v151.278934zM95.709867 316.859733l-0.034134-151.2448 115.9168 75.605334-115.882666 75.639466z m343.825066 60.893867L315.255467 296.618667l192-123.869867 0.4096 160.5632-68.130134 44.4416z m144.861867 0.341333l-67.652267-44.202666-0.4096-160.836267 192.546134 123.6992-124.484267 81.339733z m270.097067-0.1024l-126.702934-81.339733 76.049067-49.629867 125.201067 81.681067v1.4336l-74.5472 47.854933z m-684.578134 0.136534L95.197867 330.1376v-0.785067l0.512-0.341333 125.166933-81.7152 75.537067 49.288533-126.498134 81.544534z m135.611734 87.074133L179.438933 384.238933l126.3616-81.544533 124.416 81.169067-124.689066 81.339733z m412.706133 0.238933l-124.484267-81.271466 124.586667-81.339734 126.5664 81.3056-126.6688 81.3056z m-205.994667-40.209066l-63.3856-41.403734 62.941867-41.0624 63.317333 41.403734-62.8736 41.0624z m-4.778666 169.6768l-192.580267-123.665067 124.6208-81.3056 68.642133 44.782933-0.682666 160.187734z m9.079466 0l0.682667-160.768 67.208533-43.895467 124.416 81.2032-192.3072 123.460267z m286.242134-74.274134l-75.093334-49.015466 126.702934-81.373867 74.171733 47.650133v0.580267l-0.477867 0.273067-125.303466 81.885866z m-582.690134 0.3072L94.72 439.0912v-0.2048l75.229867-48.5376 126.088533 81.032533-75.946667 49.5616z m707.9936 81.476267l-115.882666-75.639467 115.882666-75.639466V602.4192zM94.754133 602.692267l-0.034133-151.2448 115.950933 75.639466L94.754133 602.692267z m416.5632 108.373333l-281.941333-184.046933 76.049067-49.595734 206.574933 132.744534 206.336-132.539734 75.1616 49.083734-282.180267 184.32z m4.539734 169.8816l0.443733-161.006933 286.6176-187.0848 125.166933 81.681066v1.4336L515.857067 880.9472zM506.7776 880.981333L94.242133 615.970133v-0.785066l0.512-0.341334 125.201067-81.681066 287.266133 187.392-0.443733 160.426666zM928.5632 437.3504l-412.842667-264.8064v161.450667l412.3648 268.6976 0.477867-165.341867z m-420.283733-2.901333L95.709867 165.307733l-1.4336 165.341867 413.218133 265.728 0.785067-161.928533z"  horiz-adv-x="1024" />
      
      <glyph glyph-name="a-front-signinVerificationCode" unicode="&#59360;" d="M602.496 832a320 320 0 1 0-164.992-594.24L347.648 147.84l93.248-93.248-45.248-45.312-93.248 93.248-82.752-82.688 93.248-93.248-45.248-45.312-93.248 93.248L96-103.744l-45.248 45.248L385.792 276.48A320 320 0 0 0 602.496 832z m0-64a256 256 0 1 1 0-512 256 256 0 0 1 0 512z"  horiz-adv-x="1024" />
      
      <glyph glyph-name="a-front-previewerror" unicode="&#59359;" d="M488.3456 819.11808a40.96 40.96 0 0 0 55.72608-15.79008l444.66176-796.4672a40.96 40.96 0 0 0-35.75808-60.94848H65.536a40.96 40.96 0 0 0-35.79904 60.86656l442.7776 796.4672a40.96 40.96 0 0 0 15.83104 15.872z m6.30784-56.36096a30.72 30.72 0 0 1-12.61568-12.4928L90.7264 27.70944a30.72 30.72 0 0 1 27.2384-45.3632l771.584 5.8368a30.72 30.72 0 0 1 26.91072 45.11744L536.1664 750.01856a30.72 30.72 0 0 1-41.53344 12.73856zM538.624 135.02464v-40.96h-40.96v40.96h40.96z m0 368.64v-327.68h-40.96v327.68h40.96z"  horiz-adv-x="1024" />
      
      <glyph glyph-name="front-TreeView" unicode="&#59358;" d="M192 0V640H0V896h448v-256H256v-224h320V512h448v-256H576V352H256V64h320v64h448v-256H576v128H192z m768 64h-320v-128h320v128z m0 384h-320v-128h320V448zM384 832H64v-128h320V832z"  horiz-adv-x="1024" />
      
      <glyph glyph-name="front-Y-axis" unicode="&#59357;" d="M426.496 864l96-192h-64v-383.936l352-0.064v64l192-96-192-96v64l-368 0.064 0.128-0.064-155.968-161.344 43.84-43.84-220.8-87.744 85.056 223.488 46.272-46.336 153.472 158.208V672h-64l96 192zM263.744 606.784l45.248-45.248L202.496 455.04V256h-64V455.04L32 561.5360000000001l45.248 45.248 93.248-93.184 93.248 93.184z"  horiz-adv-x="1024" />
      
      <glyph glyph-name="a-front-Cancelresponsibleperson" unicode="&#59356;" d="M512 832a224 224 0 1 0 0-448 224 224 0 0 0 0 448z m0-64a160 160 0 1 1 0-320 160 160 0 0 1 0 320zM608 384c60.928 0 117.888-17.024 166.336-46.592a190.848 190.848 0 0 1-82.432-31.552A253.12 253.12 0 0 1 620.8 319.68L608 320h-192a256 256 0 0 1-255.68-243.2L160 64v-64l516.864-0.128c33.28-27.904 76.288-44.672 123.136-44.672 49.216 0 94.08 18.56 128 48.96V-64h-832v128a320 320 0 0 0 320 320h192zM512 320c18.304 0 33.856-13.568 36.288-31.744L576 82.304 512 0l-64 82.304 27.712 205.952A36.608 36.608 0 0 0 512 320zM800 339.2a192 192 0 1 0 0-384 192 192 0 0 0 0 384z m0-57.6a134.4 134.4 0 1 1 0-268.8 134.4 134.4 0 0 1 0 268.8z m96-102.4v-51.2h-192v51.2h192z"  horiz-adv-x="1024" />
      
      <glyph glyph-name="front-logo" unicode="&#59355;" d="M511.317333 896l425.813334-273.681067 0.443733-178.653866h0.034133v-12.3904l-73.591466-47.2064 74.069333-47.581867 0.4096-178.653867H938.564267v-12.3904L512.477867-128 86.152533 145.442133v191.044267l74.274134 47.752533L85.230933 432.708267V622.2848L511.317333 896zM221.013333 235.076267L95.675733 153.258667v-1.501867l412.2624-264.704 0.682667 160.290133-287.607467 187.733334z m582.690134-0.273067l-286.0032-186.5728-0.682667-161.1776 412.501333 265.0112-0.034133 0.580267-0.443733 0.273066-125.3376 81.885867z m-85.367467 55.773867l-206.779733-132.744534-205.7216 132.642134-75.537067-49.322667 282.180267-184.2176 281.941333 183.944533-76.0832 49.698134z m210.705067 26.0096l-115.9168-75.639467 115.9168-75.639467v151.278934zM95.709867 316.859733l-0.034134-151.2448 115.9168 75.605334-115.882666 75.639466z m343.825066 60.893867L315.255467 296.618667l192-123.869867 0.4096 160.5632-68.130134 44.4416z m144.861867 0.341333l-67.652267-44.202666-0.4096-160.836267 192.546134 123.6992-124.484267 81.339733z m270.097067-0.1024l-126.702934-81.339733 76.049067-49.629867 125.201067 81.681067v1.4336l-74.5472 47.854933z m-684.578134 0.136534L95.197867 330.1376v-0.785067l0.512-0.341333 125.166933-81.7152 75.537067 49.288533-126.498134 81.544534z m135.611734 87.074133L179.438933 384.238933l126.3616-81.544533 124.416 81.169067-124.689066 81.339733z m412.706133 0.238933l-124.484267-81.271466 124.586667-81.339734 126.5664 81.3056-126.6688 81.3056z m-205.994667-40.209066l-63.3856-41.403734 62.941867-41.0624 63.317333 41.403734-62.8736 41.0624z m-4.778666 169.6768l-192.580267-123.665067 124.6208-81.3056 68.642133 44.782933-0.682666 160.187734z m9.079466 0l0.682667-160.768 67.208533-43.895467 124.416 81.2032-192.3072 123.460267z m286.242134-74.274134l-75.093334-49.015466 126.702934-81.373867 74.171733 47.650133v0.580267l-0.477867 0.273067-125.303466 81.885866z m-582.690134 0.3072L94.72 439.0912v-0.2048l75.229867-48.5376 126.088533 81.032533-75.946667 49.5616z m707.9936 81.476267l-115.882666-75.639467 115.882666-75.639466V602.4192zM94.754133 602.692267l-0.034133-151.2448 115.950933 75.639466L94.754133 602.692267z m416.5632 108.373333l-281.941333-184.046933 76.049067-49.595734 206.574933 132.744534 206.336-132.539734 75.1616 49.083734-282.180267 184.32z m4.539734 169.8816l0.443733-161.006933 286.6176-187.0848 125.166933 81.681066v1.4336L515.857067 880.9472zM506.7776 880.981333L94.242133 615.970133v-0.785066l0.512-0.341334 125.201067-81.681066 287.266133 187.392-0.443733 160.426666zM928.5632 437.3504l-412.842667-264.8064v161.450667l412.3648 268.6976 0.477867-165.341867z m-420.283733-2.901333L95.709867 165.307733l-1.4336 165.341867 413.218133 265.728 0.785067-161.928533z"  horiz-adv-x="1024" />
      
      <glyph glyph-name="a-front-plmlogo" unicode="&#59354;" d="M511.317333 896l425.813334-273.681067 0.443733-178.653866h0.034133v-12.3904l-73.591466-47.2064 74.069333-47.581867 0.4096-178.653867H938.564267v-12.3904L512.477867-128 86.152533 145.442133v191.044267l74.274134 47.752533L85.230933 432.708267V622.2848L511.317333 896zM221.013333 235.076267L95.675733 153.258667v-1.501867l412.2624-264.704 0.682667 160.290133-287.607467 187.733334z m582.690134-0.273067l-286.0032-186.5728-0.682667-161.1776 412.501333 265.0112-0.034133 0.580267-0.443733 0.273066-125.3376 81.885867z m-85.367467 55.773867l-206.779733-132.744534-205.7216 132.642134-75.537067-49.322667 282.180267-184.2176 281.941333 183.944533-76.0832 49.698134z m210.705067 26.0096l-115.9168-75.639467 115.9168-75.639467v151.278934zM95.709867 316.859733l-0.034134-151.2448 115.9168 75.605334-115.882666 75.639466z m343.825066 60.893867L315.255467 296.618667l192-123.869867 0.4096 160.5632-68.130134 44.4416z m144.861867 0.341333l-67.652267-44.202666-0.4096-160.836267 192.546134 123.6992-124.484267 81.339733z m270.097067-0.1024l-126.702934-81.339733 76.049067-49.629867 125.201067 81.681067v1.4336l-74.5472 47.854933z m-684.578134 0.136534L95.197867 330.1376v-0.785067l0.512-0.341333 125.166933-81.7152 75.537067 49.288533-126.498134 81.544534z m135.611734 87.074133L179.438933 384.238933l126.3616-81.544533 124.416 81.169067-124.689066 81.339733z m412.706133 0.238933l-124.484267-81.271466 124.586667-81.339734 126.5664 81.3056-126.6688 81.3056z m-205.994667-40.209066l-63.3856-41.403734 62.941867-41.0624 63.317333 41.403734-62.8736 41.0624z m-4.778666 169.6768l-192.580267-123.665067 124.6208-81.3056 68.642133 44.782933-0.682666 160.187734z m9.079466 0l0.682667-160.768 67.208533-43.895467 124.416 81.2032-192.3072 123.460267z m286.242134-74.274134l-75.093334-49.015466 126.702934-81.373867 74.171733 47.650133v0.580267l-0.477867 0.273067-125.303466 81.885866z m-582.690134 0.3072L94.72 439.0912v-0.2048l75.229867-48.5376 126.088533 81.032533-75.946667 49.5616z m707.9936 81.476267l-115.882666-75.639467 115.882666-75.639466V602.4192zM94.754133 602.692267l-0.034133-151.2448 115.950933 75.639466L94.754133 602.692267z m416.5632 108.373333l-281.941333-184.046933 76.049067-49.595734 206.574933 132.744534 206.336-132.539734 75.1616 49.083734-282.180267 184.32z m4.539734 169.8816l0.443733-161.006933 286.6176-187.0848 125.166933 81.681066v1.4336L515.857067 880.9472zM506.7776 880.981333L94.242133 615.970133v-0.785066l0.512-0.341334 125.201067-81.681066 287.266133 187.392-0.443733 160.426666zM928.5632 437.3504l-412.842667-264.8064v161.450667l412.3648 268.6976 0.477867-165.341867z m-420.283733-2.901333L95.709867 165.307733l-1.4336 165.341867 413.218133 265.728 0.785067-161.928533z"  horiz-adv-x="1024" />
      
      <glyph glyph-name="onchainnew" unicode="&#59353;" d="M1174.46466 431.842969c0 25.462763 35.87167 56.161649 61.925608 59.29699 16.120082 1.95299 42.121237 0 56.868948-13.016413 14.758268-13.026969 16.943505-23.224742 16.943506-36.747876v-561.848742l255.377154 2.248577V420.515629c0 59.983175 12.393567 140.25633-83.609072 198.297072-121.845443 73.66466-266.408907 13.575918-307.506144-38.289155l7.32635 70.941031-261.964536-0.485608v-769.108454l254.638186 0.485609V431.842969z m1509.608247 463.449732v-314.769155c41.097237 51.865072 185.660701 111.953814 307.495588 38.289155 96.013196-58.040742 83.619629-138.313897 83.619629-198.297072v-538.740124l-255.366598-2.248577V441.37567c0 13.512577-2.195794 23.720907-16.954062 36.73732-14.758268 13.026969-40.748866 14.979959-56.868949 13.026969-26.053938-3.13534-61.925608-33.834227-61.925608-59.29699v-549.486845l-254.627629-0.485609-0.010556 0.665073-349.764619-3.441485h-6.30235c-278.316866 0-426.522392 159.321732-426.522392 506.72165C1646.845361 729.753072 1792.105567 889.349278 2065.049072 892.495175l8.318681 0.042227H2100.783505v-0.116124c69.674227-0.823423 138.577814-5.721732 206.742433-14.694927v-251.196702c-26.961814 3.029773-66.507216 5.816742-118.604536 8.382021a6686.086598 6686.086598 0 0 1-101.059299 4.286021h-3.694845l-2.026887 0.19002c-7.970309 0.263918-15.645031 0.485608-23.024165 0.686186C1962.269031 636.83299 1910.762887 557.636619 1910.762887 391.094103c0-158.266062 46.523381-236.786804 134.27068-246.94235l2.97699-0.316701-0.010557-0.823423 381.434722 0.010557V895.292701h254.638185z m1889.649485-463.439175c0 25.452206 35.87167 56.161649 61.925608 59.286433 16.120082 1.95299 42.121237 0 56.868948-13.016413 14.758268-13.026969 16.943505-23.224742 16.943506-36.747876v-561.848742l255.377154 2.248577V420.515629c0 59.983175 12.393567 140.25633-83.609072 198.297072-121.845443 73.66466-266.408907 13.575918-307.506144-38.289155l7.32635 70.941031-261.964536-0.485608v-769.108454l254.638186 0.485609V431.842969z m-1383.983505 193.747134c103.339546 14.219876 215.588948 17.904165 336.769319 11.042309 40.590515-1.752412 77.348948-4.560495 98.14565-8.909856 43.345814-9.025979 76.314392-26.180619 98.895175-51.442804 22.580784-25.272742 36.272825-60.035959 41.213361-104.194639 4.634392-41.667299 7.07299-104.859711 7.315794-189.651134v-188.162639l151.71035-0.010557v-211.13402H3495.429278c-74.78367-0.844536-127.883876-1.287918-159.300618-1.351258h-5.02499l-2.364701-0.010557c-39.091464 0-72.989031 3.905979-101.703258 11.559588-28.650887 7.653608-116.79934 41.382268-116.79934 181.923629 0 151.805361 66.296082 217.172454 124.516289 241.326185 55.496577 23.024165 152.174845 24.100948 161.116371 24.153732h92.244454v33.348619a38.004124 38.004124 0 0 0-0.063341 2.14301c0 21.715134-12.013526 36.146144-36.051134 43.282474a1025.667959 1025.667959 0 0 1-248.462515-12.583587z m307.886185-442.30466c-102.822268 7.326351-136.044206-24.312082-140.805278-66.369979-4.750515-42.04734 8.656495-86.438268 65.50433-92.371134 38.774763 0 63.868041 10.440577 75.300948 31.311175zM4231.558598 684.865979V896H3923.820206v-211.134021h307.727835z m0-801.675876V646.703505H3923.820206v-763.566185h307.727835v0.042226zM426.522392 892.526845C704.828701 892.537402 844.536082 733.236784 844.536082 385.815753c0-347.399918-139.707381-506.721649-418.01369-506.72165C148.205526-120.90589699999998 0 38.415835000000015 0 385.815753c0 347.421031 148.216082 506.721649 426.522392 506.721649z m2.565278-263.917525c-100.890392 0-154.613443-77.992907-154.613443-248.082475 0-170.07901 53.733608-248.082474 154.613443-248.082474 100.890392 0 151.530887 78.003464 151.530887 248.082474 0 170.089567-50.640495 248.082474-151.530887 248.082475z"  horiz-adv-x="4972" />
      
      <glyph glyph-name="front-typespectrum" unicode="&#59352;" d="M307.2 863.8976a256 256 0 0 0 255.7952-245.4016l221.9008-68.608A128 128 0 0 0 1024 486.2976a128 128 0 1 0-255.1808 14.6432l-209.4592 62.5664a255.5392 255.5392 0 0 0-77.824-143.0528l176.64-224.6656a160 160 0 1 0-41.0624-40.96L436.3776 386.816a254.8224 254.8224 0 0 0-144.9472-34.4576l-41.6768-141.8752a160.0512 160.0512 0 1 0-64.2048 13.3632l7.9872-0.2048 42.2912 138.24A256 256 0 0 0 307.2 863.9488z m441.6-697.856c-53.0432 0-102.2464-49.152-102.2464-102.144 0-52.992 49.2032-104.7552 102.2464-104.7552s102.0416 51.712 102.0416 104.7552c0 53.0432-48.9984 102.144-102.0416 102.144z m-563.2 0.6144c-53.0432 0-101.2736-49.7152-101.2736-102.7584 0-52.992 48.2304-103.424 101.2736-103.424s102.8096 50.432 102.8096 103.424c0 53.0432-49.7664 102.7584-102.8096 102.7584zM307.2 811.3664c-106.0352 0-205.0048-97.4336-205.0048-203.4688 0-105.984 98.9696-209.3568 205.0048-209.3568 106.0352 0 199.5776 103.3216 199.5776 209.408 0 105.984-93.5424 203.4176-199.5776 203.4176z m588.6976-254.464c-35.328 0-75.1104-35.2256-75.1104-70.6048 0-35.328 28.2112-77.2096 75.2128-77.2096s75.0592 41.8816 75.0592 77.2096c0 35.328-39.7824 70.5536-75.1616 70.5536z"  horiz-adv-x="1024" />
      
      <glyph glyph-name="front-recycle" unicode="&#59351;" d="M703.980802 895.89761v-153.584641h243.175682v-51.194881h-67.014098l-48.174383-819.118088h-665.533446l-48.174383 819.118088H51.246075v51.194881h243.175683v153.584641h409.559044z m124.864313-204.779522H169.506249l45.20508-767.923207h568.928707l45.205079 767.923207z m-483.228477 153.584642v-102.389761h307.169283v102.389761h-307.169283zM624.987101 325.381862l88.055195-146.212579h-158.652935v-22.064993l-57.082292 42.389361 57.082292 45.973002v-25.546245h86.621738l-51.809219 84.983502 35.785221 20.477952z m-227.202879 11.621238l9.215078-70.085792-16.638336 9.471053-32.611139-56.467953h116.109989l-0.255974-40.751125H281.623038l71.263273 118.362564-22.013798 12.440356 66.911709 27.030897z m99.522847 200.530347l85.649035-142.321768 22.013799 12.542746-12.542746-68.60114-66.553344 23.60084 20.887511 11.928407-51.041296 83.703629-64.607939-111.604839-36.194781 20.631537 102.389761 170.120588z"  horiz-adv-x="1024" />
      
      <glyph glyph-name="a-front-signinpassword" unicode="&#59350;" d="M499.2 896a192 192 0 0 0 192-192v-114.944h281.92V-128H51.2V589.056h256V704A192 192 0 0 0 487.936 895.68z m417.28-370.88H108.16v-586.816h808.32v586.88zM550.4 384v-320h-64V384h64zM503.168 834.944a128.192 128.192 0 0 1-128.192-128.192l-0.064-117.696h256.448V706.752l-0.32 9.6A128.192 128.192 0 0 1 503.168 834.88z"  horiz-adv-x="1024" />
      
      <glyph glyph-name="front-hand" unicode="&#59348;" d="M396.16 17.28v-93.056h371.072V17.28h46.08v-139.2h-463.36V17.28h46.144z m463.232 139.2v-139.2h-46.08v139.2h46.08z m-509.44-46.976v-92.16h-46.08v92.16h46.08z m-46.08 92.16v-92.16h-46.08v92.16h46.08z m601.6 278.72v-323.84h-46.08v323.84h46.08zM257.792 293.888v-92.16h-46.08v92.16h46.08zM349.952 849.92v-603.328h-46.08v140.8H257.28v46.08h46.592V849.92h46.08z m-138.24-507.648v-48.384h-46.08v48.384h46.08z m45.568 137.344v-46.08H165.632v-91.264h-46.08V479.616H257.28z m555.392 92.992v-46.08h-46.08v-139.52h-46.08v185.6h92.16zM488.576 849.92v-185.152h93.056v-46.08H488.576v-185.664h-46.08V849.92h46.08z m231.936-231.232v-46.08h-92.8v-139.584h-46.08V618.688h138.88z m138.88-92.16v-46.08h-46.72v46.08h46.72zM442.496 896v-46.08H350.08V896h92.48z"  horiz-adv-x="1024" />
      
      <glyph glyph-name="a-front-Processcancel" unicode="&#59347;" d="M960 832v-896H64V832h896z m-260.48-180.352L500.288 452.544 301.248 651.648l-56.896-56.896 199.104-199.104-199.104-199.104 56.896-56.896 199.104 199.168 199.104-199.168 56.896 56.896-199.168 199.104 199.168 199.104-56.896 56.896z"  horiz-adv-x="1024" />
      
      <glyph glyph-name="front-actioncancel1" unicode="&#59344;" d="M512 896a512 512 0 1 0 0-1024A512 512 0 0 0 512 896z m183.296-317.696L514.24 397.312 333.248 578.304l-45.248-45.312 180.992-180.928L288 170.88l45.248-45.248 180.992 181.056 181.056-181.056 45.248 45.312L559.552 352l180.992 180.928-45.248 45.312z"  horiz-adv-x="1024" />
      
      <glyph glyph-name="front-refuse1" unicode="&#59345;" d="M512 896a512 512 0 1 0 0-1024A512 512 0 0 0 512 896z m320-480H192v-64h640v64z"  horiz-adv-x="1024" />
      
      <glyph glyph-name="front-Submit1" unicode="&#59346;" d="M512 896a512 512 0 1 0 0-1024A512 512 0 0 0 512 896z m0-229.312L290.816 445.184l40.192-40.512L480 553.792V128h64V553.6l148.992-148.928 38.464 40.512L512 666.624z"  horiz-adv-x="1024" />
      
      <glyph glyph-name="front-PersonalCenter-user" unicode="&#59343;" d="M512 352c242.24 0 439.68-191.04 447.744-429.76l0.256-15.296V-128H64v34.944C64 152.70399999999995 264.576 352 512 352z m0.704-54.08C314.752 297.91999999999996 128 128.57600000000002 128-68.03200000000004h765.632c0 196.608-183.04 365.952-380.928 365.952zM512 896a272 272 0 1 0 0-544A272 272 0 0 0 512 896z m0.704-61.824c-138.24 0-213.952-100.736-213.952-217.152 0-116.48 107.904-209.088 213.952-209.088s211.712 91.52 211.712 209.088S650.944 834.176 512.704 834.176z"  horiz-adv-x="1024" />
      
      <glyph glyph-name="a-front-Batchchange" unicode="&#59342;" d="M128 768h128V896h392v-56h-336v-784h560v560h56V0H832v-128H128V768z m463.232-76.544l18.048-10.688 104.128-59.968 0.192 0.128 46.912-24.64-169.28-311.232-67.328-26.368L704 224l-60.48-57.344 116.992-16.256-19.84-43.008-184.96 29.056 63.104 59.904-183.296 27.648-21.76 159.744 177.472 307.712z m-28.8-158.912L462.336 355.84l7.424-73.152 1.408 2.432 71.552 27.968 97.152 175.168-77.312 44.352z m50.816 89.6l-25.6-45.248 77.056-43.968 24.96 45.248-76.416 43.904zM816 896v-112h112v-56h-112v-112h-56v112h-112V784h112V896h56zM192-64h576v64H256V704H192v-768z"  horiz-adv-x="1024" />
      
      <glyph glyph-name="a-front-productcomparison" unicode="&#59339;" d="M486.4 281.6h51.2V128h128v-256H371.2v256h115.2V281.6z m127.936-204.8H422.4v-153.6h191.936v153.6zM294.4 128v-256H0v256h128V281.6h51.2V128h115.2z m-51.264-204.8v153.6H51.2v-153.6h191.936zM819.2 896v-358.4H768v0.064H255.936L256 537.6h-51.2V896h614.4zM768 588.864V844.8H255.936v-255.936H768zM537.6 537.6l-0.064-204.736L902.4 332.8v-51.2H128v51.2l358.336 0.064L486.4 537.6h51.2zM1024 128v-51.2h-0.064v-153.6H1024v-51.2h-294.4v256h121.6V281.6h51.2V128H1024z m-51.264-204.8v153.6H780.8v-153.6h191.936z"  horiz-adv-x="1024" />
      
      <glyph glyph-name="front-PersonalCenter-control" unicode="&#59340;" d="M1024-32v-64H0v64h1024z m0 896v-768H0V864h1024z m-64-64H64v-640h896v640z m-640-320v-64h512v-64H320v-64H256v64H192v64h64v64h64z m448 256v-64h64v-64h-64v-64h-64v64H192v64h512v64h64z"  horiz-adv-x="1024" />
      
      <glyph glyph-name="front-PersonalCenter-quit" unicode="&#59341;" d="M992 352a480 480 0 1 0-576 470.4v-65.536a416 416 0 1 1 192 0V822.4c219.136-44.48 384-238.208 384-470.4zM544 896v-576h-64V896h64z"  horiz-adv-x="1024" />
      
      <glyph glyph-name="front-refuse" unicode="&#59338;" d="M512 896a512 512 0 1 0 0-1024A512 512 0 0 0 512 896z m320-480H192v-64h640v64z"  horiz-adv-x="1024" />
      
      <glyph glyph-name="a-front-actioncancel" unicode="&#59133;" d="M512 896a512 512 0 1 0 0-1024A512 512 0 0 0 512 896z m183.296-317.696L514.24 397.312 333.248 578.304l-45.248-45.312 180.992-180.928L288 170.88l45.248-45.248 180.992 181.056 181.056-181.056 45.248 45.312L559.552 352l180.992 180.928-45.248 45.312z"  horiz-adv-x="1024" />
      
      <glyph glyph-name="front-Submit" unicode="&#59337;" d="M512 896a512 512 0 1 0 0-1024A512 512 0 0 0 512 896z m0-237.888L294.784 440.896l36.224-36.224L480 553.792V128h64V553.6l148.992-148.928 36.224 36.224L512 658.112z"  horiz-adv-x="1024" />
      
      <glyph glyph-name="front-Processcancel" unicode="&#59336;" d="M960 832v-896H64V832h896z m-260.48-180.352L500.288 452.544 301.248 651.648l-56.896-56.896 199.104-199.104-199.104-199.104 56.896-56.896 199.104 199.168 199.104-199.168 56.896 56.896-199.168 199.104 199.168 199.104-56.896 56.896z"  horiz-adv-x="1024" />
      
      <glyph glyph-name="front-Processrelease" unicode="&#59332;" d="M960 832v-896H64V832h896z m-196.16-230.784L429.44 266.496 262.72 433.28l-55.872-55.872 198.784-198.72 24.512-25.408 391.168 391.04-57.472 56.96z"  horiz-adv-x="1024" />
      
      <glyph glyph-name="front-Processstart" unicode="&#59335;" d="M960 832v-896H64V832h896zM384 640v-512l384 256-384 256z"  horiz-adv-x="1024" />
      
      <glyph glyph-name="front-Endofprocess" unicode="&#59333;" d="M960 832v-896H64V832h896z m-256-256H320v-384h384V576z"  horiz-adv-x="1024" />
      
      <glyph glyph-name="front-Inprocess" unicode="&#59334;" d="M32 800h793.728l188.16-408.448-188.16-408.384H32l194.752 417.152z"  horiz-adv-x="1024" />
      
      <glyph glyph-name="front-Addapprover" unicode="&#59331;" d="M512 352c25.28 0 50.112-2.112 74.24-6.08-70.4-60.16-112.768-147.84-104.384-249.92 8.96-110.08 97.792-195.008 160.384-224h0.128H64v34.944C64 152.70399999999995 264.576 352 512 352z m256 32a256 256 0 1 0 0-512 256 256 0 0 0 0 512z m32-64h-64v-160H576v-64h160V-64h64v160H960v64h-160V320zM512 896a272 272 0 1 0 0-544A272 272 0 0 0 512 896z"  horiz-adv-x="1024" />
      
      <glyph glyph-name="front-advancedsetting" unicode="&#59330;" d="M512 572.3136A188.0064 188.0064 0 0 1 324.096 384.512 188.0064 188.0064 0 0 1 512 196.71040000000005a188.0064 188.0064 0 0 1 187.8016 187.8016A188.0064 188.0064 0 0 1 512 572.3136zM672.2048 883.2v-153.3952c20.5824-9.472 40.2432-20.7872 58.7264-33.8432l132.7104 76.6464L1024 495.1552l-132.7616-76.7488c2.4576-24.0128 2.304-48.2304-0.4608-72.192l131.8912-78.1824-163.328-275.6608-131.9936 78.2336c-17.408-12.032-35.84-22.528-55.04-31.488v-153.344h-320.512v153.344a374.272 374.272 0 0 0-58.7776 33.8944L160.256-3.737600000000043 0 273.7664l132.7616 76.8a336.64 336.64 0 0 0 0.4608 72.192L1.28 500.9408l163.3792 275.6608L296.6528 698.3679999999999a376.4224 376.4224 0 0 0 55.0912 31.4368V883.2h320.4608z m-64.6656-64.6656H416.4608v-131.9936l-20.48-8.0896a314.7264 314.7264 0 0 1-77.568-44.3392l-17.408-13.568-113.664 67.3792-97.3824-164.352 113.5616-67.2768-3.3792-21.6576c-2.9696-18.944-4.4032-34.9184-4.4032-50.176 0.1536-15.5648 1.4336-31.0784 3.8912-46.4384l3.2256-21.76-114.4832-66.1504 95.5392-165.376 114.3296 66.048 17.2544-13.824a314.368 314.368 0 0 1 80.4352-46.4384l20.48-8.1408v-131.8912h191.1296V82.43200000000002l20.48 8.0896a312.8832 312.8832 0 0 1 77.568 44.3392l17.3568 13.5168 113.664-67.328 97.4336 164.352-113.664 67.328 3.4816 21.7088a315.904 315.904 0 0 1 4.4032 50.0736c0 14.08-1.28 28.8256-3.8912 46.4896l-3.2256 21.7088 114.4832 66.1504-95.5392 165.4272-114.3296-66.048-17.2544 13.7728a315.7504 315.7504 0 0 1-80.4864 46.4384l-20.48 8.1408V818.5344zM512 507.5968a123.2896 123.2896 0 0 0 123.0848-123.0848A123.2896 123.2896 0 0 0 512 261.376 123.2896 123.2896 0 0 0 388.864 384.512 123.2384 123.2384 0 0 0 512 507.5968z"  horiz-adv-x="1024" />
      
      <glyph glyph-name="front-pop-upconfirm" unicode="&#59329;" d="M80.749714 407.771429l284.379429-284.379429 543.085714 543.012571 51.712-51.712-594.724571-594.797714L28.964571 356.059429z"  horiz-adv-x="1024" />
      
      <glyph glyph-name="a-front-pageup" unicode="&#59326;" d="M735.232 269.248L512 484.288l-223.232-215.04a39.744 39.744 0 0 0-53.952 0 37.76 37.76 0 0 0 0 52.864L483.2 565.44A41.344 41.344 0 0 0 512 576c10.816 0 17.984-3.52 28.8-10.56l248.384-243.328a37.76 37.76 0 0 0 0-52.864 34.176 34.176 0 0 0-54.016 0zM512 896a512 512 0 1 0 0-1024A512 512 0 0 0 512 896z m0-64a448 448 0 1 1 0-896A448 448 0 0 1 512 832z"  horiz-adv-x="1024" />
      
      <glyph glyph-name="a-front-pagedown" unicode="&#59327;" d="M288.832 498.752L512 283.712l223.232 215.04a39.744 39.744 0 0 0 53.952 0 37.76 37.76 0 0 0 0-52.864L540.8 202.56A41.344 41.344 0 0 0 512 192c-10.816 0-17.984 3.52-28.8 10.56L234.816 445.888a37.76 37.76 0 0 0 0 52.864 34.176 34.176 0 0 0 54.016 0zM512 896a512 512 0 1 0 0-1024A512 512 0 0 0 512 896z m0-64a448 448 0 1 1 0-896A448 448 0 0 1 512 832z"  horiz-adv-x="1024" />
      
      <glyph glyph-name="front-fixed" unicode="&#59313;" d="M76.8 173.76v64L401.664 416v-64l-271.808-149.056 381.248-250.432 383.36 251.84L629.632 352v61.824l315.776-176v-64l-434.304-285.312L76.8 173.76zM511.104 864l96-256h-64v-512h-64v512h-64l96 256z"  horiz-adv-x="1024" />
      
      <glyph glyph-name="a-front-fitscreen" unicode="&#59314;" d="M1011.2 876.8v-992H19.2V876.8h992z m-64-64H83.2v-864h864V812.8z m-64-544v-256h-256v64h192v192h64z m-672 0l-0.064-192H403.2v-64h-256v256h64z m672 480v-256h-64v192h-192v64h256z m-480 0v-64h-192v-192h-64v256h256z"  horiz-adv-x="1024" />
      
      <glyph glyph-name="front-download" unicode="&#59315;" d="M102.4 360.8576v-386.1504h819.2v386.1504h51.2V-76.8H51.2v437.6576h51.2z m409.7536-165.0688l271.5648 273.0496-36.2496 36.4032-209.8688-210.9952V844.8h-51.2v-550.3488L276.8384 505.2416l-36.1984-36.352 271.5136-273.1008z"  horiz-adv-x="1024" />
      
      <glyph glyph-name="front-cursor" unicode="&#59316;" d="M512 896l416-862.336-332.8 93.376V-128H428.8l-0.064 254.976L96 33.664 512 896z m0-149.888L198.4 114.56l285.888 88.192v-276.8h55.424V208.64l283.456-94.08L512 746.048z"  horiz-adv-x="1024" />
      
      <glyph glyph-name="front-measure" unicode="&#59317;" d="M12.8-103.36V278.144h992v-76.288h-0.064v-228.928h0.064v-76.288H12.8z m76.288 76.288h839.36v228.928h-89.6v-128h-64v128h-136.96v-128h-64v128h-128v-128h-64v128h-128v-128h-64v128H89.088v-228.928z m0 662.144H12.8V864h76.288v-76.288h839.36V864H1004.8l-0.064-76.288h0.064v-76.352l-0.064 0.064 0.064-76.352h-76.288l-0.064 76.352H89.088v-76.352z"  horiz-adv-x="1024" />
      
      <glyph glyph-name="front-favorites" unicode="&#59318;" d="M511.3856 880.64l153.2416-326.5536L1007.36 501.76l-248.0128-254.1568 58.5728-358.912-306.5344 169.472L204.8-111.36l58.5728 358.912L15.36 501.7088l342.7328 52.3776L511.3856 880.64zM512 748.544L387.584 496.4864l-262.9632-31.5904 199.68-200.0384-48.9472-264.4992 236.6464 133.12 231.2704-141.824-43.008 277.4016 184.32 188.3136-267.4176 31.3344L512 748.4928z"  horiz-adv-x="1024" />
      
      <glyph glyph-name="a-front-upsidedown" unicode="&#59319;" d="M736 832h64v-640h64L768-64l-96 256h64V832zM128 576l96 256L320 576H256v-640H192V576H128z"  horiz-adv-x="1024" />
      
      <glyph glyph-name="front-fullscreen" unicode="&#59320;" d="M1004.8 883.2v-992H12.8V883.2h992z m-64-64H76.8v-864h864V819.2z m-96-64v-256h-64V646.528L280.256 83.2H428.8v-64h-256v256h64v-144.704L735.04 691.2H588.8v64h256z"  horiz-adv-x="1024" />
      
      <glyph glyph-name="front-flip" unicode="&#59321;" d="M396.864 85.952h409.344V501.056H396.8v-415.104zM89.984 435.2l89.984-157.76h-63.04c32.704-163.84 159.68-290.752 324.224-320.512 23.424-4.288 47.488-6.592 70.848-6.592v-52.352c-26.752 0-53.44 2.688-80 7.232-188.8 34.112-334.016 182.4-367.36 371.968H0L89.984 435.2z m664.512 13.44v-310.336H448.32v310.4h306.176zM627.392 682.24v-156.16h-51.712V629.888H269.504v-310.336h95.488v-52.16h-147.2V682.304h409.6zM512 876.8c26.752 0 53.44-2.496 80-7.232 189.056-34.304 334.016-182.4 367.36-371.968v0.192H1024L934.016 339.84l-89.984 157.952h63.04c-32.704 163.648-159.68 290.752-324.224 320.576A393.472 393.472 0 0 1 512 824.64z"  horiz-adv-x="1024" />
      
      <glyph glyph-name="front-Z-axis" unicode="&#59322;" d="M389.632 864l102.208-196.736H423.68V273.92l374.656 0.064V339.456l204.416-98.368-204.416-98.368v65.6H406.784l-166.016-165.312 46.72-44.928-235.072-89.92 90.56 228.992 49.216-47.424 163.328 161.92V667.264H287.488L389.632 864zM270.4 552.576v-65.6L125.12 355.84h145.28v-65.536H32V355.84l147.776 131.2H32V552.512h238.4z"  horiz-adv-x="1024" />
      
      <glyph glyph-name="front-snapshot" unicode="&#59323;" d="M343.488 768l132.224-66.752H1004.8v-692.224H12.8V635.136l132.288 132.288h198.4V768z m0-66.752l-175.424 0.064-89.152-86.208v-539.904h859.712V635.136H475.776L343.488 701.248zM508.8 569.024a198.4 198.4 0 1 0 0-396.8 198.4 198.4 0 0 0 0 396.8z m0-66.176a132.288 132.288 0 1 1 0-264.512 132.288 132.288 0 0 1 0 264.512zM277.312 635.136v-66.112H211.2V635.136h66.112z"  horiz-adv-x="1024" />
      
      <glyph glyph-name="front-thumbnail" unicode="&#59324;" d="M74.24 394.24c129.8944-172.7488 277.9648-259.072 444.16-259.072 166.1952 0 312.2688 86.6816 438.272 260.096l-0.2048-0.1536-11.6224 15.7184c-123.4432 163.3792-265.6256 245.0944-426.4448 245.0944-166.1952 0-314.88-87.2448-446.1056-261.6832z m444.16 209.92a204.1344 204.1344 0 1 0 0-408.32 204.1344 204.1344 0 0 0 0 408.32zM512 552.2944c-80.5376 0-142.7456-69.4784-142.7456-150.016 0-80.5376 68.608-156.3648 149.1456-156.3648 80.5376 0 153.088 75.776 153.088 156.3648 0 80.5376-78.9504 150.016-159.488 150.016z m6.4 162.2016c179.2 0 343.3984-100.7616 492.4928-302.2336L1024 394.24c-152.576-210.432-321.0752-315.6992-505.6-315.6992S161.0752 183.7568 0 394.24c161.0752 213.504 333.8752 320.256 518.4 320.256z"  horiz-adv-x="1024" />
      
      <glyph glyph-name="front-hide" unicode="&#59325;" d="M920.832 829.0304l36.1984-36.1984-164.4544-164.4544c76.032-50.176 148.7872-122.1632 218.3168-216.064L1024 394.24c-152.576-210.432-321.0752-315.6992-505.6-315.6992-76.032 0-150.0672 17.8688-222.1056 53.6064l-171.9296-172.032-36.1984 36.2496 161.536 161.536C163.5328 210.5344 80.3328 289.28 0 394.24c161.0752 213.504 333.8752 320.256 518.4 320.256 79.2064 0 155.4944-19.712 228.864-59.0336l173.568 173.568z m-166.912-239.2576l-70.0928-70.144a204.1344 204.1344 0 0 0-285.0816-285.0816l-61.952-61.952a454.4 454.4 0 0 1 181.6064-37.4784c166.1952 0 312.2688 86.7328 438.272 260.1472l-0.2048-0.2048-11.6224 15.7696c-59.3408 78.5408-122.9312 138.1376-190.8736 178.944z m-235.52 66.1504c-166.1952 0-314.88-87.2448-446.1056-261.6832h1.9456c66.6112-88.576 138.0352-154.4704 214.2208-197.632l72.9088 72.9088a204.1344 204.1344 0 0 0 287.488 287.5392L706.56 614.8096a445.3376 445.3376 0 0 1-188.16 41.1136z m126.8736-174.8992L437.248 273.1008c23.552-16.896 51.5072-27.136 81.1008-27.136 80.5376 0 153.088 75.776 153.088 156.3136 0 28.4672-9.8816 55.6032-26.2144 78.7456zM512 552.2944c-80.5376 0-142.7456-69.4784-142.7456-150.016 0-33.5872 11.9296-66.3552 31.6928-93.1328l208.6912 208.64c-28.0576 21.4016-62.6688 34.5088-97.6384 34.5088z"  horiz-adv-x="1024" />
      
      <glyph glyph-name="front-helpmini" unicode="&#59312;" d="M512 896a512 512 0 1 0 0-1024A512 512 0 0 0 512 896z m0-66.9696C257.536 829.0304 67.7888 638.5663999999999 67.7888 384 67.7888 129.53599999999994 257.536-64.51199999999994 512-64.51199999999994c254.464 0 443.1872 192.2048 443.1872 446.6688C955.1872 636.7232 766.464 829.0304 512 829.0304zM509.44 179.20000000000005a38.4 38.4 0 1 0 0-76.8 38.4 38.4 0 0 0 0 76.8z m14.2336 486.4c122.5728 0 184.32-111.0016 142.0288-203.776a252.7232 252.7232 0 0 0-51.4048-66.2528l-29.3888-28.5696-7.2704-7.4752-7.0656-7.68c-30.5152-32.5632-38.4-50.8928-39.3216-89.9072l-0.1024-9.4208h-51.2c0 54.272 9.6256 84.992 44.8512 125.1328l15.6672 17.1008 18.432 18.432 10.5472 10.0352c26.4192 25.2928 38.912 40.0384 50.3808 61.2352 26.7264 58.88-12.8 129.9456-96.1536 129.9456-79.0528 0-119.0912-36.7616-126.1568-117.8624l-0.8192-10.4448-50.9952 2.6624c5.9392 114.9952 67.6864 176.8448 177.9712 176.8448z"  horiz-adv-x="1024" />
      
      <glyph glyph-name="front-Authorizationtransfer" unicode="&#59309;" d="M51.2 125.08159999999998V796.3136l1.9456 0.0512L427.2128 896l378.5216-99.6352v-330.0864h-47.104l-0.0512 293.2224L427.6736 845.8752 98.3552 757.0944v-613.632l330.0352-218.4192 126.5664 76.8512 29.5424-28.16L428.3392-128l-377.088 253.0816z m924.672 10.9568v-47.9744h-277.6064l59.392-59.4432-33.9456-33.9456-141.2096 141.3632h393.4208zM428.544 702.0544a141.4656 141.4656 0 0 0 23.552-280.9856v-100.3008h70.7584v-47.2064l-70.7584 0.0512v-101.888h-47.104l-0.0512 249.344a141.5168 141.5168 0 0 0 23.6032 280.9856z m406.272-321.5872l141.2096-141.3632h-393.4208v47.9744h277.7088l-59.392 59.4432 33.8944 33.9456zM428.4928 654.848a94.3104 94.3104 0 1 1 0-188.6208 94.3104 94.3104 0 0 1 0 188.6208z"  horiz-adv-x="1024" />
      
      <glyph glyph-name="front-unlock" unicode="&#59310;" d="M665.6 691.2a153.6 153.6 0 0 1-301.1072 42.9568l-47.104 20.992A204.9024 204.9024 0 0 0 716.8 691.2v-102.4h256v-716.8H51.2V588.8h614.4V691.2z m256-153.6H102.4v-614.4h819.2V537.6z m-384-153.6v-307.2h-51.2v307.2h51.2z"  horiz-adv-x="1024" />
      
      <glyph glyph-name="front-resetpassword" unicode="&#59311;" d="M511.999744 896c282.777459 0 511.999744-229.222285 511.999744-511.999744 0-102.604749-30.207985-198.143901-82.124759-278.271861l-6.809597-16.383992-95.129552 268.134266 124.415938-61.644769a460.79977 460.79977 0 1 1-165.785517-272.691064l36.454381-36.403181A509.900545 509.900545 0 0 0 511.999744-127.99948800000004C229.222285-127.99948800000004 0 101.22279700000001 0 384.000256S229.222285 896 511.999744 896z m0-204.799898a153.599923 153.599923 0 0 0 153.599923-153.599923v-51.199974h102.399949v-358.399821H255.999872V486.400205h102.399949V537.600179a153.599923 153.599923 0 0 0 153.599923 153.599923z m204.799898-255.999872H307.199846v-255.999872h409.599796V435.20023z m-204.799898 204.799898a102.399949 102.399949 0 0 1-102.399949-102.399949v-51.199974h204.799898V537.600179a102.399949 102.399949 0 0 1-94.719953 102.143949z"  horiz-adv-x="1024" />
      
      <glyph glyph-name="front-showall1" unicode="&#59308;" d="M512 896a512 512 0 1 0 0-1024A512 512 0 0 0 512 896z m0-85.333333a426.666667 426.666667 0 1 1 0-853.333334A426.666667 426.666667 0 0 1 512 810.666667z"  horiz-adv-x="1024" />
      
      <glyph glyph-name="front-fileopen" unicode="&#59307;" d="M896 768v-192h128l-160-640H0V832h256l192-64h448z m48-256H236.8l-153.6-512h732.8l128 512zM64 149.312L192 576h640V704H448L256 768H64v-618.688z"  horiz-adv-x="1024" />
      
      <glyph glyph-name="front-switch" unicode="&#59305;" d="M512 384m0-512a512 512 0 1 1 0 1024 512 512 0 1 1 0-1024ZM256 487.36L441.728 640l30.912-37.632-150.4-115.008H768v-50.688H256v50.688z m0-189.312h512v-50.688L575.872 128l-22.72 42.24 129.728 77.12H256v50.688z"  horiz-adv-x="1024" />
      
      <glyph glyph-name="front-add1" unicode="&#59306;" d="M512 384m-512 0a512 512 0 1 1 1024 0 512 512 0 1 1-1024 0ZM546.304 640v-255.936l256-0.064v-64l-256 0.064V64h-64V320.064l-256-0.064V384l256 0.064V640h64z"  horiz-adv-x="1024" />
      
      <glyph glyph-name="front-emoji" unicode="&#59304;" d="M284.48 496.288a14 14 0 0 1 14 14 51.816 51.816 0 1 0 103.632 0 14 14 0 0 1 28 0 79.816 79.816 0 1 1-159.632 0 14 14 0 0 1 14-14zM607.888 496.288a14 14 0 0 1 14 14 51.816 51.816 0 1 0 103.632 0 14 14 0 0 1 28 0 79.816 79.816 0 1 1-159.632 0 14 14 0 0 1 14-14zM512 858a478.904 478.904 0 1 1 478.904-478.904A479.448 479.448 0 0 1 512 858z m0-929.816a450.904 450.904 0 1 0 450.904 450.904A451.416 451.416 0 0 0 512-71.816zM904.352 301.6a94.536 94.536 0 0 1-42.264 25.048c-0.12 0-0.216 0.088-0.336 0.12h-0.208a115.912 115.912 0 0 1-48.456 4.128 14 14 0 1 1 4.584-27.624 80.256 80.256 0 0 0 23.264-0.504 342.616 342.616 0 0 0-328.856-244.8h-1.12a342.616 342.616 0 0 0-328.8 244.656 81.288 81.288 0 0 0 24.184 0.648 14 14 0 1 1 4.584 27.624 115.544 115.544 0 0 1-47.36-3.816 12.248 12.248 0 0 1-5.736-1.8 92.608 92.608 0 0 1-38.184-23.68 14 14 0 1 1 20.464-19.112 58.168 58.168 0 0 0 15.392 11.528 370.592 370.592 0 0 1 355.456-264h1.12a370.6 370.6 0 0 1 355.6 264.472 58.704 58.704 0 0 0 16.208-12 14 14 0 0 1 20.464 19.112z"  horiz-adv-x="1024" />
      
      <glyph glyph-name="a-front-Versioncomparison" unicode="&#59303;" d="M537.6 537.6v-204.8h332.8V128H1024v-256h-358.4v256h153.6V281.6H204.8V128h153.6v-51.2h-0.064v-153.6H358.4v-51.2H0v256h153.6V332.8h332.8V537.6h51.2z m435.2-460.8h-256v-153.6h256v153.6z m-665.664 0H51.2v-153.6h255.936v153.6zM819.2 537.6H768v0.064H256V537.6h-51.2v0.064-0.064V896h614.4v-358.4zM768 844.8H256v-255.936h512V844.8z"  horiz-adv-x="1024" />
      
      <glyph glyph-name="front-top-ec1" unicode="&#59298;" d="M640 896l256-256v-768H128V896h512z m-26.56-64H192v-896h640V613.44L613.44 832z m-4.032-223.104a224 224 0 0 0 52.672-233.6l151.04-151.04-135.808-135.744-151.04 151.04a224 224 0 0 0-272.32 317.568l129.216-129.28 67.84 22.656L473.6 518.4 344.512 647.68a224.128 224.128 0 0 0 264.96-38.784zM458.24 616.768h-1.536l82.88-82.816-43.072-129.024-128.96-42.88L284.8 444.8v-1.472a166.4 166.4 0 0 1 210.88-153.216l11.392 3.584 34.24 12.16 136-135.936 54.336 54.272L595.648 360.32l12.16 34.304A166.4 166.4 0 0 1 458.24 616.768z"  horiz-adv-x="1024" />
      
      <glyph glyph-name="front-top-eco1" unicode="&#59299;" d="M640 896l256-256v-768H128V896h512z m-26.56-64H192v-896h640V613.44L613.44 832zM425.6 643.2l332.8-249.6-332.8-249.6v499.2z m-76.8-35.2v-448h-57.6v448h57.6z m134.4-80v-268.8l179.2 134.4-179.2 134.4z"  horiz-adv-x="1024" />
      
      <glyph glyph-name="front-top-ecr1" unicode="&#59301;" d="M640 896l256-256v-768H128V896h512z m-26.56-64H192v-896h640V613.44L613.44 832zM512 192a48 48 0 1 0 0-96 48 48 0 0 0 0 96z m10.624 480c118.016 0 177.92-107.712 136.832-198.144-12.416-23.04-24.96-39.04-45.824-59.904l-29.184-28.288-6.464-6.656-6.336-6.912c-25.728-27.52-32.384-42.112-33.344-74.176l-0.128-10.176h-64c0 50.688 9.152 80.512 41.6 117.952l15.744 17.28 17.792 17.792 8.896 8.512c23.424 22.4 34.304 35.2 43.904 52.928 21.76 48-10.304 105.792-79.488 105.792-66.688 0-99.328-29.376-105.856-97.28l-0.832-11.072-63.872 3.392C357.76 612.096 417.664 672 522.624 672z"  horiz-adv-x="1024" />
      
      <glyph glyph-name="front-top-sup1" unicode="&#59302;" d="M192-64a128 128 0 0 0-128 128H0V448l160 192H320V832h704v-768h-128a128 128 0 1 0-256 0H320a128 128 0 0 0-128-128z m0 192a64 64 0 1 1 0-128 64 64 0 0 1 0 128z m576 0a64 64 0 1 1 0-128 64 64 0 0 1 0 128zM64 128h17.152a128 128 0 0 0 221.696 0H320V384H64v-256zM960 768H384v-640h273.152a128 128 0 0 0 221.696 0H960V768zM320 576H189.952L83.264 448H320V576z"  horiz-adv-x="1024" />
      
      <glyph glyph-name="front-saveas" unicode="&#59294;" d="M760.896 832L960 632.896V-64H64V832h696.896zM288 768H128v-768h96V384h576v-384H896V606.336l-160 160V512h-448V768z m448-448h-448v-320h448V320z m-64 448h-320v-192h320V768z m-64-32v-128h-64v128h64z"  horiz-adv-x="1024" />
      
      <glyph glyph-name="front-cancel" unicode="&#59295;" d="M749.312 799.616a480 480 0 1 0-696.768-563.2l-5.632 18.816 61.632 17.152a416 416 0 1 1 54.912 342.72l184.448 22.592 7.808-63.488-285.888-35.136L34.752 824.96l63.552 7.808 20.8-169.28a480 480 0 0 0 630.208 136.128z"  horiz-adv-x="1024" />
      
      <glyph glyph-name="front-viewmodification" unicode="&#59296;" d="M742.144 742.144a416 416 0 0 0 21.76-564.8l227.2-227.2-45.312-45.184-227.136 227.072a416 416 0 1 0 23.488 610.112z m-543.04-45.248a352 352 0 0 1 496.32-499.2l2.88 2.88 9.728 10.176a352 352 0 0 1-508.928 486.144z m345.984-112.64L474.624 363.648 684.8 442.432l22.464-59.904L373.504 257.28l73.92 231.36-240.448-70.912-18.112 61.44 356.224 105.024z"  horiz-adv-x="1024" />
      
      <glyph glyph-name="a-front-Createchangeorder" unicode="&#59291;" d="M576 896v-64H192v-896h640V576h64v-704H128V896h448zM384 576v-448H320V576h64z m64 0.256l277.376-224.128L448 128V576.256z m64-128v-192l118.784 96L512 448.256zM768 896v-128h128v-64h-128v-128h-64V704H576V768h128V896h64z"  horiz-adv-x="1024" />
      
      <glyph glyph-name="front-Addchanges" unicode="&#59292;" d="M576 896v-64H192v-896h640V576h64v-704H128V896h448zM511.104 662.2719999999999l20.608-12.288 119.04-68.48 0.192 0.128 53.632-28.16-193.472-355.712-76.928-30.144L640 128l-69.12-65.536 133.696-18.56-22.656-49.152-211.328 33.152 72.064 68.48L333.184 128l-24.896 182.592 202.816 351.68zM478.272 480.64l-114.56-202.048 8.512-83.584 1.6 2.752 81.792 32 111.04 200.192-88.384 50.688z m57.984 102.336l-29.248-51.648 88.064-50.24 28.608 51.648-87.424 50.24zM768 896v-128h128v-64h-128v-128h-64V704H576V768h128V896h64z"  horiz-adv-x="1024" />
      
      <glyph glyph-name="a-front-Createchangerequest" unicode="&#59293;" d="M576 896v-64H192v-896h640V576h64v-704H128V896h448zM470.4 140.8a48 48 0 1 0 0-96 48 48 0 0 0 0 96zM480 576A160 160 0 0 0 640 416c0-52.48-50.944-105.6-76.416-115.008l2.432 1.984c-23.424-19.904-64.896-39.04-64.896-111.168H436.864c1.088 43.776 16.64 92.992 43.136 111.168C544 346.048 576 383.68 576 416l-0.448 9.216A96 96 0 0 1 384 416H320A160 160 0 0 0 480 576zM768 896v-128h128v-64h-128v-128h-64V704H576V768h128V896h64z"  horiz-adv-x="1024" />
      
      <glyph glyph-name="front-role" unicode="&#59290;" d="M495.36 334.016c121.216 0 219.52 98.944 219.52 220.992 0 122.048-98.304 220.992-219.52 220.992-121.344 0-219.712-98.944-219.712-220.992 0-122.048 98.368-220.992 219.648-220.992z m361.664-390.016v28.416c0 199.68-161.92 361.6-361.728 361.6a361.664 361.664 0 0 1-361.728-361.6v-28.416M674.624 338.944a306.048 306.048 0 0 0 306.112-305.92v-24.064l-111.36 0.064v6.4l-0.32 15.616a361.536 361.536 0 0 1-199.68 307.84z m18.944 373.056a186.56 186.56 0 0 0 166.912-186.048 186.432 186.432 0 0 0-191.744-186.88l-0.256 0.256-13.376 6.272a280.064 280.064 0 0 1 89.088 205.376c0 59.136-18.24 113.92-49.28 159.168zM298.88 338.496c-160.448 0-291.392-129.664-298.56-292.352L0 32v-24h108.8l-0.128 6.4 0.384 15.68c5.568 135.04 83.392 250.944 194.88 308.224L298.88 338.56zM117.504 525.76c0-103.424 81.28-187.264 181.504-187.264l5.568 0.192c4.48 2.24 8.96 4.48 13.44 6.528A283.776 283.776 0 0 0 231.04 550.784c0 60.032 18.304 115.584 49.408 161.216-91.52-9.536-162.944-89.28-162.944-186.24z"  horiz-adv-x="1024" />
      
      <glyph glyph-name="front-top-eco" unicode="&#59053;" d="M640 896l256-256v-768H128V896h512z m-26.56-64H192v-896h640V613.44L613.44 832zM425.6 643.2l332.8-249.6-332.8-249.6v499.2z m-76.8-35.2v-448h-57.6v448h57.6z m134.4-80v-268.8l179.2 134.4-179.2 134.4z"  horiz-adv-x="1024" />
      
      <glyph glyph-name="front-top-pr" unicode="&#59114;" d="M640 896l256-256v-768H128V896h512z m-26.56-64H192v-896h640V613.44L613.44 832zM512 192a48 48 0 1 0 0-96 48 48 0 0 0 0 96z m32 448v-320h-64V640h64z"  horiz-adv-x="1024" />
      
      <glyph glyph-name="front-top-ap1" unicode="&#59116;" d="M640 896l256-256v-768H128V896h512z m-26.56-64H192v-896h640V613.44L613.44 832zM352 188.8v-57.6h-64v57.6h64z m384 0v-57.6h-320v57.6h320z m-384 192v-57.6h-64v57.6h64z m384 0v-57.6h-320v57.6h320z m-384 192v-57.6h-64v57.6h64z m384 0v-57.6h-320v57.6h320z"  horiz-adv-x="1024" />
      
      <glyph glyph-name="front-top-sup" unicode="&#59117;" d="M1024 832v-768h-128a128 128 0 1 0-256 0H320a128 128 0 1 0-256 0H0V448l160 192H320V832h704z m-256-704a64 64 0 1 1 0-128 64 64 0 0 1 0 128z m-576 0a64 64 0 1 1 0-128 64 64 0 0 1 0 128z m128 256H64v-256h17.152a128 128 0 0 0 221.696 0H320V384z m640 384H384v-640h273.152a128 128 0 0 0 221.696 0H960V768z m-128-448v-64H512V320h320z m0 160v-64H512v64h320zM320 576H189.952L83.264 448H320V576z m512 64v-64H512V640h320z"  horiz-adv-x="1024" />
      
      <glyph glyph-name="front-top-manufacture1" unicode="&#59287;" d="M96 864l-64-960h960v576l-287.936-121.216L704 480 386.496 346.368 352 864h-256z m832-480.32V-32h-223.936V289.408L928 383.68z m-288 0l0.064-51.84H640V-32H412.032l-19.904 311.36L640 383.68zM140.992 576h166.08l40.576-608H100.416L140.992 576zM806.4 224v-128h51.2v128h-51.2z m-288 0v-128h51.2v128h-51.2z m-362.496 576h136.256L302.848 640H145.216l10.688 160z"  horiz-adv-x="1024" />
      
      <glyph glyph-name="front-top-com" unicode="&#59288;" d="M640 896l256-256v-768H128V896h512z m-26.56-64H192v-896h640V613.44L613.44 832zM540.8 540.8l-0.064-136 192.064-64-0.064-248H768v-57.6H256v57.6h35.136l0.064 448h249.6z m0-196.736v-251.264h134.4V299.264l-134.4 44.8z m-57.6 139.136h-134.4v-390.4h134.4v390.4z m156.8-230.4v-57.6H576v57.6h64z m-192 32v-57.6H384v57.6h64z m0 128v-57.6H384v57.6h64z m79.68 327.488l53.632-20.928c-12.16-31.168-30.464-54.464-55.04-68.672-21.504-12.352-46.592-17.152-74.752-14.784l-12.16 1.472c-20.992 3.2-37.12 0.832-49.536-6.336-10.304-5.952-19.072-15.872-26.176-30.4l-4.032-9.28-53.632 20.928c12.16 31.232 30.464 54.464 55.04 68.672 21.504 12.416 46.592 17.152 74.752 14.784l12.16-1.472c20.992-3.2 37.12-0.832 49.536 6.336 10.304 5.952 19.072 15.872 26.176 30.4l4.032 9.28z"  horiz-adv-x="1024" />
      
      <glyph glyph-name="front-top-ecr" unicode="&#59289;" d="M640 896l256-256v-768H128V896h512z m-26.56-64H192v-896h640V613.44L613.44 832zM512 192a48 48 0 1 0 0-96 48 48 0 0 0 0 96z m10.624 480c118.016 0 177.92-107.712 136.832-198.144-12.416-23.04-24.96-39.04-45.824-59.904l-29.184-28.288-6.464-6.656-6.336-6.912c-25.728-27.52-32.384-42.112-33.344-74.176l-0.128-10.176h-64c0 50.688 9.152 80.512 41.6 117.952l15.744 17.28 17.792 17.792 8.896 8.512c23.424 22.4 34.304 35.2 43.904 52.928 21.76 48-10.304 105.792-79.488 105.792-66.688 0-99.328-29.376-105.856-97.28l-0.832-11.072-63.872 3.392C357.76 612.096 417.664 672 522.624 672z"  horiz-adv-x="1024" />
      
      <glyph glyph-name="front-done" unicode="&#59286;" d="M735.012571 603.428571l53.174858-52.662857-362.057143-362.057143-20.772572 21.577143L219.428571 396.214857l51.712 51.712 154.258286-154.258286L735.012571 603.428571z"  horiz-adv-x="1024" />
      
      <glyph glyph-name="front-termination" unicode="&#59285;" d="M288 640h448v-448h-448z"  horiz-adv-x="1024" />
      
      <glyph glyph-name="front-release" unicode="&#59284;" d="M880.256 815.36l-151.552-860.416-232.448 273.664 384 586.752zM852.608 832L451.392 259.712 121.344 387.392 852.608 832z"  horiz-adv-x="1024" />
      
      <glyph glyph-name="front-taskstart" unicode="&#59282;" d="M736 384L256 64V704z"  horiz-adv-x="1024" />
      
      <glyph glyph-name="front-examine" unicode="&#59283;" d="M187.136 79.872h649.088c24.704 0 46.336-21.632 46.336-46.4a47.552 47.552 0 0 0-46.336-46.336H187.136a47.552 47.552 0 0 0-46.336 46.336c0 24.768 21.632 46.4 46.336 46.4z m649.088 27.776c21.632 0 40.128 21.632 37.12 46.4l-12.416 80.32c-9.28 34.048-37.12 61.824-71.04 61.824H610.56L595.2 388.928c83.456 33.984 139.072 111.232 139.072 207.04a226.88 226.88 0 0 1-225.6 225.664A226.88 226.88 0 0 1 282.88 595.968c0-92.672 55.68-173.056 139.136-207.04L409.6 296.192h-179.2c-34.048 0-68.032-27.776-71.104-58.688l-15.488-83.456c-6.144-21.632 12.352-46.4 33.984-46.4h658.368z"  horiz-adv-x="1024" />
      
      <glyph glyph-name="im" unicode="&#59281;" d="M230.1-35.700000000000045c-7.2 0-12.7 1.1-17.1 3.3-6 3-10.1 8.2-11.7 14.6-3.6 14.8 6.9 30.3 25.8 56.2 6.7 9.3 18.6 25.5 21.7 33.6-96.2 79.7-151.3 196.9-151.3 322.2 0 56.4 11 111 32.7 162.5 20.9 49.7 50.9 94.4 89.1 132.7 38.2 38.4 82.7 68.5 132.2 89.5 51.3 21.8 105.8 32.8 162 32.8s110.6-11 162-32.8c49.5-21 94-51.2 132.2-89.5 38.2-38.3 68.2-83 89.1-132.7 21.7-51.5 32.7-106.2 32.7-162.5 0-66.7-16-133-46.4-191.8-29.4-56.9-72.2-107.1-123.8-145.1-41.4-30.5-87.4-52.7-136.7-66.2-8.5-2.3-17.3 2.7-19.6 11.2s2.7 17.3 11.2 19.6c45.5 12.4 88 32.9 126.2 61.1 98.4 72.5 157.1 188.8 157.1 311.1 0 212.6-172.3 385.6-384 385.6s-384-173-384-385.6c0-117.3 52.2-226.8 143.2-300.4 7.6-6.2 14.2-18.2 2.4-40.8-5.4-10.4-14-22.1-22.2-33.4-4.7-6.4-11.4-15.6-15.8-22.8 4.2 0.4 9.9 1.3 17.6 2.8 15.3 3 34.1 7.6 52.2 12.1 49.3 12.2 77.9 18.8 93.3 14.1l2.4-0.7c35-10.8 42.3-13.1 80-13.1 8.8 0 16-7.2 16-16s-7.2-16-16-16c-42.6 0-53.5 3.4-89.5 14.5l-2.1 0.6c-1 0.2-6.6 0.9-26.6-3-14.5-2.8-32.4-7.3-49.7-11.5-41.7-10.3-67.7-16.2-84.6-16.2z m160.8 30.8c0-0.1 0-0.1 0 0z m-164.4 1.5zM519.7-4.2000000000000455a24.6 24.6 0 1 1 49.2 0 24.6 24.6 0 1 1-49.2 0zM305.5 377.745a43.2 43.1 90 1 1 86.2 0 43.2 43.1 90 1 1-86.2 0zM481.2 377.745a43.2 43.1 90 1 1 86.2 0 43.2 43.1 90 1 1-86.2 0zM656.8 377.745a43.2 43.1 90 1 1 86.2 0 43.2 43.1 90 1 1-86.2 0z"  horiz-adv-x="1024" />
      
      <glyph glyph-name="message" unicode="&#59159;" d="M868.032 209.856a88.512 88.512 0 0 0-40.832 44.48c-16.768 39.296-14.4 89.088-11.968 144.064 2.368 39.296 4.8 78.592 0 115.2a427.968 427.968 0 0 1-72 188.608c-52.8 70.72-129.6 117.824-211.2 128.32v26.24C532.032 877.632 515.2 896 496 896c-19.2 0-35.968-18.304-35.968-39.296v-28.8c-26.432-2.56-52.8-10.496-79.232-20.928-91.2-41.92-165.568-128.32-194.368-238.336-14.4-55.04-12.032-107.392-9.6-162.368 2.368-60.224 7.168-117.888-16.832-162.368-7.168-15.744-16.768-20.992-40.768-31.424-33.6-18.368-55.232-55.04-55.232-96.896 2.432-52.416 40.832-96.896 91.2-96.896h184.832C352-65.15200000000004 416.832-128 496-128c79.232 0 146.432 65.472 156.032 146.688h184.832c50.368 0 88.768 44.48 88.768 99.52 2.432 57.6-38.4 81.152-57.6 91.648zM496-52.03200000000004c-40.768 0-72 28.8-83.968 68.096h165.568c-9.6-39.296-40.768-68.096-81.6-68.096z m340.864 149.248H155.264c-9.6 0-16.832 10.496-19.264 20.992 0 10.432 4.8 18.304 12.032 20.928 24 10.496 52.8 26.24 72 65.472C256 270.08000000000004 251.2 343.424 246.4 411.52c-2.368 47.104-4.8 94.272 4.8 133.568 24 86.4 81.6 154.496 153.6 185.92a187.712 187.712 0 0 0 84.032 18.304h2.368c72 0 144-36.608 192-102.08 28.8-39.296 50.432-91.712 57.6-149.312 4.8-28.8 2.432-62.848 0-99.52-2.368-60.224-7.168-123.072 19.2-180.672 14.4-34.048 38.4-62.912 72-78.592 19.2-10.496 19.2-13.12 19.2-20.928 4.864-13.12-2.368-20.992-14.336-20.992z"  horiz-adv-x="1024" />
      
      <glyph glyph-name="front-close" unicode="&#59160;" d="M171.434667 782.506667l-60.501334-60.245334 336.384-337.92L110.933333 46.421333000000004l60.501334-60.245333 336.128 337.664 336.128-337.664 60.416 60.245333-336.384 337.92 336.384 337.92-60.416 60.245334-336.213334-337.664L171.52 782.506667z"  horiz-adv-x="1024" />
      
      <glyph glyph-name="query" unicode="&#59161;" d="M448 832a384 384 0 0 0 293.184-632l206.272-206.272a32 32 0 0 0-45.248-45.248l-206.272 206.272A384 384 0 1 0 448 832z m0-64a320 320 0 1 1 0-640A320 320 0 0 1 448 768z"  horiz-adv-x="1024" />
      
      <glyph glyph-name="batchAdd" unicode="&#59162;" d="M883.2 704A76.8 76.8 0 0 0 960 627.2v-614.4a76.8 76.8 0 0 0-76.8-76.8H268.8A76.8 76.8 0 0 0 192 12.799999999999955V627.2A76.8 76.8 0 0 0 268.8 704h614.4z m12.8-64H256v-640h640V640zM576 576a32 32 0 0 0 32-32l-0.064-192H800a32 32 0 1 0 0-64H607.936l0.064-192a32 32 0 1 0-64 0l-0.064 192H352a32 32 0 0 0 0 64h191.936l0.064 192A32 32 0 0 0 576 576z m192 256a64 64 0 0 0 64-64H128v-704a64 64 0 0 0-64 64V768a64 64 0 0 0 64 64h640z"  horiz-adv-x="1024" />
      
      <glyph glyph-name="edit" unicode="&#59163;" d="M779.52 543.424l-19.968-19.904-397.12-397.184c-17.664-17.664-39.424-30.72-63.296-38.08l-162.56-49.984a40.32 40.32 0 0 0-50.304 50.368l49.92 162.56c7.424 23.872 20.48 45.568 38.144 63.232l477.44 477.376a132.992 132.992 0 1 0 188.032-188.032l-60.352-60.352zM604.224 653.12L219.904 268.86400000000003c-10.24-10.24-17.792-22.848-22.08-36.672l-36.544-118.848 118.848 36.544c13.824 4.224 26.432 11.84 36.672 22.016l384.32 384.384L604.16 653.12h0.064z m45.568 45.696l96.832-96.96 47.552 47.552a68.48 68.48 0 1 1-96.896 96.832l-47.488-47.424zM121.536-64h805.952a32.256 32.256 0 1 1 0 64.448H121.536A32.256 32.256 0 0 1 121.6-64z"  horiz-adv-x="1024" />
      
      <glyph glyph-name="save" unicode="&#59164;" d="M704.128 832L960 574.592V0a64 64 0 0 0-64-64H128a64 64 0 0 0-64 64V768a64 64 0 0 0 64 64h576.128z m-26.624-64H128v-768h64V320a64 64 0 0 0 64 64h512a64 64 0 0 0 64-64v-320h64V548.1600000000001L677.504 768zM768 320H256v-320h512V320z m-160-128a32 32 0 1 0 0-64h-192a32 32 0 1 0 0 64h192z m0 448a32 32 0 0 0 0-64h-256a32 32 0 0 0 0 64h256z"  horiz-adv-x="1024" />
      
      <glyph glyph-name="abutDelete" unicode="&#59165;" d="M64 422.4m32 0l832 0q32 0 32-32l0-12.8q0-32-32-32l-832 0q-32 0-32 32l0 12.8q0 32 32 32Z"  horiz-adv-x="1024" />
      
      <glyph glyph-name="disable" unicode="&#59166;" d="M512 832a448 448 0 1 0 0-896A448 448 0 0 0 512 832zM224 638.0799999999999l-1.792-2.176a384 384 0 0 1 537.792-545.152L233.344 617.408a31.872 31.872 0 0 0-9.28 20.672zM512 768a382.528 382.528 0 0 1-254.08-96 31.872 31.872 0 0 0 20.736-9.344l526.528-526.656A384 384 0 0 1 512 768z"  horiz-adv-x="1024" />
      
      <glyph glyph-name="add" unicode="&#59167;" d="M512 832a38.4 38.4 0 0 0 38.4-38.4l-0.064-371.2H921.6a38.4 38.4 0 0 0 0-76.8H550.336l0.064-371.2a38.4 38.4 0 0 0-76.8 0l-0.064 371.2H102.4a38.4 38.4 0 1 0 0 76.8h371.136L473.6 793.6A38.4 38.4 0 0 0 512 832z"  horiz-adv-x="1024" />
      
      <glyph glyph-name="update" unicode="&#59168;" d="M854.4 557.8879999999999a384 384 0 0 0-319.36-557.184v-124.48l-172.992 172.992 173.056 172.992v-157.44a320 320 0 0 1 262.336 464.128 32 32 0 0 0 56.96 28.992zM192 384c0-51.84 12.288-101.76 35.52-146.752a32 32 0 1 0-56.832-29.376A384 384 0 0 0 512 768h23.04V891.904l173.056-173.056-172.992-172.992L535.04 704 512 704a320 320 0 0 1-320-320z"  horiz-adv-x="1024" />
      
      <glyph glyph-name="action" unicode="&#59169;" d="M256 448a64 64 0 1 0 0-128 64 64 0 0 0 0 128z m256 0a64 64 0 1 0 0-128 64 64 0 0 0 0 128z m256 0a64 64 0 1 0 0-128 64 64 0 0 0 0 128z"  horiz-adv-x="1024" />
      
      <glyph glyph-name="interfaceTab" unicode="&#59170;" d="M896-95.87199999999996a32 32 0 0 0-47.616-27.968l-320.768 179.136a32 32 0 0 1-31.232 0l-320.768-179.136A32 32 0 0 0 128-95.87199999999996V844.8h-38.4a25.6 25.6 0 1 0 0 51.2h844.8a25.6 25.6 0 1 0 0-51.2H896v-940.672zM844.736 704h-665.6L179.2-60.48000000000002l317.44 173.376a32 32 0 0 0 30.72 0l317.44-173.44L844.736 704zM512 576a160 160 0 1 0 0-320 160 160 0 0 0 0 320z m0-51.2a108.8 108.8 0 1 1 0-217.6 108.8 108.8 0 0 1 0 217.6z m332.736 320H179.2v-89.6h665.536V844.8z"  horiz-adv-x="1024" />
      
      <glyph glyph-name="lifephase" unicode="&#59171;" d="M512 864A160 160 0 0 0 672 704l-0.256-6.784 15.104-6.72c69.12-32.64 128-84.288 169.536-148.672a25.6 25.6 0 1 0-43.008-27.712 360 360 0 0 1-152.32 131.84 160 160 0 0 0-298.24 0l12.8 5.632a358.592 358.592 0 0 1-220.608-299.776L160 352a160 160 0 0 0 98.88-285.76A357.248 357.248 0 0 1 512-38.39999999999998a357.184 357.184 0 0 1 253.184 104.704 160 160 0 1 0 46.464-25.536l8.96 9.856A408.64 408.64 0 0 0 512-89.60000000000002c-115.2 0-222.72 47.872-299.648 130.368A160.256 160.256 0 0 0 0 192a160 160 0 0 0 103.04 149.568l-0.256-3.328a409.728 409.728 0 0 0 249.408 359.04A160 160 0 0 0 512 864zM160 300.79999999999995a108.8 108.8 0 1 1 0-217.6 108.8 108.8 0 0 1 0 217.6z m704 0a108.8 108.8 0 1 1 0-217.6 108.8 108.8 0 0 1 0 217.6zM512 812.8a108.8 108.8 0 1 1 0-217.6 108.8 108.8 0 0 1 0 217.6z"  horiz-adv-x="1024" />
      
      <glyph glyph-name="attributeSort" unicode="&#59172;" d="M151.938077 320.719101a30.681648 30.681648 0 0 0 30.681648-30.681648v-218.223221H306.816479l-153.408239-199.750312L0 71.81423199999995h121.256429V290.037453a30.681648 30.681648 0 0 0 30.681648 30.681648z m853.205494-325.992509c9.715855 0 17.578027-11.505618 17.578027-25.56804 0-14.062422-7.862172-25.56804-17.578027-25.56804H337.178527c-9.715855 0-17.578027 11.505618-17.578028 25.56804 0 14.062422 7.862172 25.56804 17.578028 25.56804h667.965044z m0 255.680399c9.715855 0 17.578027-11.505618 17.578027-25.56804 0-14.062422-7.862172-25.56804-17.578027-25.56804H337.178527c-9.715855 0-17.578027 11.505618-17.578028 25.56804 0 14.062422 7.862172 25.56804 17.578028 25.56804h667.965044zM153.40824 896l153.408239-199.750312H182.619725v-218.223221a30.681648 30.681648 0 1 0-61.363296 0V696.249688H0L153.40824 896z m851.735331-325.992509c9.715855 0 17.578027-11.505618 17.578027-25.56804 0-14.062422-7.862172-25.56804-17.578027-25.56804H337.178527C327.462672 518.8714110000001 319.600499 530.377029 319.600499 544.439451c0 14.062422 7.862172 25.56804 17.578028 25.56804h667.965044z m0 255.680399c9.715855 0 17.578027-11.505618 17.578027-25.56804 0-14.062422-7.862172-25.56804-17.578027-25.56804H337.178527C327.462672 774.55181 319.600499 786.057428 319.600499 800.11985c0 14.062422 7.862172 25.56804 17.578028 25.56804h667.965044z"  horiz-adv-x="1024" />
      
      <glyph glyph-name="replace" unicode="&#59173;" d="M621.568 816.832a57.536 57.536 0 0 0 77.824 0l298.944-278.592 7.232-7.552c27.072-32.512 24.256-80-8.064-109.312l-298.688-270.912-6.592-5.12a57.472 57.472 0 0 0-31.744-9.536l-6.912 0.448c-27.328 3.2-48.832 25.472-48.832 53.12V359.552h-57.344l-1.536 0.128-4.096-0.448H367.168V578.624l-0.512 0.896a4.928 4.928 0 0 1-4.288 0.96l-1.984-0.96L61.056 300.60799999999995a27.2 27.2 0 0 1-3.456-36.48l4.096-4.544 298.688-270.976c0.704-0.64 1.856-1.024 3.136-1.024a4.48 4.48 0 0 1 3.2 1.088l0.448 0.896V211.20000000000005h173.44c14.4 0 26.048-11.52 26.048-25.792 0-12.48-8.96-22.848-20.8-25.28l-5.248-0.512H419.264v-170.112c0-27.648-21.504-49.92-48.832-53.12L363.52-64a57.472 57.472 0 0 0-31.744 9.472l-6.592 5.12-298.688 270.976A78.464 78.464 0 0 0 18.432 330.88l7.232 7.552 298.944 278.592a57.536 57.536 0 0 0 77.824 0c8.96-8.384 14.72-19.392 16.384-31.232l0.448-7.168V410.88l122.496-0.064 1.472-0.128 4.16 0.384h109.44v-221.696l0.448-0.832a4.48 4.48 0 0 1 3.2-1.152c1.28 0 2.432 0.448 3.136 1.088l298.688 270.912 4.096 4.544a27.2 27.2 0 0 1-3.456 36.48L663.68 779.328l-1.92 0.96a4.928 4.928 0 0 1-4.352-0.96c-0.384-0.384-0.512-0.64-0.512-0.896v-219.392h-173.44l-5.248 0.512a25.856 25.856 0 0 0-20.8 25.28l0.512 5.184a25.984 25.984 0 0 0 25.536 20.608h121.344V778.432l0.448 7.232a52.8 52.8 0 0 0 16.384 31.168z"  horiz-adv-x="1024" />
      
      <glyph glyph-name="functionExtend" unicode="&#59174;" d="M384 512a96 96 0 0 0 96-96v-448A96 96 0 0 0 384-128H96A96 96 0 0 0 0-32v448A96 96 0 0 0 96 512H384z m544-320a96 96 0 0 0 96-96v-128a96 96 0 0 0-96-96H640a96 96 0 0 0-96 96v128A96 96 0 0 0 640 192h288zM384 460.8H96a44.8 44.8 0 0 1-44.416-38.72L51.2 416v-448a44.8 44.8 0 0 1 38.72-44.416l6.08-0.384H384a44.8 44.8 0 0 1 44.416 38.72L428.8-32v448a44.8 44.8 0 0 1-38.72 44.416L384 460.8z m544-320H640a44.8 44.8 0 0 1-44.416-38.72L595.2 96v-128a44.8 44.8 0 0 1 38.72-44.416L640-76.79999999999995h288a44.8 44.8 0 0 1 44.416 38.72l0.384 6.08v128a44.8 44.8 0 0 1-38.72 44.416L928 140.79999999999995z m0 755.2A96 96 0 0 0 1024 800v-448a96 96 0 0 0-96-96H640a96 96 0 0 0-96 96v448A96 96 0 0 0 640 896h288z m0-51.2H640a44.8 44.8 0 0 1-44.416-38.72L595.2 800v-448a44.8 44.8 0 0 1 38.72-44.416L640 307.20000000000005h288a44.8 44.8 0 0 1 44.416 38.72L972.8 352v448a44.8 44.8 0 0 1-38.72 44.416L928 844.8zM384 896a96 96 0 0 0 96-96v-128A96 96 0 0 0 384 576H96A96 96 0 0 0 0 672v128A96 96 0 0 0 96 896H384z m0-51.2H96a44.8 44.8 0 0 1-44.416-38.72L51.2 800v-128a44.8 44.8 0 0 1 38.72-44.416L96 627.2H384a44.8 44.8 0 0 1 44.416 38.72L428.8 672v128a44.8 44.8 0 0 1-38.72 44.416L384 844.8z"  horiz-adv-x="1024" />
      
      <glyph glyph-name="userList" unicode="&#59175;" d="M230.4-76.79999999999995a25.6 25.6 0 1 0 0-51.2H25.6a25.6 25.6 0 1 0 0 51.2h204.8zM704 192a320 320 0 0 0 320-320H384a320 320 0 0 0 320 320z m0-51.2a268.928 268.928 0 0 1-260.864-203.52l-3.072-14.08h527.808l-0.192 1.408a268.928 268.928 0 0 1-250.24 215.872L704 140.79999999999995z m-345.6 83.2a25.6 25.6 0 1 0 0-51.2H25.6a25.6 25.6 0 1 0 0 51.2h332.8zM704 640a192 192 0 0 0 192-192v-64a192 192 0 0 0-384 0V448a192 192 0 0 0 192 192z m0-51.2a140.8 140.8 0 0 1-140.416-130.752L563.2 448v-64a140.8 140.8 0 0 1 281.216-10.048L844.8 384V448A140.8 140.8 0 0 1 704 588.8zM358.4 576a25.6 25.6 0 1 0 0-51.2H25.6a25.6 25.6 0 1 0 0 51.2h332.8z m640 320a25.6 25.6 0 1 0 0-51.2H25.6a25.6 25.6 0 1 0 0 51.2h972.8z"  horiz-adv-x="1024" />
      
      <glyph glyph-name="userGroup" unicode="&#59176;" d="M0-96a288 288 0 0 0 349.056 249.152l-2.56 0.512a384 384 0 0 0 675.52-235.328l0.256-14.336H0z m638.272 332.8c-93.248 0-177.664-38.4-238.208-100.224l-1.536 0.704a288.704 288.704 0 0 0 164.864-186.624l-1.344 4.48 405.056 0.064-0.448 2.816a332.928 332.928 0 0 1-314.368 278.464l-14.08 0.32z m-352-128a237.056 237.056 0 0 1-221.056-151.616l-0.704-1.984h443.456l-0.64 1.984a237.12 237.12 0 0 1-208.64 151.296l-12.416 0.32z m-6.4 499.2a140.8 140.8 0 0 0 140.8-140.8v-93.888a140.8 140.8 0 1 0-281.6 0V467.2a140.8 140.8 0 0 0 140.8 140.8z m0-51.2a89.6 89.6 0 0 1-89.216-80.96l-0.384-8.64v-93.888a89.6 89.6 0 0 1 178.752-8.576l0.448 8.576V467.2a89.6 89.6 0 0 1-89.6 89.6z m358.4 307.2a192 192 0 0 0 192-192v-128a192 192 0 1 0-384 0v128a192 192 0 0 0 192 192z m0-51.2a140.8 140.8 0 0 1-140.48-130.752l-0.32-10.048v-128a140.8 140.8 0 0 1 281.216-10.048l0.384 10.048v128a140.8 140.8 0 0 1-140.8 140.8z"  horiz-adv-x="1024" />
      
      <glyph glyph-name="defaultValue" unicode="&#59177;" d="M998.4-64a25.6 25.6 0 1 0 0-51.2H537.6a25.6 25.6 0 1 0 0 51.2h460.8zM160 320a160 160 0 0 0 156.8-128H998.4a25.6 25.6 0 1 0 0-51.2H318.848A160 160 0 1 0 160 320z m0-51.2a108.8 108.8 0 1 1 0-217.6 108.8 108.8 0 0 1 0 217.6zM998.4 512a25.6 25.6 0 1 0 0-51.2H537.6a25.6 25.6 0 1 0 0 51.2h460.8zM160 896a160 160 0 0 0 156.8-128H998.4a25.6 25.6 0 1 0 0-51.2H318.848A160 160 0 1 0 160 896z m0-51.2a108.8 108.8 0 1 1 0-217.6 108.8 108.8 0 0 1 0 217.6z"  horiz-adv-x="1024" />
      
      <glyph glyph-name="roles" unicode="&#59178;" d="M640 448a192 192 0 0 0 192-192v-128h119.872a64 64 0 0 0 56.512-94.08l-67.968-128a64 64 0 0 0-56.576-33.92H144.832a64 64 0 0 0-56.512 33.92l-68.032 128A64 64 0 0 0 76.8 128H192v128a192 192 0 0 0 192 192h256z m311.872-371.2H76.8a12.8 12.8 0 0 1-12.608-14.912l1.28-3.84 68.032-128a12.8 12.8 0 0 1 7.872-6.4l3.456-0.448H883.84a12.8 12.8 0 0 1 9.28 3.968l2.048 2.816 68.032 128a12.8 12.8 0 0 1-7.936 18.368l-3.392 0.448zM640 396.8H384a140.8 140.8 0 0 1-140.416-130.752L243.2 256v-128h537.6v128a140.8 140.8 0 0 1-130.752 140.416L640 396.8zM512 384a32 32 0 0 0 32-32v-128a32 32 0 1 0-64 0v128A32 32 0 0 0 512 384z m0 512a160 160 0 0 0 160-160v-128a160 160 0 0 0-320 0v128A160 160 0 0 0 512 896z m0-51.2a108.8 108.8 0 0 1-108.416-99.392L403.2 736v-128a108.8 108.8 0 0 1 217.216-9.408L620.8 608v128A108.8 108.8 0 0 1 512 844.8z"  horiz-adv-x="1024" />
      
      </font>
</defs>
</svg>
